<svg xmlns="http://www.w3.org/2000/svg" viewBox="0 0 885.83 617.73"><defs><style>.cls-1{fill:#fcca12;}.cls-2{fill:#59c247;}.cls-3{fill:#176fc1;}</style></defs><g id="Layer_2" data-name="Layer 2"><g id="svg2"><g id="layer1"><g id="g8694"><path id="path8540" class="cls-1" d="M561.19,307.87,531.26,0,500.91,313q29.51-3.23,60.28-5.1"/><path id="path8544" class="cls-2" d="M634.26,305.6,634.36,0,531.26,0V0l29.93,307.83c23.9-1.46,48.32-2.22,73.07-2.27"/><path id="path8548" class="cls-3" d="M500.91,313,531.26,0V0L261.82,0l.11,371.59c63.34-27.74,145.72-48.37,239-58.66"/><path id="path8552" class="cls-3" d="M408.49,452.35c3.7.66,17,4.55,17,14V617.73h45.05V447H408.49v5.4"/><path id="path8556" class="cls-3" d="M54.67,447v5.4c5.39,1.13,17.24,4.44,12.48,15.09L0,617.73H35.42l21-46.84h74.34l18.4,46.84h46.63L129.22,447ZM66,549.67l30.13-67.2,26.44,67.2H66"/><path id="path8560" class="cls-3" d="M744.66,447v5.4c5.39,1.13,17.23,4.44,12.48,15.09L690,617.73h35.42l21-46.84h74.34l18.4,46.84h46.64L819.21,447ZM756,549.67l30.14-67.2,26.33,67.2H756"/><path id="path8564" class="cls-3" d="M625,617.73,696.12,447H662.39L610.26,572.19,560.55,447H497.32v5.4c7.3,1.4,15.54,4.55,19.25,14l60.06,151.38H625"/><path id="path8568" class="cls-3" d="M313,617.73,384.17,447H350.44L298.31,572.19,248.61,447H185.37v5.4c7.3,1.4,15.55,4.55,19.25,14l60.06,151.38H313"/></g></g></g></g></svg>