<svg xmlns="http://www.w3.org/2000/svg" viewBox="0 0 518.62 599.93"><defs><style>.cls-1{fill:#fff;}.cls-2{fill:#b4bbc1;}.cls-3{fill:#ecb365;}</style></defs><g id="Layer_2" data-name="Layer 2"><g id="Layer_1-2" data-name="Layer 1"><path class="cls-1" d="M0,150.05v300l73.94,42.69,1.06-89,107.17,61.87v89.66l77.42,44.7,1.16-299.33-78.58-45.37v85.2L73.94,277.94v-85.2Z"/><polygon class="cls-2" points="259.75 599.72 311.53 569.83 311.53 389.83 363.3 419.94 415.07 390.05 466.84 300.16 466.84 480.16 518.62 450.27 518.62 150.27 466.84 180.16 415.07 290.45 363.3 320 311.53 269.83 259.75 299.72 259.75 599.72"/><polygon class="cls-3" points="259.75 0 207.98 29.97 363.3 119.89 259.75 119.89 207.98 149.86 207.98 209.8 52.67 119.89 0.9 149.86 259.75 299.72 311.53 269.75 293.93 199.61 345.99 169.81 466.84 179.83 518.62 149.86 259.75 0"/></g></g></svg>