<svg xmlns="http://www.w3.org/2000/svg" viewBox="0 0 311.5 360"><defs><style>.cls-1{fill:#231f20;}.cls-2{fill:#fff;}.cls-3{fill:#ef2f51;}.cls-4{fill:#fddd04;}</style></defs><g id="Layer_2" data-name="Layer 2"><g id="Layer_1-2" data-name="Layer 1"><g id="layer1"><g id="g4552"><path id="path4850" class="cls-1" d="M72.21,1.57H239.38L247,1.48h17c8.13,0,21.53-.4,40.42-1.19L311.5,0c-1,14.66-1.24,20.42-1.28,28.19l-.1,22.47L310,72V190.86c0,74.88-16.95,100.31-97.72,140.19-3.58,1.77-44.75,22.32-49.05,24.63l-4,2.16L155.11,360,151,357.84l-4.12-2.16c-17-8.89-34.21-16.72-47.59-23.28-74-36.3-97.71-62.08-97.71-141.54V72l-.2-21.29L1.28,28.19C1.21,14.62,1.07,10.22,0,0L7.07.29c18.59.78,32.45,1.19,40.52,1.19H64.46l7.75.09"/><path id="path4854" class="cls-2" d="M155.1,352.73l31.82-15.61.8-.31-.2-.69V189.75l-.29-.89,1,.2H303.37l1,.29-.3-1.29V126l.3-1-1,.29H188.22l-1,.21.29-1V8.08l.2-1-.89.29H123.78l-1-.29.3,1V124.52l.2,1-.9-.21H8.13l-1-.29.3,1v62.65l-.3.69,1-.29H122.39l.9-.2-.2,1.19V335.82l-.3,1.19.79.2,31.52,15.52"/><path id="path4858" class="cls-3" d="M8.63,7.38l-1.5-.29.31,1.08V124.72l-.31.9,1.41-.31H122.29l1,.31-.2-1V7.88l.2-.79-1,.29H8.63"/><path id="path4862" class="cls-3" d="M188.71,7.38l-1.39-.29.2,1.08V124.72l-.2.9,1.29-.31H303.26l1.1.31-.3-1V7.88l.3-.79-1.1.29H188.71"/><path id="path4866" class="cls-3" d="M122.79,189.06H7.84l-.7-.29.3.8v6.94c0,64,21.36,95.11,87.1,126.88l20.79,10.05,7.24,3.39.6.69-.1-1,0-146.87.2-.89-.5.29"/><path id="path4870" class="cls-3" d="M188.11,189.06l-.79-.29.2.69V336.12l-.2,1.1.79-.89,6.57-3c89.27-42,109.38-67,109.38-136.23v-7.36l.3-1-1,.3H188.11"/><path id="path4874" class="cls-1" d="M26.13,131.08l.7.8c.38.43.64.73.8.89s.41.43.89.89l.79.8-.49.4-1,.9-.79.89-.3.3v.93c0,8.05,2.09,13.54,6.56,17.16l.8.65-.8.54-.89-.09-1.9-.2-1.68-.3-1-.2-1,7.16H25.44l-1-7.16-1,.2c-.85.19-1.38.27-1.59.3l-2,.2-.9.09c-.42,0-.76-.14-.76-.3a1,1,0,0,1,.46-.63l1.49-1.15c1.23-1,2-2.12,3.48-5.07a8.2,8.2,0,0,0,1-3.28c0-2.1.32-3.78.69-3.78l.19-3.68.11-1.39-.4-.3-.8-.89-1-.9-.39-.4c.36-.35.62-.62.79-.8a15.25,15.25,0,0,0,2.29-2.58"/><path id="path4878" class="cls-1" d="M63.82,131.08a14.82,14.82,0,0,0,2.29,2.58l.79.8-.4.4-1,.9-.79.89-.5.3.2,1.39.19,3.68c.28,5.27,3.22,11.36,6.27,13,.53.29.85.54.85.65a.48.48,0,0,1-.46.5L70,156.14l-1.9-.2-1.69-.3-1-.2-1,7.16H63.13l-1-7.16-1,.2-1.7.3-1.88.2-.91.09h-.12c-.41,0-.68-.13-.68-.33a.85.85,0,0,1,.42-.61l1.48-1.15c1.3-1,1.66-1.5,3.48-5.07a8.26,8.26,0,0,0,1.1-3.28c0-2.1.28-3.78.6-3.78l.2-3.68.09-1.39-.29-.3c-.52-.53-.82-.82-.9-.89l-1-.9-.39-.4.79-.8c.48-.46.78-.75.9-.89l.8-.89c.15-.18.37-.45.69-.8"/><path id="path4882" class="cls-1" d="M45,153.16l.7.79.69.89a6.74,6.74,0,0,0,.9.9l.88.79-.49.4-.9.9-.9.8-.29.39V160c0,8.27,2,13.44,6.57,17.17l.79.65-.79.55-.9-.11L49.4,178l-1.69-.3-1-.2-1,7.17h-1.4l-1-7.17-1,.2-1.69.3-1.89.2-.9.11h-.1c-.39,0-.69-.15-.69-.33s.19-.38.5-.62l1.48-1.14c3.18-2.44,5.38-9.11,5.38-16.28V159l-.29-.39-.9-.8-.9-.9-.49-.4A17.83,17.83,0,0,0,45,153.16"/><path id="path4886" class="cls-1" d="M82.81,153.16A17.83,17.83,0,0,0,86,156.53l-.49.4-.9.9-.89.8-.3.39V160c0,5.4,1.58,11.9,3.39,14l2,2.28a8.51,8.51,0,0,0,1.1.89l.89.65-.78.55-.9-.11-1.89-.2-1.69-.3-1-.2-1,7.17H82.11l-1-7.17-1,.2-1.7.3-1.88.2-.9.11h-.1c-.38,0-.69-.15-.69-.34s.16-.38.44-.61l1.45-1.14c3.12-2.48,5.47-9.14,5.47-16.28V159l-.31-.39-.88-.8-.9-.9-.5-.4.89-.79a6.76,6.76,0,0,0,.9-.9l.69-.89.7-.79"/><path id="path4890" class="cls-1" d="M101.7,131.08a15.25,15.25,0,0,0,2.29,2.58c.17.18.45.45.8.8l-.4.4-1,.9-.8.89-.39.3.09,1.39.2,3.68c.27,5.13,3.3,11.43,6.26,13,.52.28.85.54.85.65a.46.46,0,0,1-.39.5l-1.25-.05-2-.2a16.75,16.75,0,0,1-1.69-.3l-.89-.2-1,7.16H101l-1-7.16-1,.25-1.64.25-1.89.2-.9.09h-.12c-.38,0-.68-.13-.68-.3a1,1,0,0,1,.45-.64l1.45-1.15c1.32-1.05,1.74-1.66,3.48-5.07a8.19,8.19,0,0,0,1.09-3.28c0-2.1.27-3.78.6-3.78l.19-3.68.11-1.39-.3-.3-.89-.89c-.45-.47-.74-.76-.9-.9s-.25-.21-.49-.4l.79-.8c.47-.46.77-.75.89-.89s.43-.46.79-.89c.17-.18.39-.45.7-.8"/><path id="path4894" class="cls-1" d="M209,130.88l.7.9.69.8c.46.53.77.86.9,1s.48.45.89.8l-.49.39-.9.89-.9.8-.3.4v.86c0,8,2.68,15,6.57,17.13.6.34.85.6.85.87l0,.14-.8.19h-.9a18.28,18.28,0,0,1-4.57-.79l-1,7.15h-1.4l-1-7.15a18,18,0,0,1-4.57.79h-.89c-.58,0-.84-.1-.84-.35s.26-.55.84-.85c3.82-2,6.56-9.14,6.56-17.12v-.87l-.3-.4-.89-.8-.9-.89-.5-.39a11.75,11.75,0,0,0,.9-.8c.13-.13.42-.46.9-1l.69-.8.7-.9"/><path id="path4898" class="cls-1" d="M246.88,130.88l.7.9.8.8.89,1,.79.8-.49.39-.9.89-.9.8-.29.4v.86c0,7.92,2.74,15,6.58,17.13.59.33.85.6.85.87l-.06.14-.79.19h-.9a18.21,18.21,0,0,1-4.57-.79l-1,7.15h-1.4l-1-7.15a16.89,16.89,0,0,1-5,.79c-1.09,0-1.31-.06-1.31-.39s.24-.51.91-.81a9.76,9.76,0,0,0,3.08-3.18c1.57-2.51,2.48-4.68,2.48-6,0-2.15.32-3.88.7-3.88l.2-3.68.09-1.29-.39-.4a17.58,17.58,0,0,0-2.29-2.08l.9-.8.89-1,.8-.8.6-.9"/><path id="path4902" class="cls-1" d="M228,153l.7.79c.37.44.64.73.8.9s.36.47.84.95c.18.17.49.38.84.74l-.49.39-.9,1-.9.79-.29.41.1,1.29.19,3.68c.3,5.43,3.12,11.3,6.27,13,.6.33.85.59.85.88l-.05.12-.8.19h-.9a17.45,17.45,0,0,1-4.57-.8l-1,7.17h-1.4l-1-7.17a15.67,15.67,0,0,1-5,.82c-1,0-1.26-.1-1.26-.47s.24-.47.88-.74a9.89,9.89,0,0,0,3.09-3.18c1.62-2.65,2.58-4.87,2.58-6,0-2.14.27-3.88.6-3.88l.19-3.68.11-1.29-.4-.41-.8-.79-1-1-.39-.39.79-.79A15.65,15.65,0,0,0,228,153"/><path id="path4906" class="cls-1" d="M266.17,153c.32.35.54.61.7.79.38.44.65.73.8.9s.42.43.9.9l.78.79-.38.39c-.57.58-.89.9-1,1-.53.47-.83.74-.9.79s-.15.19-.29.41l.1,1.29.19,3.68c.31,5.43,3.13,11.3,6.28,13,.59.33.85.59.85.88l-.06.12-.79.19h-.9a17.31,17.31,0,0,1-4.57-.8l-1,7.17h-1.29l-1.1-7.17a15.56,15.56,0,0,1-5,.82c-1,0-1.27-.1-1.27-.47s.24-.47.88-.74a9.89,9.89,0,0,0,3.09-3.18c1.62-2.65,2.58-4.87,2.58-6,0-2.14.28-3.88.6-3.88l.2-3.68.1-1.29-.4-.41-.8-.79-1-1-.39-.39.78-.79a14.35,14.35,0,0,0,2.29-2.59"/><path id="path4910" class="cls-1" d="M285.07,130.88l.7.9.79.8.89,1,.8.8-.49.39-.9.89-.9.8-.3.4v.86c0,7.92,2.73,15,6.57,17.13.6.33.85.6.85.87l-.05.14-.8.19h-.9a18.28,18.28,0,0,1-4.57-.79l-1,7.15h-1.4l-1-7.15a16.77,16.77,0,0,1-4.95.79c-1.09,0-1.32-.06-1.32-.39s.25-.51.91-.81a9.76,9.76,0,0,0,3.08-3.18c1.58-2.51,2.48-4.68,2.48-6,0-2.15.33-3.88.7-3.88l.2-3.68.1-1.29-.4-.4c-.44-.45-.7-.71-.8-.8l-1-.89-.4-.39.8-.8.9-1,.79-.8.6-.9"/><path id="path4914" class="cls-1" d="M137.9,233.61a16,16,0,0,0,2.28,2.58c.18.18.45.44.8.8l-.39.39-1,.89-.78.9-.41.4.11,1.3.19,3.68a21.81,21.81,0,0,0,3.18,9.83,9.82,9.82,0,0,0,3.09,3.19c.66.29.91.5.91.81s-.25.39-1.41.39a15.94,15.94,0,0,1-4.88-.81l-1,7.17h-1.4l-1-7.17a18,18,0,0,1-4.58.8h-.89c-.59,0-.85-.11-.85-.34s.26-.55.85-.85a9.82,9.82,0,0,0,3.07-3.19c1.76-2.92,2.58-4.85,2.58-5.95,0-2.15.28-3.88.6-3.88l.2-3.68.1-1.3-.3-.4-.89-.9-.9-.89-.49-.39c.35-.36.62-.62.8-.8.47-.46.76-.77.88-.9s.43-.46.8-.9l.7-.78"/><path id="path4918" class="cls-1" d="M173.4,233.61a15.65,15.65,0,0,0,2.29,2.58l.79.8-.39.39-1,.89-.8.9-.4.4.11,1.3.19,3.68a21.7,21.7,0,0,0,3.19,9.83,9.72,9.72,0,0,0,3.08,3.19c.66.29.91.5.91.81s-.25.39-1.41.39a15.77,15.77,0,0,1-4.87-.81l-1,7.17h-1.4l-1-7.17a17.88,17.88,0,0,1-4.58.8h-.89c-.58,0-.84-.11-.84-.34s.26-.55.84-.85a9.74,9.74,0,0,0,3.08-3.19c1.75-2.92,2.58-4.85,2.58-5.95,0-2.15.28-3.88.61-3.88l.19-3.68.1-1.3-.29-.4-.9-.9-.9-.89-.49-.39.79-.8c.48-.46.78-.77.89-.9s.42-.46.8-.9l.7-.78"/><path id="path4922" class="cls-1" d="M155.3,265.82l.45,1.05.94.64.9,1,.8.79-.4.4-1,.9c-.1.07-.36.34-.81.79l-.39.4.1,1.29.2,3.68c.29,5.39,3.31,11.67,6.26,13,.68.32.9.51.9.78l-.1.22-.69.29-.9-.09-2-.2a15.8,15.8,0,0,1-1.69-.29l-.89-.2-1.1,7.15h-1.3l-1-7.15-1,.2-1.68.29L149,291l-.9.09-.1,0c-.44,0-.72-.19-.72-.46s.23-.53.82-.85a9.47,9.47,0,0,0,3.08-3.17c1.76-2.95,2.59-4.86,2.59-6,0-2.14.27-3.88.59-3.88l.2-3.68.11-1.29-.31-.4-.89-.79-.9-.9-.5-.4.81-.8.89-1,.79-.79.7-.9"/><path id="path4926" class="cls-1" d="M137.7,298.64l.69.89.81.8.89,1,.65.94-.35.26-.9.89-.9.79-.29.4.09,1.29.2,3.69c.3,5.43,3.13,11.3,6.27,13,.6.33.86.58.86.87l-.06.12-.8.2H144a28.57,28.57,0,0,1-4.58-.69l-1,7.06H137l-1-7.06a22.89,22.89,0,0,1-5,.71c-1,0-1.26-.1-1.26-.47s.24-.47.88-.74a10.06,10.06,0,0,0,3.09-3.17c1.61-2.67,2.58-4.88,2.58-6,0-2.14.27-3.87.6-3.87l.19-3.69.1-1.29c-.18-.17-.3-.3-.39-.4l-.8-.79-1-.89-.39-.41.79-.79.9-1,.8-.8.59-.89"/><path id="path4930" class="cls-1" d="M173.4,298.64l.6.89.79.8.75,1.14.94.64-.39.41-1,.89-.8.79a4.9,4.9,0,0,1-.4.4l.11,1.29.19,3.69a21.86,21.86,0,0,0,3.19,9.85,9.82,9.82,0,0,0,3.08,3.17c.66.29.91.52.91.81s-.25.39-1.33.39a23.25,23.25,0,0,1-4.95-.7l-1,7.06h-1.4l-1-7.06a28.57,28.57,0,0,1-4.58.69h-.89c-.58,0-.84-.1-.84-.33s.26-.56.84-.86a9.76,9.76,0,0,0,3.08-3.17c1.75-2.94,2.58-4.86,2.58-6,0-2.14.28-3.87.61-3.87l.19-3.69.1-1.29-.29-.4-.9-.79-.9-.89-.49-.41.79-.79.89-1,.8-.8.7-.89"/><path id="path4934" class="cls-1" d="M155.3,201.19l.6.89.79.8.9,1,.8.8-.4.4-1,.89c-.1.08-.36.35-.81.79l-.39.41.1,1.28.2,3.68c.29,5.38,3.38,11.8,6.26,13,.65.28.88.48.88.76s-.25.44-1.26.44a23.28,23.28,0,0,1-5-.69l-1.1,7.15h-1.3l-1-7.15a29.46,29.46,0,0,1-4.57.68h-.9c-.58,0-.83-.1-.83-.34s.25-.55.83-.85a9.76,9.76,0,0,0,3.08-3.17c1.75-2.94,2.59-4.86,2.59-6,0-2.14.27-3.88.59-3.88l.2-3.68.11-1.28-.31-.41-.89-.79-.9-.89-.5-.4.81-.8.89-1,.79-.8.7-.89"/><path id="path4938" class="cls-1" d="M137.4,19.72l.7.78c.37.44.64.74.8.9s.41.43.89.9l.79.79-.4.4-1,.89-.89.9c-.06.07-.17.16-.3.3l.1,1.39.2,3.58c.19,3.46,1.73,8.28,3.18,9.94l2,2.29a8.76,8.76,0,0,0,1.1.89l.84.65-.84.55-.9-.1-1.9-.2-1.68-.3-1-.2L138,50.93l-1.19.3-1-7.16-1,.2-1.69.3-1.9.2-1,.11c-.37,0-.65-.16-.65-.33a1,1,0,0,1,.41-.63l1.48-1.14c1.29-1,1.66-1.5,3.48-5.07a8.06,8.06,0,0,0,1.1-3.28c0-2.14.28-3.88.6-3.88l.2-3.58.1-1.39-.4-.3-.79-.9-1-.89-.4-.4.79-.79a15.19,15.19,0,0,0,2.29-2.58"/><path id="path4942" class="cls-1" d="M173.4,19.72a15.65,15.65,0,0,0,2.29,2.58l.79.79-.39.4-1,.89-.8.9-.4.3L174,27l.19,3.58c.3,5.26,3.28,11.52,6.27,13.12.52.29.85.53.85.65a.46.46,0,0,1-.41.5l-1.24,0-2-.2a14.07,14.07,0,0,1-1.7-.3l-.89-.2-1,7.16h-1.4l-1-7.16L170.62,44l-1.59.59-1.89.2-.9.1h-.14c-.37,0-.67-.14-.67-.32s.17-.4.47-.64l1.43-1.15c1.32-1,1.75-1.66,3.49-5.06a8.3,8.3,0,0,0,1.08-3.28c0-2.14.29-3.88.61-3.88L172.7,27l.1-1.39-.29-.3-.9-.9c-.44-.45-.75-.76-.9-.89a5.65,5.65,0,0,0-.49-.4c.35-.36.61-.61.79-.79.48-.47.78-.77.89-.9s.42-.46.8-.9c.16-.17.39-.44.7-.79"/><path id="path4946" class="cls-1" d="M155.1,50.83l.7.8.8.9c.48.54.77.87.89,1s.44.46.8.81l-.5.39-.9.9-.89.79-.29.41.09,1.28.1,3.39c.29,5.43,3.21,11.61,6.36,13.32.6.32.86.59.86.87l-.06.13-.8.2h-.9a17.88,17.88,0,0,1-4.57-.8l-1,7.15h-1.39l-1-7.15a16.21,16.21,0,0,1-5,.8c-1.09,0-1.32-.07-1.32-.39s.24-.52.9-.81a9.88,9.88,0,0,0,3.09-3.18c1.57-2.52,2.48-4.69,2.48-6,0-2.15.32-3.88.7-3.88l.19-3.68.11-1.28-.4-.41c-.43-.45-.71-.71-.79-.79l-1-.9-.39-.39.78-.81.9-1c.46-.52.73-.82.79-.9a9.56,9.56,0,0,0,.6-.8"/><path id="path4950" class="cls-1" d="M137.3,81.86l.7.79.7.9a8.69,8.69,0,0,0,.88.89l.9.8-.49.4-.9.89-.89.9-.3.3v.92c0,5.25,1.56,11.81,3.29,13.7l2.19,2.58,1.1.9.79.64-.79.55-.9-.1-1.89-.2-1.69-.3-1-.19-1,7.15h-1.4l-1-7.15-1,.19-1.69.3-1.89.2-.9.1H130c-.37,0-.67-.13-.67-.31a1,1,0,0,1,.45-.64l1.45-1.14c3.31-2.63,5.47-9.05,5.47-16.28v-.92l-.3-.3-.89-.9c-.45-.46-.74-.75-.9-.89l-.5-.4.9-.8a7.27,7.27,0,0,0,.89-.89l.69-.9.7-.79"/><path id="path4954" class="cls-1" d="M173.2,81.86c.31.35.54.62.7.79l.79.9.89.89.81.8a5.11,5.11,0,0,0-.5.4l-.9.89-.89.9-.3.3.1,1.39.2,3.68a17.28,17.28,0,0,0,6.26,13l.8.64-.8.55-.9-.1-1.88-.2-1.69-.3-1-.19-1,7.15h-1.39l-1.1-7.46c-1.81.41-1.87.74-2.49.8l-2,.2-.89.1h-.1c-.36,0-.6-.13-.6-.32a.9.9,0,0,1,.4-.63l1.5-1.14c1.28-1,1.66-1.53,3.48-5.07a8.2,8.2,0,0,0,1.09-3.29c0-2.08.27-3.77.59-3.77l.2-3.68.11-1.39-.4-.3-.8-.9-1-.89-.4-.4.8-.8a15.12,15.12,0,0,0,2.28-2.58"/><path id="path4958" class="cls-1" d="M98.72,65.85l.4,1.49c.36,1.35.62,2.41.79,3.18,1.26,5.68,2.31,7.18,5.08,7.18a3.28,3.28,0,0,0,3.27-2.2l.61-2a1,1,0,0,1,.95-.73c1.07,0,1.58,1.13,1.63,3.62a43.88,43.88,0,0,0,.7,4.87,25.69,25.69,0,0,1,.4,4.35,7.17,7.17,0,0,1-.6,3.11,42.2,42.2,0,0,1,.6,6.09,12.59,12.59,0,0,1-1.2,6,12.23,12.23,0,0,1,.51,3.73,19,19,0,0,1-.31,3.32,25.51,25.51,0,0,0-.53,3.44,4,4,0,0,0,.23,1.33,4.44,4.44,0,0,1,.3,1.2c0,.28-.13.5-.3.5l-2-.8-2.18-1.19a10.45,10.45,0,0,1-2.29-1.79c-1.93,1.74-2.51,2-7.56,3.38a7,7,0,0,0-2.19.9,3.31,3.31,0,0,1-1.32.69c-.85,0-1.27-1.38-1.27-4.21a23.11,23.11,0,0,1,.6-5.54,11.29,11.29,0,0,0-3.55-.89c-.15,0-.66.07-1.52.2l-.37,0c-.29,0-.54-.43-.54-1a8.07,8.07,0,0,1,.61-2.16l1-2.39a8.42,8.42,0,0,1,2.39-2.88,6.28,6.28,0,0,1,2.58-1.5l3.58-.69c2.13-.41,3.39-1.54,3.39-3s-1-2.4-3.09-3.15l-4.28-1.49a22.85,22.85,0,0,1-3.88-1.89C87,83.53,86.6,83.35,86,83.35c-.85,0-1.34.64-1.34,1.76a2.78,2.78,0,0,0,2.79,3,2.73,2.73,0,0,0,1-.19,3.69,3.69,0,0,1,1-.31c.45,0,.7.27.7.76l0,.43-.2,1.7c-.17,1.45-1.1,3.2-3.18,6l-.9,1.19a13.66,13.66,0,0,1-5.36,7.86,9.41,9.41,0,0,0-1.1.79,14.09,14.09,0,0,0-.8,1.39,17.16,17.16,0,0,1-2,2.39,19.67,19.67,0,0,1-2.49,2.29,9.06,9.06,0,0,0-2,1.79l-1,1.69a1,1,0,0,1-.8.5c-.88,0-1.69-.92-2.18-2.49-.37-1.16-.7-1.49-1.45-1.49a7.48,7.48,0,0,0-1.73.3l-1.39.2H60a16,16,0,0,0-5.47,1,2.81,2.81,0,0,1-1,.32c-.26,0-.4-.13-.67-.62a1.43,1.43,0,0,1-.22-.8c0-1.81,1.29-5.23,3-8a10.3,10.3,0,0,1,2.68-3.18,4.47,4.47,0,0,0-2.79-3.38l-1.68-.49a.54.54,0,0,1-.41-.5c0-.51.82-1.22,2.29-2a12.33,12.33,0,0,1,5.46-1.59,8.09,8.09,0,0,1,5.08,2.09c2.7,2.1,3.43,2.49,4.74,2.49a4.29,4.29,0,0,0,4.15-4c0-1.36-.73-2.82-2.62-5.27C69.79,85.44,69,83.57,69,80.94a10,10,0,0,1,1.12-4.64l1-1.5a1.8,1.8,0,0,0,.32-1c0-.66-.75-1.13-1.79-1.13-1.58,0-4.58,1.12-7,2.58-1.19.74-2,1.59-2,2.13a.91.91,0,0,0,.4.76l1.1.7a.51.51,0,0,1,.21.41,1.76,1.76,0,0,1-.41.78l-2,2.58A34.33,34.33,0,0,1,55.76,87a6.64,6.64,0,0,0-1,1L54,89.51A15.18,15.18,0,0,1,49.6,94a8.2,8.2,0,0,0-1.4,1.1,9.4,9.4,0,0,0-.79,1.39,21.52,21.52,0,0,1-1.29,2.09,23.74,23.74,0,0,1-2.38,3.08l-2.8,2.78c-.86.86-1.61,2.52-2.78,6.17-.71,2.19-1.33,3.48-1.7,3.48-.17,0-.45-.22-.79-.6-2-2.25-3.66-3.58-4.55-3.58a2.69,2.69,0,0,0-1.11.5,7.62,7.62,0,0,1-2.69,1l-3.67.69c-2.78.53-3.87,1.14-5.47,3-.38.45-.69.7-.86.7-.32,0-.54-.5-.54-1.16l.11-.93.49-2.69a22.52,22.52,0,0,1,2-6.46l1.68-3.08a3.51,3.51,0,0,0,.51-1.62c0-2.29-2.37-4.38-5.27-4.65-.73-.06-1-.24-1-.64s.82-1.51,1.91-2.34a12.21,12.21,0,0,1,6.27-2.59,13.42,13.42,0,0,1,4.47,1.2l2.19.89a5.83,5.83,0,0,0,2.21.51c2.32,0,4.56-2.11,7.34-6.87a10.49,10.49,0,0,0,1.79-5.1c0-2.52-1.2-4-3.17-4A6.35,6.35,0,0,0,34,78.08a4.51,4.51,0,0,0-1.53,3.08l0,1.11v.24c0,.93-.3,1.44-.86,1.44-.94,0-2.31-1.33-6.21-6.06-2.91-3.53-3.55-5-3.68-8.56-3.37-4.3-4.21-6.13-4.21-9.19l.14-2c-2.33-2.81-3-4.34-3-6.93a5.2,5.2,0,0,1,.71-2.62,10.26,10.26,0,0,1-1.89-3.88L13,42.58a10.53,10.53,0,0,0-1.59-3.68c-.9-1.29-1-1.46-1-1.89,0-1.17.79-1.62,4.27-2.48a18.36,18.36,0,0,1-.2-2.21A12,12,0,0,1,14.8,30l.69-3.68a19.74,19.74,0,0,0,.42-3.19,10.64,10.64,0,0,0-.71-3.17,10.78,10.78,0,0,0-.9-2.28,4.06,4.06,0,0,1-.6-1.36c0-.36.24-.56.68-.56,1,0,3.6,1.58,6.29,3.8,5.7,4.73,6.87,6.62,7.65,12.33.06.45.16,1.11.3,2,2.74,2,4.18,4.44,4.18,7a12.32,12.32,0,0,1-2,6.38l-2,3.08a6.16,6.16,0,0,0-.89,3.28,11.48,11.48,0,0,0,1.89,6c1.52,2.69,2.82,3.79,4.43,3.79,2.62,0,4.92-4.57,4.92-9.76V51.13a26.81,26.81,0,0,1,.2-3.28c.19-1.54.29-2.51.31-2.88l.1-2.39,0-1.57a2.91,2.91,0,0,0-1-1.9l-2.19-2.4c-3.16-3.44-4.9-6.69-4.9-9.12a5.07,5.07,0,0,1,5.08-5.28,7.51,7.51,0,0,1,2.11.38V22c0-4.38.9-7.63,2.1-7.63l.49.15,1.79,1.59,2.18,1.39.6.6c0-1.23.06-1.36,1.29-2.78.3-.35.76-1,1.39-1.89.52-.73.84-1.23,1-1.49s.32-.56.5-.9c.26-.51.53-.75.82-.75s.5.37.86,1.45c.24.68.4.86,2.09,2.39a6.67,6.67,0,0,1,1.2,1.29,12.7,12.7,0,0,1,.79,2c.07.17.16.43.3.79a6.07,6.07,0,0,1,2-1.79l1.5-.89a3.34,3.34,0,0,1,1.1-.52c.13,0,.31.24.49.61s.42.85.79,1.5c1.06,1.84,1.41,2.73,1.41,3.59l0,1v1.18c3.27,1,4.49,2.72,4.49,6.23,0,2.53-1.34,5.45-3.89,8.49-1.71,2-1.91,2.43-1.91,3.86,0,7.37,5.12,11.61,14.14,11.75l6.65.1a32.21,32.21,0,0,1,10.85,1.79C98.57,56.65,100,57,101.31,57a2.24,2.24,0,0,0,1.29-.4,1.18,1.18,0,0,0,.6-.89c0-1.39-2.44-2.5-10.45-4.77C76.36,46.29,69.39,39.69,69.39,28.82c0-8.39,7-14.89,16-14.89a34.63,34.63,0,0,1,9.94,1.7l4.07,1.5a6.36,6.36,0,0,0,2.14.41c1.39,0,2.1-1.15,2.14-3.5,0-1.26.32-1.69,1.13-1.69,1.15,0,2.93,1.44,4.54,3.69s2.69,4.81,2.69,6.53c0,2.25-1.06,3.83-3.49,5.19-2.22,3.4-5,5-8.67,5-2.87,0-7-1.63-13.7-5.47-2.35-1.34-3.55-1.79-4.79-1.79a2.6,2.6,0,0,0-2.91,2.59c0,1.42,1.12,2.36,4,3.37,4.3,1.51,5.36,2.09,7.06,3.88,5.06.88,7.28,1.76,10.45,4.19,8.72,2.76,14.13,8.71,14.13,15.54,0,6.64-4.48,11.4-10.73,11.4a19.28,19.28,0,0,1-4.7-.6"/><path id="path4962" class="cls-1" d="M284.27,65.85l.4,1.49c.36,1.35.62,2.41.8,3.18,1.25,5.68,2.31,7.18,5.07,7.18a3.29,3.29,0,0,0,3.28-2.2l.59-2a1,1,0,0,1,.95-.72c1.09,0,1.67,1.2,1.74,3.61a46,46,0,0,0,.6,4.87,30.47,30.47,0,0,1,.4,4.61,7,7,0,0,1-.6,2.85l.2,1.19a20.35,20.35,0,0,1,.41,3.64c0,4.28-.2,5.54-1.21,7.21a12.58,12.58,0,0,1,.52,3.55,27.24,27.24,0,0,1-.32,3.5l-.4,3,.1,1.78a5.75,5.75,0,0,1,.4,1.2.45.45,0,0,1-.4.5l-2-.8-2.18-1.19a10.22,10.22,0,0,1-2.29-1.79,8,8,0,0,1-4.48,2.48c-3.29.91-4.51,1.33-5.17,1.8a3.34,3.34,0,0,1-1.37.69c-.77,0-1.31-1.5-1.31-3.69,0-3.18.19-4.83.7-6.06a12.82,12.82,0,0,0-3.63-.89,8.15,8.15,0,0,0-1.44.2l-.45,0c-.29,0-.46-.36-.46-1a12,12,0,0,1,1.61-4.55c1.24-2.22,3.29-4.07,4.86-4.38l3.59-.69c2.12-.42,3.38-1.54,3.38-3s-.93-2.37-3.09-3.15l-4.17-1.49a21.08,21.08,0,0,1-4-1.89q-1.59-1-2.19-1.29a2.38,2.38,0,0,0-1.08-.3c-.89,0-1.42.64-1.42,1.7a3,3,0,0,0,2.88,3.08,2.5,2.5,0,0,0,1-.21,3.23,3.23,0,0,1,.92-.3c.45,0,.78.45.78,1.07a12.6,12.6,0,0,1-2.3,6.29l-1.19,1.5-.89,1.19c-.34,2.56-2.85,6.23-5.38,7.85a6.76,6.76,0,0,0-1.09.8c-.08.09-.34.57-.8,1.39a16.71,16.71,0,0,1-2,2.38,18.25,18.25,0,0,1-2.48,2.29,9.42,9.42,0,0,0-2,1.8l-1,1.69a.88.88,0,0,1-.78.52c-.89,0-1.7-.93-2.2-2.51-.37-1.16-.69-1.5-1.44-1.5a7.69,7.69,0,0,0-1.74.31l-1.4.2h-3.48a16,16,0,0,0-5.57,1,2.81,2.81,0,0,1-1,.32c-.51,0-.78-.52-.78-1.52,0-3.15,2.42-7.94,5.58-11-.47-1.82-1.42-3-2.68-3.37l-1.79-.5a.53.53,0,0,1-.3-.48c0-.63.71-1.26,2.29-2,2.82-1.34,3.65-1.59,5.22-1.59a8,8,0,0,1,5.21,2.09c2.7,2.1,3.45,2.49,4.74,2.49a4.3,4.3,0,0,0,4.15-4c0-1.38-.76-2.9-2.62-5.28-2.65-3.39-3.59-5.59-3.59-8.46,0-1.92.39-3,2.1-5.76a2.35,2.35,0,0,0,.42-1.06c0-.54-.91-1-1.91-1A10.71,10.71,0,0,0,251,73.9c-3,1.38-4.78,2.66-4.78,3.45a1.06,1.06,0,0,0,.51.83l1,.7a.49.49,0,0,1,.21.41,1.59,1.59,0,0,1-.41.78c-.2.23-.86,1.09-2,2.58A22.31,22.31,0,0,1,241.32,87a3.8,3.8,0,0,0-1,1l-.8,1.48A16.7,16.7,0,0,1,235.26,94a11.1,11.1,0,0,0-1.41,1.1,8.41,8.41,0,0,0-.88,1.39,29.82,29.82,0,0,1-3.69,5.16l-2.68,2.79c-.77.8-1.85,3.1-2.89,6.17-.81,2.41-1.33,3.48-1.7,3.48-.17,0-.45-.22-.78-.6-1.93-2.2-3.66-3.58-4.51-3.58a3,3,0,0,0-1.16.5,8.28,8.28,0,0,1-2.68,1l-3.58.69c-3,.59-4.19,1.23-5.57,3-.34.45-.64.7-.79.7-.36,0-.61-.51-.61-1.22l.1-.87c0-.09.2-1,.5-2.69a22,22,0,0,1,2-6.46l1.79-3.08a3.26,3.26,0,0,0,.5-1.61c0-2.29-2.14-4.15-5.38-4.66-.66-.1-1-.35-1-.73s.78-1.32,2-2.25a11.33,11.33,0,0,1,6.08-2.58,13.05,13.05,0,0,1,4.55,1.19l2.19.89a5.87,5.87,0,0,0,2.21.51c2.32,0,4.56-2.11,7.34-6.87A10.38,10.38,0,0,0,227,80.22c0-2.52-1.16-4-3.12-4a5.92,5.92,0,0,0-4.24,1.89A4.8,4.8,0,0,0,218,81.24l0,1,0,.52c0,.8-.26,1.16-.86,1.16-.76,0-1.63-.73-3.35-2.78l-2.78-3.29c-3-3.53-3.65-4.94-3.78-8.55-3.38-4.3-4.21-6.69-4.21-9.19l.13-2c-2.42-2.91-2.88-4-2.88-6.9a4.47,4.47,0,0,1,.59-2.65,10.26,10.26,0,0,1-1.89-3.88l-.49-2.09A10.62,10.62,0,0,0,197,38.9c-.89-1.28-1-1.47-1-1.84,0-1.05,1-1.71,3.48-2.33l.79-.2a17.91,17.91,0,0,1-.19-2.21,12.61,12.61,0,0,1,.3-2.37l.69-3.68a19.8,19.8,0,0,0,.42-3.26,10,10,0,0,0-.61-3.1,8.45,8.45,0,0,0-1-2.28,2.82,2.82,0,0,1-.6-1.32c0-.34.34-.6.79-.6a2.33,2.33,0,0,1,1,.33,38.68,38.68,0,0,1,9.65,7.64c2.25,2.51,3,4.59,3.48,10.16,3.05,2.27,4.19,4.32,4.19,7.54a10.55,10.55,0,0,1-2,5.87l-2,3.09a6.59,6.59,0,0,0-.9,3.37,11.46,11.46,0,0,0,1.9,5.87c1.48,2.64,2.82,3.79,4.4,3.79,2.6,0,5-4.51,5-9.47V50.24l.29-2.39.2-2.88.2-2.39.07-1.32c0-1-.2-1.27-3.25-4.55-3.38-3.61-5-6.67-5-9.49a5,5,0,0,1,5.06-4.91,7.46,7.46,0,0,1,2.1.38V21.51l.11-2.1.58-2.58c.49-2.06.7-2.44,1.41-2.44l.49.15,1.78,1.59,2.2,1.39.6.6a4,4,0,0,1,1.28-2.78c.52-.65,1-1.28,1.39-1.89l1-1.49.59-.9c.39-.6.57-.76.83-.76s.45.35.75,1.46a2.85,2.85,0,0,0,.9,1.29l1.3,1.1a7.11,7.11,0,0,1,2.18,4.07,5.9,5.9,0,0,1,2-1.79l1.59-.89a4.45,4.45,0,0,1,1.05-.5c.11,0,.29.22.45.59a11.91,11.91,0,0,0,.79,1.5c1.29,2.06,1.4,2.34,1.4,3.74v2c3.23.89,4.49,2.63,4.49,6.2,0,2.67-1.23,5.44-3.79,8.52-1.7,2-2,2.68-2,4.21,0,7,5.29,11.26,14.22,11.4l6.57.1a32.13,32.13,0,0,1,10.83,1.79C284,56.62,285.5,57,286.9,57c1,0,1.85-.56,1.85-1.24,0-1.44-2.4-2.55-10.44-4.82-16.38-4.63-23.37-11.26-23.37-22.11,0-8.41,7-14.89,16.09-14.89a34.73,34.73,0,0,1,9.87,1.69l4.07,1.5a6.31,6.31,0,0,0,2.13.41c1.41,0,1.94-.87,2.15-3.5.09-1.17.46-1.69,1.21-1.69,1,0,3.08,1.64,4.55,3.69a13.1,13.1,0,0,1,2.59,6.67c0,2.11-1.11,3.72-3.48,5.05-2.23,3.4-5,5-8.67,5-2.82,0-7.63-1.92-13.7-5.47-2.39-1.39-3.44-1.79-4.76-1.79-1.79,0-2.95,1-2.95,2.58s1.07,2.33,4,3.38c4.71,1.68,5.72,2.24,7.06,3.88,5.08.88,7.28,1.76,10.45,4.19,9.07,2.9,14.13,8.51,14.13,15.68,0,6.54-4.44,11.26-10.6,11.26a19.55,19.55,0,0,1-4.83-.6"/><path id="path4966" class="cls-1" d="M100.61,253.59a15,15,0,0,1,1.29,4.68l.2,4.17c.16,4.19,1.55,6.27,4.17,6.27a3.15,3.15,0,0,0,2.2-.7l1.09-1.09.44-.13c.69,0,1.07.45,1.07,1.29L111,269.7a21.53,21.53,0,0,0,.39,4.57,27.5,27.5,0,0,1,.31,4,10.66,10.66,0,0,1-.9,4.84,19,19,0,0,1,1.08,6,8,8,0,0,1-1.19,4.83,13.25,13.25,0,0,1,.5,3.38,23.76,23.76,0,0,1-.39,3.79,19.85,19.85,0,0,0-.4,4.77v.25c0,.63-.2.94-.58.94a1.8,1.8,0,0,1-1.23-.8c-.61-.77-1-1.06-1.46-1.06-.69,0-.9.36-1.92,3.35a13,13,0,0,1-2.38,3.68,8.68,8.68,0,0,0-1.79,2.88c-.32,1.2-.51,1.89-.6,2.09a.73.73,0,0,1-.59.49l-.14,0c-1.63,0-3.51-3.52-5.44-10.15-.54-1.87-1.23-2.71-2.24-2.71A2,2,0,0,0,90.27,306l-.6,1.39a.6.6,0,0,1-.52.4c-.79,0-2-1.45-2.76-3.28a12.6,12.6,0,0,1-1-4.57c0-3.12,2.29-5.45,9.22-9.35,3-1.71,4.18-3.85,4.18-7.76,0-3.09-.92-4.85-3.58-6.87-2.09-1.58-3.31-2.19-4.43-2.19a1.55,1.55,0,0,0-1.68,1.43c0,.93.53,1.51,1.83,1.95,1.54.55,2.2,1.09,2.2,1.78a9.26,9.26,0,0,1-1.7,3.59,9.06,9.06,0,0,1-3.18,3.29c-.46,2.74-1.76,4.49-4.78,6.46a10.22,10.22,0,0,1-2,3.68l-2.09,2.69a8.59,8.59,0,0,0-1.49,3.08c-.22,1.52-.36,1.79-1,1.79-.78,0-2.4-1.4-4-3.48a4.88,4.88,0,0,1-1.28-3.28c-1.05.81-1.37.92-3.38,1.19a8.81,8.81,0,0,0-2.69.7,7.54,7.54,0,0,1-2.31,1c-.41,0-.55-.22-.58-.93l-.1-2.18a15.51,15.51,0,0,1,3-8.85,9.91,9.91,0,0,0-4.87-2.59c-.59-.06-.74-.13-.74-.35a4,4,0,0,1,.94-1.84,14.65,14.65,0,0,1,1.78-2,9.94,9.94,0,0,1,5.77-2.09,18.28,18.28,0,0,1,5.66,1.39,6.63,6.63,0,0,0,2.38.51c1.1,0,1.71-.7,1.71-2,0-1.8-.89-4.64-2.88-9.18-1.37-3.08-2-5.14-2-6.57,0-3.44,1.63-7,3.66-8a4,4,0,0,0-2.21-.61,5.65,5.65,0,0,0-3.06,1c-1.48.87-2.29,1.61-2.29,2.13,0,.18.29.5.8.86.78.54.91.73.91,1.46,0,2.45-2,5.75-4.89,7.89a8.69,8.69,0,0,1-5.36,7,9.7,9.7,0,0,1-2.19,4.58c-2.6,3.66-3.22,4.81-3.68,6.86-.25,1.07-.49,1.52-.82,1.52S53,287.06,52,286a18,18,0,0,1-1.59-1.9,9.46,9.46,0,0,1-1.09-3.18,4,4,0,0,1-1.41.25l-1.47-.05-1,0a12.37,12.37,0,0,0-5.67,1.22,2.4,2.4,0,0,1-.86.4c-.66,0-1.18-1.34-1.18-3a15.94,15.94,0,0,1,3.33-9.8,16,16,0,0,1-1.89-1.79,3.57,3.57,0,0,0-.8-.7l-1.09-.59c-.37-.2-.6-.46-.6-.66,0-.53,1.45-1.91,3.18-3a9.07,9.07,0,0,1,4.82-1.78c1.63,0,2.5.41,4.53,2.18,1.41,1.23,2.38,1.8,3.06,1.8a1.94,1.94,0,0,0,1.42-.9,2.61,2.61,0,0,0,.5-1.48c0-1.91-2.26-5.11-4.78-6.78a10.86,10.86,0,0,0-5.92-1.88,6.69,6.69,0,0,0-6.21,3.57l-1.1,2.29c-.25.54-.57.81-.94.81-.65,0-1-.29-3.23-2.9l-2.58-3a8,8,0,0,1-1.6-2.58,7.13,7.13,0,0,0-.49-1.3,6.8,6.8,0,0,0-1-.79c-2-1.42-3.44-4.21-4.28-8.25-.05-.29-.16-.72-.3-1.3A16.45,16.45,0,0,1,17.86,231a4.45,4.45,0,0,1,.22-1.35c-1.41-1.44-1.58-1.77-2.69-5.58a13.7,13.7,0,0,0-2.29-5.16,1.75,1.75,0,0,1-.39-.78c0-.53.83-1,2.29-1.21a9.24,9.24,0,0,1,2-.24l2,.14-.12-2.72a19.11,19.11,0,0,1,.52-4.54,11.36,11.36,0,0,0,.3-2.08c0-.17-.07-.74-.2-1.7a8.17,8.17,0,0,0-.3-1.49,2.79,2.79,0,0,1-.22-.84c0-.32.22-.5.61-.5a3.63,3.63,0,0,1,1.3.44A25.24,25.24,0,0,1,25.14,206c3.42,2.69,6.12,6.82,6.12,9.38l-.06.78c-.13.89-.19,1.38-.19,1.46a3,3,0,0,0,.69,1.61l1.09,1.5a7.46,7.46,0,0,1,1.6,3.9c0,.92-.2,1.33-1.79,3.66a7.52,7.52,0,0,0-1.7,4.44,13.38,13.38,0,0,0,2,6.29c1.17,2.07,2.52,3.2,3.82,3.2,2.22,0,3.18-2,3.53-7.27.19-2.76.45-5.25.8-7.56l.1-1.36c0-.62-.19-1-1-1.92l-3-3.49c-2.86-3.31-3.71-5-3.71-7.41a4.31,4.31,0,0,1,4.4-4.63l1.19.11v-.77a10.79,10.79,0,0,1,.5-2.7c.63-2.14,1.42-3.79,1.83-3.79a2.88,2.88,0,0,1,1,.5,11.13,11.13,0,0,0,1.79.7,10,10,0,0,1,2,1,8.61,8.61,0,0,1,1.59-3.48c1.28-1.65,2.74-3,3.25-3,.32,0,.9.43,1.62,1.19l1.89,2a7.42,7.42,0,0,1,1.1,1.88l.4.9c.52-.32.92-.54,1.19-.7.78-.47,1.31-.76,1.59-.89,1.21-.57,1.85-.87,1.88-.9a3,3,0,0,1,1-.51c.33,0,.53.59,1.26,3.89a22.47,22.47,0,0,1,.7,4.38c3.17.44,4.68,2.26,4.68,5.68,0,3.2-1.58,6.38-5,10a3,3,0,0,0-1.14,2.38c0,8.8,3.05,11.57,14.07,12.73,6.77.72,8.78,1.14,16.91,3.58,4.27,1.28,6.72,1.82,8.3,1.82,1.88,0,2.94-.68,2.94-1.9,0-1.84-1.34-2.42-9.26-4.1-18.42-3.88-25.66-10.17-25.66-22.31a14.81,14.81,0,0,1,15.14-15.18c3.8,0,7.22,1.16,12.61,4.28,5,2.9,6,3.39,7.19,3.39,1.33,0,1.86-.86,1.86-3,0-1.4.43-2.08,1.3-2.08s2,.83,3.07,2.1c1.66,1.94,2.29,3,2.29,5.64,0,3.6-1.91,6-5.67,7l-.89,1c-2,2.31-3.84,3.09-7.1,3.09a16.62,16.62,0,0,1-8.81-2.89L85.7,216.2c-2.06-1.46-3.57-2.08-5-2.08a3,3,0,0,0-3.25,3.25,4.51,4.51,0,0,0,3.48,4.3l4.48,1.39a23.57,23.57,0,0,1,4.27,1.79,14.46,14.46,0,0,1,2.23-.21,18.93,18.93,0,0,1,8.42,2.1,11.61,11.61,0,0,0,1.78.8l2.49.7c5.65,1.58,10.25,7.89,10.25,14.06,0,7-4.56,11.39-11.93,11.39l-2.3-.1"/><path id="path4970" class="cls-1" d="M273.63,252.1c1.73,2.29,4.17,3.78,6.17,3.78a13.36,13.36,0,0,0,2.68-.4,5.42,5.42,0,0,1,1.32-.2c.49,0,.68.19.68.63a6.66,6.66,0,0,1-.51,1.86,9.76,9.76,0,0,0-.59,1.78l-.4,2.1-1,1.78-1.4,1.3-.39.4v1.34a5.37,5.37,0,0,1-2.69,5.12c-.16.1-.4.27-.69.49l-.21.81a23,23,0,0,1-1,3.47,19.28,19.28,0,0,1-1.89,2.78,18.17,18.17,0,0,0-2.48,4.09c-.41,1-.72,1.27-1.38,1.27-1,0-1.94-1.21-2.11-2.67a3.76,3.76,0,0,1-.49.59l-1.19.81-1.89,1.29a10.25,10.25,0,0,0-1.59,1.19l-1.1,1.1a.87.87,0,0,1-.57.29c-.5,0-1-.85-1.51-2.49l-1-3.27a11.5,11.5,0,0,1-.39-3.21,6.94,6.94,0,0,1,.7-3.56,12.53,12.53,0,0,0-3.58.7,3.36,3.36,0,0,1-.87.2c-.33,0-.53-.23-.53-.62a6.33,6.33,0,0,1,.4-1.47l1.29-3.38c1-2.62,4.24-5,6.82-5a8.88,8.88,0,0,1,2.53.53,5.75,5.75,0,0,0,1.51.33,2,2,0,0,0,2.07-1.92,1.51,1.51,0,0,0-.79-1.29c-.17-.08-1.37-.45-3.58-1.1-1.68-.49-2.5-1.11-4.38-3.27-1.37-1.58-1.9-2-2.4-2s-.58.26-.58.7l.09,1.33,0,.6c0,2.77-.82,5.41-2.81,9L251.16,273a12.41,12.41,0,0,0-1.9,6.07c0,2,.88,3.77,2,4.07l1.5.4a1,1,0,0,1,.49.31.89.89,0,0,1,.3.56,1.71,1.71,0,0,1-.5.92c-.17.2-.77,1-1.79,2.29-1.72,2.23-2.79,3-4.87,3.67-1.2,2.93-3.16,4.62-6.66,5.77l-.4.7c-1.19,2.09-3.81,4-5.49,4h-.38a7.73,7.73,0,0,1-3.48,5.07c-1.35.95-2.12,1.51-2.29,1.69a4.31,4.31,0,0,0-.49.89c-.45,1-.86,1.4-1.42,1.4-1.06,0-1.94-1-2.56-2.89-.4.26-.71.46-.89.6-1.13.8-1.77,1.23-1.9,1.29a22.48,22.48,0,0,1-3.48,1c-2.43.57-4.54,1.6-5.07,2.48l-.89,1.49-.41.18c-.49,0-1.05-.68-1.28-1.57a24.33,24.33,0,0,1-.9-5.58c0-3.53,1.16-5.83,4.77-9.44v-.85c0-5.49,4.19-9.22,10.35-9.22l1,0,3.38.21h.32a8.24,8.24,0,0,0,5.35-2.21c2.43-2,3.13-3.21,3.13-5.44a15.26,15.26,0,0,0-.95-4,16.27,16.27,0,0,1-.73-4.67c0-4.11,3-9.21,7.1-12,1-.73,1.84-1.68,1.84-2.25,0-.23-.12-.42-.27-.42a2.55,2.55,0,0,0-1.27.79,11.22,11.22,0,0,1-2.39,1.48l-1.59.8-1.79.7c-.55.21-.82.51-.82.89a2.41,2.41,0,0,0,.23.9,2.34,2.34,0,0,1,.19.73,2.86,2.86,0,0,1-.5,1.16l-1.38,2.29c-1.37,2.24-2.34,3.19-4.09,4-1.11,3.27-2.71,4.93-5.06,5.27-1.88,3.79-3.53,5.1-6.87,5.47a12,12,0,0,1-3,4.57,12.3,12.3,0,0,0-1.29,1.6c-.77,1.4-.84,1.49-1.2,1.49a4.83,4.83,0,0,1-2.28-1.49,6,6,0,0,1-.9-1.2l-.9-1.59c-.28-.51-.57-.74-.95-.74l-.64,0-2.18.3a7,7,0,0,0-4,2.29L199.85,289a.61.61,0,0,1-.48.3c-.89,0-1.44-2-1.44-5.22,0-2.85.45-4.75,1.42-6.12l2.79-3.87a2.87,2.87,0,0,0,.6-1.51,2,2,0,0,0-.5-1.28,3.12,3.12,0,0,0-1.59-1.19l-2.09-.3c-.38-.05-.52-.14-.52-.31a1.26,1.26,0,0,1,.32-.69,9.69,9.69,0,0,1,2.49-2.19c2.46-1.5,4.07-2.09,5.73-2.09a9.72,9.72,0,0,1,5.2,1.7l2.89,1.89a2.56,2.56,0,0,0,1.38.4c1.34,0,2.34-.79,3.29-2.59a9.58,9.58,0,0,0,1.31-4.61,6.19,6.19,0,0,0-6.38-6.43,8.48,8.48,0,0,0-5.17,2,3.31,3.31,0,0,0-1,1.09l-.79,1.79c-.19.44-.47.7-.71.7-.5,0-1.63-1.44-2.57-3.28a22.47,22.47,0,0,1-1.4-3.59,16.29,16.29,0,0,1-.84-5l.15-2.68a10.05,10.05,0,0,1-1.8-6.16,11.17,11.17,0,0,1,.71-3.49,7.28,7.28,0,0,1-1.1-4.43l.1-1.24.3-1.39.19-1.2c-1-1.25-1.24-2.09-2.18-6.46a13.41,13.41,0,0,0-1.29-4.18,1.41,1.41,0,0,1-.3-.59c0-.58,1.39-1.1,3-1.1l1.4.1a4.77,4.77,0,0,1-.42-2,12.35,12.35,0,0,1,.72-3.95,7.81,7.81,0,0,0,.64-2.43,9.32,9.32,0,0,0-.44-3l-.79-2a2.84,2.84,0,0,1-.26-1c0-.2.13-.26.49-.26,2,0,5.68,2.11,8.61,4.87s3.86,5,3.86,9l-.17,2.19c2.7,2.37,3.88,4.33,3.88,6.46,0,1.55-.51,2.6-2,4.07-2.69,2.67-3.3,4.05-3.3,7.49,0,5.28,1.58,8.13,4.49,8.13,2.57,0,4.54-2.78,4.87-6.87l.3-3.77a33.71,33.71,0,0,1,.5-3.59,19.62,19.62,0,0,0,.3-2.59c0-1.34-.88-3-3.49-6.07-2.79-3.26-3.73-5-3.73-7.57a5,5,0,0,1,5-5.28,3.56,3.56,0,0,1,1.94.54c0-1.74.11-2.05,1.09-4.48.77-1.92,1.6-3.28,2-3.28.14,0,.35.15.6.4a8.45,8.45,0,0,0,1.3,1.09c.61.43.94.65,1,.7a7.42,7.42,0,0,1,.9.9,9.52,9.52,0,0,1,3.08-5.08c1.38-1.36,1.91-1.79,2.18-1.79a1,1,0,0,1,.7.5l1.2,1.59,1.69,1.89c.64.71.88,1.34,1.19,3.08l1-.6,1.59-.89c.29-.17.7-.43,1.2-.79a1.35,1.35,0,0,1,.63-.31c.17,0,.35.28.46.71l.6,2.29,1.29,2.57a5,5,0,0,1,.51,2.56v.63l.67,0c2,0,3.64,2.32,3.64,5,0,3.53-2.82,8.11-6.5,10.54a8,8,0,0,0-.42,2.64c0,7.91,2.09,9.57,14.25,11.38a64.36,64.36,0,0,1,8.14,1.69q.6.16,7.87,2.59a19.51,19.51,0,0,0,5.88,1.29c1.49,0,2.3-.43,2.3-1.2,0-1.36-2-2.58-8.09-5l-8.65-3.37c-8.79-3.45-13-8.81-13-16.72a15.74,15.74,0,0,1,16.13-16.11c3.47,0,6.86.72,11.73,2.5,6.3,2.28,6.61,2.38,7.29,2.38,1.21,0,1.87-.83,2.06-2.58.16-1.49.56-2.09,1.39-2.09,1.23,0,2.54,1.13,3.49,3a11.86,11.86,0,0,1,1.29,5.16,5.68,5.68,0,0,1-4.87,6.07,9.63,9.63,0,0,1-8,4.12c-4,0-5.92-.78-12.68-5-2.42-1.51-3.45-1.89-5.23-1.89-2.36,0-4.11,1.48-4.11,3.47,0,1.82,1.46,3,4.77,3.89,2,.52,2.26.66,3.28,1.7a6.39,6.39,0,0,1,1.65-.25c3.23,0,7.21,1.74,10.58,4.62,6.14,1.9,11.58,8.49,11.58,14.05,0,6.14-5.31,11.63-11.25,11.63a39.09,39.09,0,0,1-7.69-1.22"/><path id="path4974" class="cls-4" d="M108.57,109.4a10.17,10.17,0,0,1-.37-2.4l.06-.78.31-1.59.1-1.28a5,5,0,0,0-.7-3l-1.19-1.59a7.27,7.27,0,0,1-1-1.9,2.71,2.71,0,0,1-.19-.84.66.66,0,0,1,.7-.73c.28,0,.38,0,1.28.58a2,2,0,0,0,1,.34c.58,0,.91-1,.91-2.65,0-1.92-.17-3-.59-3.45l-1.5-1.69-1.29-1.1a1.3,1.3,0,0,1-.52-.87.73.73,0,0,1,.8-.72,8.62,8.62,0,0,1,2.21.5l.45.1c.41,0,.57-.24.57-.83l0-.37-.29-2.09-.6-2.19c-.2-.7-.3-.82-.75-.82l-.25,0-2.48.5-.4,0c-3.26,0-6.7-2.75-7.76-6.21l-2-6.46c-.61-2-2.1-3.89-4.77-6.07a4.3,4.3,0,0,0-2-1.08l-1.8-.21a.52.52,0,0,1-.54-.49c0-.41.38-.6,1.24-.6l3.27.29a26.31,26.31,0,0,1,5.38,1.4,21.09,21.09,0,0,0,6.67,1.46c5,0,7.95-2.7,7.95-7.19a12.53,12.53,0,0,0-4.08-8.79c-1.39-1.26-2.79-2.2-3.28-2.2a.51.51,0,0,0-.51.52l.11,1.28v.11c0,.51-.3.88-.68.88s-1.07-.65-1.72-2c-1.89-3.91-4.86-6.25-8-6.25-.52,0-.89.23-.89.54A5.23,5.23,0,0,0,92,41l.79,1.79a3.23,3.23,0,0,1,.32.92c0,.11-.19.21-.42.21A2.9,2.9,0,0,1,91,43l-1.49-1.6-1.29-2a9,9,0,0,0-4.08-3.48c-1.23-.65-2-1.09-2.38-1.29a2.62,2.62,0,0,0-1.24-.41.47.47,0,0,0-.53.52,2,2,0,0,0,.38,1.08,5.66,5.66,0,0,1,1,2,.58.58,0,0,1-.51.6c-.78,0-2.39-1.56-3.8-3.68a10.22,10.22,0,0,1-1.79-5.59,7.19,7.19,0,0,1,7.34-7.44,15.2,15.2,0,0,1,7.48,2.48l4.67,2.89a12.48,12.48,0,0,0,5.44,1.79,13.22,13.22,0,0,0,2.91-.5,5.39,5.39,0,0,0,1.2-.49c.28-.17.47-.39.47-.56a.45.45,0,0,0-.27-.44l-.6-.2-2.19-.4a12.32,12.32,0,0,1-2.68-1,46.52,46.52,0,0,1-5-2.48,19.58,19.58,0,0,0-3.28-1.88c-.81-.27-1.32-.64-1.32-.95a.4.4,0,0,1,.44-.44,2.16,2.16,0,0,1,1.07.39,7.57,7.57,0,0,0,3.68,1.39l4.28,1.49a26.36,26.36,0,0,0,6.61,1.39,3.28,3.28,0,0,0,3.27-3.28,8.6,8.6,0,0,0-1.73-4.37c-.23-.32-.47-.5-.67-.5-.4,0-.62.27-.62.79l.1.81.16,1.18a2.13,2.13,0,0,1-2,2.3,5.44,5.44,0,0,1-1.56-.3L96,18.72C90.61,17,88.12,16.43,85.4,16.43c-7.74,0-13.63,5.31-13.63,12.3,0,7.92,5.56,13,19.29,17.73,13.52,4.64,15.41,5.77,15.41,9.24a4.18,4.18,0,0,1-4.27,3.79,13.6,13.6,0,0,1-2.39-.2c-.45-.09-2.71-.62-6.75-1.59a50.46,50.46,0,0,0-12.38-1.4c-9.76,0-15.17,1.71-19.84,6.27-1.18,1.14-1.57,1.32-2.92,1.32l-.66,0-1.39-.09h-.19a3.14,3.14,0,0,0-2.8,1.79c-1.05,1.69-1.62,2.58-1.7,2.68a1.41,1.41,0,0,1-1.13.6c-.89,0-1.43-.67-2.44-3.08a8.51,8.51,0,0,0-2.08-3l-2-1.8a1.28,1.28,0,0,1-.5-.76,1.93,1.93,0,0,1,.4-.92,7.5,7.5,0,0,0,1.39-2.59c.27-1.33.31-1.39.86-1.39s.78.61.84,2.88a7.32,7.32,0,0,0,.79,2.69l1.1,2.38a.92.92,0,0,0,.89.51c1,0,2.34-2.42,2.69-5,.28-2.14.51-2.78.95-2.78a.54.54,0,0,1,.44.2c.09.14.4.74.89,1.78a5.09,5.09,0,0,0,2.49,2.2h.12c.8,0,1.08-.53,1.27-2.41l.1-1L58,55.41l-.14-1c0-.63.23-1,.6-1a1.23,1.23,0,0,1,.75.41l1,1a2.87,2.87,0,0,0,2,1c.82,0,1.33-.34,1.33-.88a5.25,5.25,0,0,0-.92-2.31l-.69-1.29c-.8-1.49-1.44-2.09-2.18-2.09l-1,.1-1.19.5a2.36,2.36,0,0,1-.77.22.36.36,0,0,1-.33-.39,9.09,9.09,0,0,1,1.7-4.05c.79-1.26,1.33-3.95,1.59-7.81.34-5.19,1-8.55,1.77-8.55.49,0,.67.41.67,1.52l0,1.36,0,1c0,.92.2,1.67.45,1.67.85,0,1.86-1.26,2.67-3.33a6,6,0,0,0,.51-2L65.61,29l-2-3.68-2-.59a1.17,1.17,0,0,1-.7-.44V21.8l-.2-1.19-.4-1-.49-1.09c-2.17,1.19-3.21,1.95-4,3s-1.23,1.42-1.62,1.42a.49.49,0,0,1-.47-.52,8.72,8.72,0,0,1,.29-1.6l.07-.57a6.86,6.86,0,0,0-3.45-5.6l-.59.8-.7,1-1.2,1.4a5.84,5.84,0,0,0-1,2A4,4,0,0,0,47,20.94v.53c0,.82-.09,1-.46,1l-.24-.1-.7-1-1.1-1.19-1.68-1.1-.9-.69c-.17.4-.31.69-.4.89a5.24,5.24,0,0,0-.49,1.6l-.11,1.59-.1,1.68v.29c0,.88-.2,1.22-.73,1.22a3.67,3.67,0,0,1-1.16-.5,2.79,2.79,0,0,0-1.45-.41A2.47,2.47,0,0,0,35,27.52a8.77,8.77,0,0,0,1.59,5.22l1.29,1.69c.36.46,1,.83,1,.6l.25-2.09-.31-1.7-.05-.75c0-.65.21-1,.58-1,.57,0,.9.62,1.27,2.29l.79,3.69.8,4.67a17.7,17.7,0,0,0,1.19,4,21.37,21.37,0,0,0,1.69,3.5c1.09,1.41,1.23,1.6,1.23,1.92a.46.46,0,0,1-.43.46,2.12,2.12,0,0,1-.9-.3,4.5,4.5,0,0,0-1.19-.39L43,49.14c-1.59,0-1.92,1.37-1.92,8A40.43,40.43,0,0,0,43,69.33l2.09,5.27a6.72,6.72,0,0,1,.5,2.47c0,7.26-9.63,18.64-20.19,23.88-3.92,2-5.18,3.82-5.46,8.15l-.11,1.3A13.75,13.75,0,0,1,23.25,109c3-.77,3.53-1.15,4-2.59l.4-1.29c.15-.49.4-.67,2.69-1.89A4.32,4.32,0,0,0,31.9,102c.5-.84.92-1.28,1.18-1.28s.38.11.38.32l-.08.36-1,2.84-.11.69a5.43,5.43,0,0,0,3.29,4.92c.36-2.31.6-3.09,1.3-4.17l1.78-2.78a7.43,7.43,0,0,0,1-4.27,17.85,17.85,0,0,0-.25-3.1l-.07-.79c0-.5.26-.8.71-.8s.61.13.66.3l.4,1.89a.94.94,0,0,0,1,.7c1,0,2.21-1.24,3.51-3.48a5.19,5.19,0,0,0,.74-2.63l-.14-1.35-.3-1.49,0-.29c0-.65.37-1.11.89-1.11.21,0,.39.08.43.2l.6,2.29A1.53,1.53,0,0,0,49,90.21c.66,0,1.81-1.14,2.48-2.48a8.87,8.87,0,0,0,.9-4.07c0-2.12.22-2.73,1-2.73.24,0,.45.1.49.24l.4,1.28c.15.48.43.8.71.8s1.53-1.21,2.28-2.48a2,2,0,0,0,.29-.93c0-.42-.27-.85-.9-1.36-1-.86-1.1-1-1.1-2.3a6,6,0,0,1,1.1-3.47c.48-.84.92-1.64,1.3-2.39,1.26-2.46,1.7-3.08,2.16-3.08a.84.84,0,0,1,.73.87,1.75,1.75,0,0,1-.21.82,3.58,3.58,0,0,0-.4,1.18.73.73,0,0,0,.74.71,3.89,3.89,0,0,0,1.76-.59,26.51,26.51,0,0,1,2.78-1.1l3.28-1.19a5.81,5.81,0,0,1,2-.29,8.3,8.3,0,0,1,1.79.18,12.6,12.6,0,0,0,2.29.41,1.71,1.71,0,0,0,1.69-1.65,6.08,6.08,0,0,0-1.6-3,1.72,1.72,0,0,1-.51-.91l.11-.39a.67.67,0,0,1,.53-.4c.68,0,2.25,1.67,3.65,3.88,8.56,13.49,11.64,16.75,17.4,18.49s7.38,3.15,7.38,6.64c0,1.89-1,4.1-3.1,7.08C96.09,104,95,106.47,95,110.46v.73c.49-.21.85-.37,1.09-.49a8.46,8.46,0,0,1,1.6-.7l2.48-.5a2.11,2.11,0,0,0,1.41-2l0-.25-.3-2.19,0-.29a2.9,2.9,0,0,1,.91-2.09.81.81,0,0,1,.52-.21,1,1,0,0,1,.78.6l1.59,3.38c.65,1.38,1.42,2,3.48,3"/><path id="path4978" class="cls-4" d="M28.4,37.31c-.73,0-1.1.63-1.18,2L27,41.19a17.34,17.34,0,0,0-.25,2.4c0,1.42.42,2.47,1,2.47s1.63-1.2,2.13-2.59a6.71,6.71,0,0,0,.45-2.32,6.85,6.85,0,0,0-.45-2.25c-.36-1-.92-1.59-1.51-1.59"/><path id="path4982" class="cls-4" d="M19.27,21.8v.86c0,1.23-.29,2.71-1.31,6.5A7.64,7.64,0,0,0,17.68,31a4.36,4.36,0,0,0,.79,2.26,2.69,2.69,0,0,0,.9,1l1.2.6.19,1.4a6.49,6.49,0,0,0,.3,2.19,11.18,11.18,0,0,1,.4,3c0,.83-.06,1.16-.25,1.16-.37,0-1-1-1.65-2.54-.95-2.41-1.8-3.3-3.17-3.3a6.18,6.18,0,0,0-3.09.81c.31.39.51.65.6.79s.37.69.89,1.7l1.4,2.68c1,1.86,1.53,2.92,1.69,3.18a4.2,4.2,0,0,0,1.39,1.39c.17.11.71.4,1.59.9.48.27.81.65.81.92a.79.79,0,0,1-.85.77h-.06l-1.29-.2-.73-.08c-.39,0-.57.36-.57,1.11,0,2.7,2.14,5.8,5.87,8.52a1.81,1.81,0,0,1,.8,1.07.7.7,0,0,1-.73.62,3.92,3.92,0,0,1-1.26-.4,1.68,1.68,0,0,0-.69-.21c-.5,0-.82.4-.82,1s.58,2.11,1.81,4.46A7,7,0,0,0,26.53,69L31,70.92a.64.64,0,0,1,.4.6.69.69,0,0,1-.6.7l-.89.09-.8.11-1.29-.11h-.2c-.61,0-.87.12-.87.44A9.58,9.58,0,0,0,28.22,76c1.06,1.78,2,2.79,2.57,2.79a.76.76,0,0,0,.61-.5L32.5,76a7.77,7.77,0,0,1,2.58-2,8,8,0,0,1,2.78-1.1l1.79-.3a.84.84,0,0,0,.72-.94l0-.25-.29-1.89-.2-2.09-.21-1.88-.2-2.19c0-.57-.18-.82-.49-.82s-.64.33-.9.72c-1.56,2.38-2.65,3.17-4.31,3.17-5.3,0-9.32-9.33-9.32-21.65,0-1.07.07-2.45.21-4.09.26-3.16.3-4,.3-5.13,0-5.36-1.12-9.11-3.38-11.38l-1.4-1.4-.89-1"/><path id="path4986" class="cls-4" d="M32.1,94.49a11.89,11.89,0,0,1-2.89-.69L27.32,93a9.85,9.85,0,0,0-3.8-1,6.1,6.1,0,0,0-4.15,1.69l.9.7,2,1.4,1.88,1.48a2.66,2.66,0,0,0,1.65.6c1.94,0,3.63-.91,6.31-3.38"/><path id="path4990" class="cls-4" d="M70.38,112.59a5.77,5.77,0,0,1,2-2.59c2.78-2.38,4.08-4.15,4.08-5.57v-2.19c0-1.27.22-1.69.88-1.69a.63.63,0,0,1,.61.3l.49,1.2a.89.89,0,0,0,.84.45c.39,0,1-.45,1.45-1.15l1-1.4A3.18,3.18,0,0,0,82.44,98a3.25,3.25,0,0,0-.22-1.14c-.09-.19-.31-.72-.7-1.59a4.65,4.65,0,0,1-.41-1.55c0-.66.33-1,.89-1a.89.89,0,0,1,.71.3l.8,1a1,1,0,0,0,.75.34,1.34,1.34,0,0,0,1-.84l.8-1.59A2.31,2.31,0,0,0,86.4,91c0-.31-.32-.62-.91-.9l-1.29-.59c-1.7-.79-3-3.52-3-6.38a2.77,2.77,0,0,1,.2-1.08l.7-1.69a4.37,4.37,0,0,0,.3-1.59,5.65,5.65,0,0,0-1-3.09,24,24,0,0,1-1.29-2.08c-.6-1.58-.89-2-1.38-2l-.51.12-.69.4-1.1.59L75.16,74.3l-1.4.69c-.83.43-1.62,2.2-1.62,3.66,0,2.58.3,3.3,3.71,9.18a12.25,12.25,0,0,1,2,5.68c0,4.09-3.65,7-11,8.73l-4.57,1.1c-3.37.81-5.36,3.12-6.07,7.06,1.39-.72,1.94-.82,4.4-.82l1.47,0h.23c1.32,0,1.5-.1,2.35-1.3A7.54,7.54,0,0,1,68,105.53l1.59-.7,1.28-.69.4-.11c.36,0,.55.15.55.41a3.13,3.13,0,0,1-.95,1.68A5.29,5.29,0,0,0,69.28,110a3.71,3.71,0,0,0,1.1,2.61"/><path id="path4994" class="cls-4" d="M57.85,97.17a11.7,11.7,0,0,1,3,2.69c.95,1.29,1.08,1.4,2,1.4a6.9,6.9,0,0,0,1.46-.21l.89-.2c1.63-.31,2.19-.56,2.19-1a1.28,1.28,0,0,0-.5-.83l-1.1-1-1.08-1A5.35,5.35,0,0,0,61.44,96a6.3,6.3,0,0,0-3.59,1.21"/><path id="path4998" class="cls-4" d="M90.07,102.54l.6-.09.9-.11.89.11.44,0c2.21,0,4.33-1.88,4.33-3.84,0-.69-.63-1.06-1.76-1.06-2.67,0-4.36,1.54-5.4,5"/><path id="path5002" class="cls-4" d="M294.12,109.4a6.7,6.7,0,0,1-.31-1.82l.11-1.36a27.64,27.64,0,0,0,.32-3.87,3.13,3.13,0,0,0-.72-2l-1.19-1.59a4.38,4.38,0,0,1-1.1-2.72c0-.57.14-.76.54-.76l.46.09.89.5a2.14,2.14,0,0,0,1,.34c.6,0,.9-.93.9-2.8,0-2.58-.49-3.82-2-5l-1.39-1.09a1.06,1.06,0,0,1-.41-.82.72.72,0,0,1,.74-.78,4.68,4.68,0,0,1,1.16.21l1.09.3.43.09c.34,0,.49-.26.49-.84l0-.35-.29-2.09c-.32-2.18-.68-3-1.32-3l-.18,0-2.58.5-.44,0c-3.11,0-6.76-3-7.72-6.21l-1.89-6.46c-.56-1.93-2.24-4.06-4.77-6.07a4.7,4.7,0,0,0-2.09-1.09l-1.79-.2a.54.54,0,0,1-.54-.49c0-.41.34-.61,1.08-.61a28,28,0,0,1,8.81,1.7c3.27,1.06,5.05,1.46,6.64,1.46,5,0,8-2.59,8-6.9a13.5,13.5,0,0,0-1.89-6.6,16.07,16.07,0,0,0-4.68-4.37,1.51,1.51,0,0,0-.78-.31.5.5,0,0,0-.51.5l.1,1.3v.11c0,.49-.3.88-.65.88-.54,0-1.12-.64-1.75-2C284,41.39,281.08,39,278,39c-.67,0-1.05.23-1.05.64a2.82,2.82,0,0,0,.52,1.31,14.18,14.18,0,0,1,.9,1.79,2.77,2.77,0,0,1,.23.85c0,.19-.16.28-.45.28a2.82,2.82,0,0,1-1.67-.93L275,41.39l-1.29-2a9.47,9.47,0,0,0-4-3.48l-2.48-1.29a2.92,2.92,0,0,0-1.28-.41.42.42,0,0,0-.47.46,2.22,2.22,0,0,0,.45,1.14,5.07,5.07,0,0,1,.92,2,.55.55,0,0,1-.49.6c-.7,0-1.95-1.24-3.71-3.68a9.45,9.45,0,0,1-1.89-5.58,7.32,7.32,0,0,1,7.38-7.45,15.37,15.37,0,0,1,7.44,2.49l4.77,2.89a12.44,12.44,0,0,0,5.46,1.79,8.94,8.94,0,0,0,2.8-.5,5.26,5.26,0,0,0,1.29-.5.71.71,0,0,0,.36-.57c0-.4-.23-.57-.86-.62-2.21-.17-6.81-2-9.84-3.88a25.73,25.73,0,0,0-3.28-1.88c-.83-.29-1.37-.72-1.37-1.07,0-.14.16-.23.43-.23l.59.11,4.32,1.58,4.17,1.49a26.28,26.28,0,0,0,6.69,1.39A3,3,0,0,0,294.34,21a6.4,6.4,0,0,0-.62-2.77C293.11,17,292.31,16,292,16s-.61.39-.61,1.07l.05.53.12,1.27c0,1.34-.73,2.22-1.87,2.22a5.35,5.35,0,0,1-1.63-.32l-6.46-2.09c-5.61-1.8-7.81-2.29-10.56-2.29-7.82,0-13.7,5.28-13.7,12.3,0,7.93,5.43,12.9,19.38,17.74C290.26,51.15,292,52.23,292,55.8c0,2.05-1.92,3.69-4.32,3.69a13.17,13.17,0,0,1-2.34-.2c-.58-.12-2.84-.65-6.75-1.59a49.24,49.24,0,0,0-12.38-1.4c-9.86,0-14.6,1.5-19.75,6.27a3.52,3.52,0,0,1-3,1.32l-.68,0-1.56-.11a3.14,3.14,0,0,0-2.81,1.8l-1.59,2.68a1.29,1.29,0,0,1-1.15.6c-1,0-1.58-.68-2.53-3.08a7.42,7.42,0,0,0-2-3L229.08,61a1.18,1.18,0,0,1-.49-.73,2,2,0,0,1,.49-1,11.93,11.93,0,0,0,.9-1.39,4,4,0,0,0,.49-1.2l.1-.89a.72.72,0,0,1,.71-.51c.66,0,.78.45.79,2.89a7.09,7.09,0,0,0,.79,2.69L234,63.26a1,1,0,0,0,.9.5c1,0,2.34-2.42,2.69-5,.28-2.12.51-2.79,1-2.79s.58.25,1.43,2a4.79,4.79,0,0,0,1.2,1.5,3,3,0,0,0,1.19.7h.1c.83,0,1.1-.51,1.29-2.4l.09-1-.19-1.39-.14-1c0-.63.23-1,.6-1a1.19,1.19,0,0,1,.74.41l1,1a2.91,2.91,0,0,0,2,1c.85,0,1.38-.38,1.38-1s-.11-.74-1-2.21c-.08-.14-.31-.56-.7-1.29-.88-1.67-1.28-2.09-2.06-2.09l-1,.1-1.29.5a2.64,2.64,0,0,1-.79.22c-.16,0-.3-.18-.3-.4a9,9,0,0,1,1.69-4c.68-1.07,1.26-3.74,1.69-7.8l.49-4.68c.31-2.86.63-3.88,1.21-3.88.2,0,.37.09.38.2l.31,1.5v1.19c0,1.45.15,2.63.34,2.63.42,0,1-.5,1.64-1.34a6.77,6.77,0,0,0,1-2,9.29,9.29,0,0,0,.5-2.6c0-2.3-1-3.3-4.08-4.17a1,1,0,0,1-.59-.29l-.11-.89V21.8l-.2-1.19-.4-1-.49-1.1-.79.51c-2,1.26-2.53,1.64-3.19,2.48-.9,1.14-1.22,1.42-1.59,1.42a.46.46,0,0,1-.49-.42l.39-1.7,0-.29a7.42,7.42,0,0,0-3.41-5.88l-.69.81-.7,1-1.2,1.4a4.7,4.7,0,0,0-1.1,2.95l0,.33v.33c0,.78-.12,1.05-.49,1.05l-.22-.09-.79-1-1-1.19-1.79-1.1-.9-.69c-1,2.08-1,2.31-1,5v.84c0,.89-.29,1.44-.76,1.44a3.1,3.1,0,0,1-1.22-.49,2.92,2.92,0,0,0-1.48-.41,2.64,2.64,0,0,0-2.51,2.9,8.68,8.68,0,0,0,1.6,5.06c.78,1.28,1.81,2.33,2.28,2.33a10.92,10.92,0,0,0,.31-2.13l-.31-1.7-.06-.76c0-.64.22-1,.59-1,.57,0,.9.62,1.27,2.29l.8,3.68.79,4.68a18.23,18.23,0,0,0,1.19,4,19.52,19.52,0,0,0,1.7,3.5c1.1,1.4,1.22,1.6,1.22,1.92a.46.46,0,0,1-.43.46,2.12,2.12,0,0,1-.9-.3,4.06,4.06,0,0,0-1.19-.39l-.73-.11c-1.64,0-2,1.32-2,7.92a40.39,40.39,0,0,0,1.92,12.27l2.09,5.27a6.92,6.92,0,0,1,.49,2.48c0,7.27-9.83,18.89-20.18,23.87-4,1.94-5.23,4-5.58,9.45a20.19,20.19,0,0,1,3.48-1.4c2.94-.82,3.56-1.23,4-2.58l.4-1.3c.18-.55.55-.83,2.59-1.88a4,4,0,0,0,1.59-1.3c.52-.85.92-1.27,1.17-1.27s.45.19.45.51l0,.17-1.1,2.84-.12.7a5.48,5.48,0,0,0,3.3,4.91c.14-.53.25-.92.3-1.19a10.3,10.3,0,0,1,1-3l1.89-2.79c.68-1,.81-1.67.81-4.24L225,95.48l-.06-.8c0-.51.25-.8.69-.8s.64.14.67.31l.29,1.89a.94.94,0,0,0,1,.7c1,0,2.2-1.23,3.5-3.48a4.36,4.36,0,0,0,.72-2.38,23.79,23.79,0,0,0-.32-3.09l0-.58a.73.73,0,0,1,.76-.81c.25,0,.45.07.48.19l.69,2.28c.24.78.77,1.3,1.31,1.3,1.53,0,3.11-3.12,3.27-6.46.1-2.1.36-2.83,1-2.83.24,0,.43.09.48.25l.4,1.28c.14.48.43.8.71.8s.75-.44,1.38-1.2a9.24,9.24,0,0,0,.89-1.28,2.13,2.13,0,0,0,.3-1c0-.5-.1-.65-.9-1.24a2.52,2.52,0,0,1-1.09-2.09c0-1.44.62-3,2.39-6.07,1.62-2.79,1.83-3.11,2.23-3.11s.65.37.65.85a2.07,2.07,0,0,1-.19.87,3.38,3.38,0,0,0-.41,1.19.74.74,0,0,0,.78.7,4.11,4.11,0,0,0,1.81-.59,22,22,0,0,1,2.69-1.1c1.84-.66,3-1.07,3.38-1.19a6.71,6.71,0,0,1,2-.31,7.78,7.78,0,0,1,1.73.2,11.85,11.85,0,0,0,2.3.41,1.57,1.57,0,0,0,1.6-1.57A4.12,4.12,0,0,0,261.5,65c-.51-.84-.82-1.31-.9-1.4-.44-.46-.61-.71-.61-.89l.12-.4a.64.64,0,0,1,.55-.4c.79,0,2.32,1.6,3.72,3.88,7.8,12.73,11.57,16.76,17.3,18.49,6,1.82,7.38,3.08,7.38,6.64,0,1.89-1,4.18-3.1,7.08-4,5.52-5.38,8.75-5.38,12.42v.81c.48-.21.85-.37,1.09-.49a7.36,7.36,0,0,1,1.6-.7l2.48-.5a2.1,2.1,0,0,0,1.4-2.09v-.2L287,105v-.34c0-1.24.6-2.25,1.34-2.25a1,1,0,0,1,.76.6l1.59,3.38c.65,1.38,1.41,2,3.48,3"/><path id="path5006" class="cls-4" d="M212.58,41.19l-.1,1.59,0,1c0,1.62.25,2.31.86,2.31s1.69-1.24,2.15-2.59a9.85,9.85,0,0,0,.52-2.69,4.92,4.92,0,0,0-.52-1.88c-.45-1.09-.9-1.59-1.46-1.59-.84,0-1.25,1.1-1.42,3.88"/><path id="path5010" class="cls-4" d="M204.82,21.8v.86a19.43,19.43,0,0,1-.7,4.21l-.61,2.29a8.3,8.3,0,0,0-.19,1.81A3.69,3.69,0,0,0,205,34.22l1.1.6.2,1.4a6.46,6.46,0,0,0,.29,2.19,11.36,11.36,0,0,1,.42,3c0,.82-.08,1.14-.27,1.14-.38,0-1-1-1.64-2.54-1-2.41-1.81-3.3-3.17-3.3a6.18,6.18,0,0,0-3.09.81,23,23,0,0,1,2.88,5.17c1.59,3.52,2.19,4.23,4.67,5.47.55.28.92.64.92.92a.81.81,0,0,1-.91.78,10.57,10.57,0,0,1-1.4-.21l-.74-.07c-.38,0-.56.35-.56,1.14,0,2.63,2.25,5.84,6,8.48.51.36.81.73.81,1a.66.66,0,0,1-.31.48.88.88,0,0,1-.53.2,3.57,3.57,0,0,1-1.16-.4,1.71,1.71,0,0,0-.74-.22c-.47,0-.77.46-.77,1.17a10.15,10.15,0,0,0,1.8,4.32A8.21,8.21,0,0,0,212.08,69l4.47,1.89a.64.64,0,0,1,.4.57.75.75,0,0,1-.59.73l-.8.09-.89.11-1.2-.11h-.2c-.61,0-.86.14-.86.46A9.25,9.25,0,0,0,213.87,76c1.09,1.91,1.87,2.79,2.46,2.79a.77.77,0,0,0,.62-.5l1.1-2.29a10.19,10.19,0,0,1,2.58-2,6.87,6.87,0,0,1,2.78-1.1c2.39-.31,2.6-.43,2.6-1.42a12.29,12.29,0,0,0-.31-2c-.1-.5-.2-1.2-.3-2.09l-.19-1.88L225,63.37c0-.55-.18-.82-.49-.82s-.54.3-.79.72c-1.18,1.9-2.9,3.18-4.29,3.18-5.55,0-9.34-8.85-9.34-21.85l.1-3.9.3-4.68.06-1.65c0-4-1.41-8.15-3.44-10.18l-1.39-1.39-.9-1"/><path id="path5014" class="cls-4" d="M217.65,94.49A14.61,14.61,0,0,1,212.88,93a9.15,9.15,0,0,0-3.74-1,6.1,6.1,0,0,0-4.22,1.7l.89.7,2,1.4,1.89,1.48a2.65,2.65,0,0,0,1.67.6c1.94,0,3.59-.88,6.28-3.38"/><path id="path5018" class="cls-4" d="M255.93,112.59a5.77,5.77,0,0,1,2-2.59c2.78-2.38,4.08-4.15,4.08-5.57v-2.19c0-1.27.22-1.69.88-1.69a.62.62,0,0,1,.61.3l.5,1.2a.86.86,0,0,0,.84.44c.71,0,1.21-.52,2.44-2.54a3.76,3.76,0,0,0,.73-2,3.14,3.14,0,0,0-.24-1.13q-.11-.27-.69-1.59a4.65,4.65,0,0,1-.41-1.55c0-.66.34-1,.89-1a.89.89,0,0,1,.71.3l.8,1c.18.22.22.34.52.34a1.68,1.68,0,0,0,1.27-.84l.79-1.59a2.17,2.17,0,0,0,.3-.91c0-.32-.31-.67-.79-.88l-1.39-.59c-1.64-.7-3-3.5-3-6.17a4.21,4.21,0,0,1,.3-1.29l.6-1.69a4.94,4.94,0,0,0,.3-1.66,5.63,5.63,0,0,0-1-3,23.1,23.1,0,0,1-1.2-2.08c-.56-1.48-.91-2-1.41-2a2.47,2.47,0,0,0-1.26.49l-1,.59-1.4,1.59-1.39.69c-.83.43-1.63,2.23-1.63,3.73,0,2.15.48,3.31,3.72,9.11,1.37,2.45,2,4.27,2,5.66,0,4.05-4.14,7.38-10.87,8.75-8.07,1.65-9.82,3-10.74,8.16,1.39-.72,1.94-.82,4.4-.82l1.46,0h.23c1.32,0,1.51-.1,2.36-1.3a7.56,7.56,0,0,1,3.27-2.78l1.6-.7,1.29-.69.39-.11c.36,0,.56.15.56.42a3.4,3.4,0,0,1-.95,1.67,5.79,5.79,0,0,0-1.52,3.29,4.79,4.79,0,0,0,1,3.18"/><path id="path5022" class="cls-4" d="M243.4,97.17a11.48,11.48,0,0,1,3,2.69c1,1.29,1.09,1.4,2,1.4a6.9,6.9,0,0,0,1.46-.21l.9-.2c1.68-.32,2.2-.57,2.2-1a1,1,0,0,0-.42-.77l-1.19-1-1.1-1a5.24,5.24,0,0,0-3.13-1.1,6.87,6.87,0,0,0-3.73,1.19"/><path id="path5026" class="cls-4" d="M275.62,102.54l.6-.09,1-.11.79.11.53,0a2.9,2.9,0,0,0,1.95-.44,7.91,7.91,0,0,0,1.89-2.28,2.34,2.34,0,0,0,.4-1.13c0-.67-.62-1.06-1.7-1.06-2.74,0-4.41,1.52-5.46,5"/><path id="path5030" class="cls-4" d="M98.92,312.66l.6-1.2,1.39-1.49a7.41,7.41,0,0,0,1.81-5.15,10.55,10.55,0,0,0-.52-3.21,8,8,0,0,1-.41-1.75c0-.63.47-1.23.95-1.23a1.17,1.17,0,0,1,.75.51l1.5,1.68a3.4,3.4,0,0,0,2.38,1.49l.1-1.39.1-1.63a11.56,11.56,0,0,0-2.19-6.72c-.79-1-1.15-1.63-1.15-2a.66.66,0,0,1,.54-.69.89.89,0,0,1,.42.2c1,.71,1.44,1,1.71,1,.48,0,.91-1.19.91-2.51a9.26,9.26,0,0,0-2-5.56c-.63-.77-1-1.27-1.19-1.48a1,1,0,0,1-.2-.57.77.77,0,0,1,.86-.73,2,2,0,0,1,1.23.5,1.52,1.52,0,0,0,.76.29c.77,0,1.06-1.09,1.06-4l0-1.22-.1-1.79c-.12-2.11-.3-2.47-1.2-2.47h-.79c-4.85,0-7.11-3.08-8.36-11.35-.9-6-3.13-10.22-5.86-11.14-1.64-.55-2.23-.9-2.23-1.33s.46-.55,1-.55a6.62,6.62,0,0,1,1.87.5A27.86,27.86,0,0,0,102.78,250c4.76,0,8.52-3.52,8.52-8a13.59,13.59,0,0,0-4.53-9.64,5.53,5.53,0,0,0-2.48-1.5l-.18,0-.52.17.2,1.44.4,1,.11.41a.42.42,0,0,1-.47.38.9.9,0,0,1-.74-.4l-1.79-2.68a9.44,9.44,0,0,0-6.82-3.9c-.82,0-1.33.37-1.33.94a2.22,2.22,0,0,0,.6,1.17,3.32,3.32,0,0,1,.9,1.59l-.11.39c-.1.23-.25.38-.4.4h-.09c-.49,0-.72-.22-2.88-2.69-1.78-2-5.39-4-7.33-4a1,1,0,0,0-.73.31.64.64,0,0,0-.2.38A1.9,1.9,0,0,0,83.6,227a3.38,3.38,0,0,1,1.11,1.51c0,.2-.26.38-.56.38-.57,0-1.85-.82-4.22-2.7-3.71-2.91-5.38-5.66-5.38-8.85,0-3.85,2.76-6.86,6.27-6.86a12.28,12.28,0,0,1,6.67,2.39l4.87,3.68a12.94,12.94,0,0,0,7.82,2.58,3.75,3.75,0,0,0,1.72-.39c.44-.22.7-.49.7-.67s-.37-.3-.9-.43a11.16,11.16,0,0,1-4.17-1.79l-5-3.78a34.06,34.06,0,0,0-3.88-2.68c-2.63-1.37-3.14-1.71-3.14-2s.26-.27.58-.27a2.14,2.14,0,0,1,.87.2l2.58,1.09a30.52,30.52,0,0,1,4.18,2.48c5.32,3.56,8,4.71,11.15,4.71a4.94,4.94,0,0,0,5.18-5,4,4,0,0,0-.42-1.71l-.5-1c-.17-.36-.49-.62-.6-.5l-.29.41-.3,2.08a4.4,4.4,0,0,1-.31.7,3.3,3.3,0,0,1-.69,1,2.2,2.2,0,0,1-1.81.71c-1.55,0-3.28-.82-7.93-3.79s-9-4.56-12.33-4.56A12.89,12.89,0,0,0,72,216.77c0,10,6.08,14.46,25.16,18.63,7.25,1.58,10.44,3.7,10.44,6.92,0,3-2.38,4.81-6.15,4.81a14.43,14.43,0,0,1-2.7-.2q-1-.19-10.24-2.79a51.67,51.67,0,0,0-13.28-1.85c-7.48,0-12.53,2.22-16,7-.4.57-.79.91-1.06.91a1.6,1.6,0,0,1-.82-.4l-1.4-1.1a6.66,6.66,0,0,0-3.57-1.36,3.1,3.1,0,0,0-2.1.87,2.72,2.72,0,0,1-1,.69c-.56,0-1.58-1.25-2.37-2.89a16.08,16.08,0,0,1-1.69-6.76c0-1,.31-1.69.75-1.69s.6.27.75.8l.79,2.88c.45,1.61,1.34,2.89,2,2.89.31,0,.84-.45,1.45-1.2a4.73,4.73,0,0,0,.8-1.39c.61-1.83.77-2.08,1.27-2.08s.87.35,1.26,2.17a6.25,6.25,0,0,0,.65,1.7,9.21,9.21,0,0,0,1.19,1.79,1.44,1.44,0,0,0,1,.51c.88,0,1.68-1.46,1.68-3.06l0-.43-.12-1.84c0-.72.11-.94.52-.94.23,0,.41.12.7.49a5.39,5.39,0,0,0,1.68,1.39,3.43,3.43,0,0,0,1.42.5,1.5,1.5,0,0,0,1-.5,1.15,1.15,0,0,0,.42-.78c0-.3-.35-.75-1.41-1.81a12.58,12.58,0,0,1-2-4c-.27-.78-.65-1.3-.93-1.3a2.79,2.79,0,0,0-.66.21l-1.28.49-.9.4-.34.07a.72.72,0,0,1-.77-.69,6.12,6.12,0,0,1,2-2.36,3.66,3.66,0,0,0,1.28-2.69c.06-1.67.37-3,.7-3l.3-3.48a36,36,0,0,1,1.49-6.85c.13-.37.28-.61.4-.61.28,0,.52.74.52,1.57l0,.51-.06,1c0,1.26.21,1.92.6,1.92s.93-.64,1.35-1.74l.9-2.28a5,5,0,0,0,.4-1.85c0-1.94-1.16-3.34-2.76-3.34l-.72.12a3.17,3.17,0,0,1-.71.2,1.15,1.15,0,0,1-1-1.25l.09-1.43-.11-2-.39-2.09-.11-1-.89.49-1.09.9L56.76,206l-1.29,1.1a1.19,1.19,0,0,1-.74.3c-.76,0-.86-.21-.86-1.76v-.39c0-1.25-.55-2.23-2.59-4.62-.11-.14-.28-.33-.5-.59l-.39.69-1.1,1.79-1.09,2.79L48,207.06c0,.51-.24.91-.45.91s-.54-.27-.93-.71a7.66,7.66,0,0,0-4.28-2.89l-.19.7c-.36,1.17-.56,1.86-.6,2.09l-.1,1.87v1.44c0,.54-.2.87-.54.87h-.06a6.54,6.54,0,0,1-.6-.5,1.86,1.86,0,0,0-1.2-.31c-1.85,0-3,1-3,2.6,0,1.19.42,2.08,2.26,4.87.8,1.24,1.74,2.21,2.12,2.21s.44-.66.44-1.42l-.18-1.19a4.93,4.93,0,0,1-.28-1.52c0-.55.16-.87.46-.87.9,0,1.82,2.59,2.2,6.17l.4,3.69a12.25,12.25,0,0,0,1.19,4,10.11,10.11,0,0,0,2.6,3.68c.94.67,1.53,1.33,1.53,1.69a.59.59,0,0,1-.52.6s-.71-.24-2-.7l-.83-.12c-2,0-2.65,1.13-2.65,4.55,0,4.13,2.78,10.1,5.88,12.57L53.18,255c2.32,1.86,4.08,4.95,4.08,7.16,0,2.9-3.19,5.76-8.65,7.75l-3.29,1.19c-2.55.93-3.56,2.57-4.57,7.36a8.15,8.15,0,0,1,2.74-.51h.44l1.49,0a2.06,2.06,0,0,0,2.29-1.92v-.9c0-.27.37-.64.9-.9.89-.43,1.35-.66,1.39-.69l1.09-.9a1,1,0,0,1,.56-.22.59.59,0,0,1,.54.62,2.74,2.74,0,0,1-.2.9,9.82,9.82,0,0,0-.52,3.41,8.38,8.38,0,0,0,1.6,5.54,8.22,8.22,0,0,1,.31-1.3A17.08,17.08,0,0,1,55.07,279c1.51-2.11,2.61-4.67,2.61-6.05l0-.42-.29-2.29a1.5,1.5,0,0,1,.49-1.09,1.09,1.09,0,0,1,.68-.3c.42,0,.68.26,1,1,.23.55.52.89.71.89.35,0,1-.91,1.47-2a5.58,5.58,0,0,0,.49-2.1,3.36,3.36,0,0,0-.29-1.27,3.38,3.38,0,0,1-.32-1.14c0-.25.08-.39.42-.65a.84.84,0,0,1,.51-.21,1.06,1.06,0,0,1,.58.21l.89.59a1.59,1.59,0,0,0,.8.31,2.16,2.16,0,0,0,1.4-1.11,8.5,8.5,0,0,0,1.41-2.83c0-.26-.17-.45-.72-.84-2-1.4-3.28-3.51-3.28-5.32a4.27,4.27,0,0,1,.3-1.45l1-2.67c.5-1.36.77-2.06.8-2.1L66,248c.33,0,.54.29.54.78a3.28,3.28,0,0,1-.24,1.13,6.88,6.88,0,0,0-.41,1.89,1,1,0,0,0,1,1.09,4.43,4.43,0,0,0,1.66-.38,20.21,20.21,0,0,1,6.82-2A5.5,5.5,0,0,1,79,251.8a1.93,1.93,0,0,0,.92.41.85.85,0,0,0,.57-.41.87.87,0,0,0,.2-.5,2.14,2.14,0,0,0-.59-1.28,2.35,2.35,0,0,1-.71-1.41.49.49,0,0,1,.55-.51c1.55,0,4,4.94,6.32,12.75,1.84,6.17,2.35,6.8,8.25,10.14,5,2.82,6.9,5.62,6.9,10.16s-1.24,10.19-3.82,17.68a12.41,12.41,0,0,0-.19,10.05c.36,1.28.6,2.05.69,2.28a11.34,11.34,0,0,0,.8,1.5"/><path id="path5034" class="cls-4" d="M75.85,298.74a16.37,16.37,0,0,1,1.89-3.38c1.61-2.43,2.19-3.72,2.19-4.87V288.9c0-1.51.26-2.2.86-2.2a.6.6,0,0,1,.53.3l.5.8a.83.83,0,0,0,.7.41,1.87,1.87,0,0,0,1.12-.85,7,7,0,0,0,1.16-3.55l-.1-1.08-.1-1.14c0-.59.25-.85.82-.85.38,0,.54.16.88.89.21.49.5.8.74.8a1.13,1.13,0,0,0,.84-.6l.8-1.19.6-.9.14-.48c0-.27-.21-.53-.74-.91C86.84,277,86,275,85.9,271.29a32.53,32.53,0,0,0-.5-5.47c-.05-.19-.66-1.62-1.79-4.28A23.44,23.44,0,0,1,82.42,258c-.24-.91-.53-1.19-1.25-1.19-2.7,0-4.74,2.31-4.74,5.36a25,25,0,0,0,2.11,8.07C80.46,275,81,276.75,81,278.46c0,3.65-1.46,5.24-6.5,7.05-5.7,2-8.37,5-9.35,10.24l1-.39a10.51,10.51,0,0,1,1.39-.5l1.6-.4a3.65,3.65,0,0,0,2.68-1.89l.4-1.39a1,1,0,0,1,.6-.69l.89-.4.9-.4.2.4-.4,1.29a9.12,9.12,0,0,0-.2,2.31,7.06,7.06,0,0,0,1.69,5.05"/><path id="path5038" class="cls-4" d="M22.45,206.75a6.42,6.42,0,0,1,.2,1.12,20.36,20.36,0,0,1-.4,2.56l-.18,2a16.12,16.12,0,0,0,.88,5.23,8.24,8.24,0,0,1,.64,2.27l0,.42c-.09.41-.25.71-.39.71a2.21,2.21,0,0,1-1-.62A5.56,5.56,0,0,0,18.48,219a10,10,0,0,0-1.7.2l.5,1.1,1.5,3.68,2.08,3.18,2.19,1.49a2.41,2.41,0,0,1,.59.6,1.31,1.31,0,0,1,.31.65.39.39,0,0,1-.4.34l-2,.1c-.31,0-.55.2-.55.42a15.83,15.83,0,0,0,.84,3l1,2.89,1.69,1.59,1.79,1.3a1.66,1.66,0,0,1,.84,1.12c0,.28-.17.54-.34.56l-1,.1c-.32,0-.5.32-.5.8,0,.75.7,2.09,2,3.88,1.54,2.08,2.63,2.77,4.39,2.77h1.48c.71,0,1.16.35,1.16.92s-.31.75-1,.88c-1.38.28-1.8.57-1.8,1.2a2.15,2.15,0,0,0,.51,1.08l.8,1.1c.65.91,1.4,1.5,1.88,1.5a2.41,2.41,0,0,0,1.45-.91,6.4,6.4,0,0,1,3.22-2.18c3.46-.87,4.18-1.23,4.18-2a2.55,2.55,0,0,0-.39-1.14,9.14,9.14,0,0,1-1.5-4.88c0-1.23-.32-2.1-.77-2.1-.19,0-.49.32-.81.81a4.47,4.47,0,0,1-3.49,2.1c-3.44,0-7.59-5.39-9.64-12.54a19.66,19.66,0,0,1-.74-5.36,27.92,27.92,0,0,1,.74-6.08c.66-2.91,1-4.53,1.09-4.87l.13-1.35c0-2.47-2.28-5.64-5.8-8.1"/><path id="path5042" class="cls-4" d="M29.61,220.58a17.39,17.39,0,0,0-1.41,6.47c0,1.16.39,2.08.87,2.08.16,0,.37-.19.54-.5l1.09-2c.19-.33.37-.68.72-1.21a3.66,3.66,0,0,0,.69-1.49,4.44,4.44,0,0,0-2.5-3.36"/><path id="path5046" class="cls-4" d="M40.55,265.42c.22.23.39.39.5.49l.8.81c1.93,2,2.22,2.2,3.16,2.2a11,11,0,0,0,3.7-1c.42-.22.69-.48.69-.68s-.36-.53-1-1.11l-1.1-1a5.52,5.52,0,0,0-2.64-1.46c-1.14,0-2.31.51-4.12,1.75"/><path id="path5050" class="cls-4" d="M63.62,283.42a10.33,10.33,0,0,1,2,1c.9.59,1.42.93,1.59,1a4.37,4.37,0,0,0,1.57.21,3.44,3.44,0,0,0,1.21-.21l2.09-.8,2-.7c.54-.18.9-.48.9-.75s-.46-.37-1.1-.54a10.42,10.42,0,0,1-1.49-.5c-2.45-1-2.8-1.11-3.68-1.11a6.65,6.65,0,0,0-5.07,2.41"/><path id="path5054" class="cls-4" d="M88.78,303.41c.66-1.6,1.12-1.86,3.38-2,2.55-.14,5-4.72,5-7.81,0-.31-.1-.56-.23-.56a1.63,1.63,0,0,0-.68.32,15.74,15.74,0,0,1-1.48.89l-2.89,1.3a5.86,5.86,0,0,0-3.08,7.85"/><path id="path5058" class="cls-4" d="M270.05,279.64l.4-1.09.4-1.4a8.12,8.12,0,0,1,1.09-1.68,8,8,0,0,0,1.52-4.94,4.06,4.06,0,0,0-.52-1.92,2.31,2.31,0,0,1-.3-.93.79.79,0,0,1,.19-.46.87.87,0,0,1,.4-.31h.07a1.84,1.84,0,0,1,1,.7c.42.52.79.81,1,.81.45,0,.92-.76,1.18-1.89a10.07,10.07,0,0,0,.19-1,9.24,9.24,0,0,0-.89-2.78,2.5,2.5,0,0,1-.29-1,.59.59,0,0,1,.55-.64,2.59,2.59,0,0,1,1.33.86,1.22,1.22,0,0,0,.74.39c.64,0,1.08-.63,1.54-2.18a8.9,8.9,0,0,0,.41-1.56c0-.3-.13-.47-.36-.47l-.34,0-1.18.11a8.43,8.43,0,0,1-5.58-2.7l-2.79-3.38a37.5,37.5,0,0,1-2.48-3.28l-2.29-1.49a1.16,1.16,0,0,1-.6-.82c0-.37.38-.62.95-.62s2.15.58,5.12,1.83a30.89,30.89,0,0,0,10.08,2.2,8.63,8.63,0,0,0,8.67-8.5c0-2.56-1.14-4.92-3.94-8.22a3.59,3.59,0,0,0-1.83-1.21.55.55,0,0,0-.55.58,3.11,3.11,0,0,0,.3,1.13,2.63,2.63,0,0,1,.2.91c0,.46-.18.71-.48.71-.63,0-1.28-1-1.81-2.81-.65-2.22-1.95-3.54-5-5.07a10.91,10.91,0,0,0-3.15-1.13c-.19,0-.32.18-.32.45a2.19,2.19,0,0,0,.4,1.17,5,5,0,0,1,.79,1.89v.1c0,.39-.2.61-.55.61-.63,0-.78-.17-2.23-2.4a11.56,11.56,0,0,0-4.48-3.38,4.78,4.78,0,0,0-1.69-.39h-.06c-.36,0-.63.17-.63.38a3.76,3.76,0,0,0,.44.91l.15.57a.49.49,0,0,1-.47.53c-.59,0-2.45-1.5-3.91-3.18a10,10,0,0,1-2.58-5.95c0-3.8,3.63-7.18,7.7-7.18a5.79,5.79,0,0,1,2.54.5l3.48,1.79,4.08,2.69a16.29,16.29,0,0,0,7.51,2.7,11.18,11.18,0,0,0,3.14-.61c1-.27,1.57-.66,1.57-1l0-.07-.34-.2-2.2-.19a19,19,0,0,1-6.16-2.79l-4.58-3-4.07-1.7c-.31-.12-.5-.33-.5-.52a.43.43,0,0,1,.46-.37l1.13.19,3.79,1.1a30.05,30.05,0,0,1,4.57,2.09c4.15,2.21,6.84,3.18,8.84,3.18a3.75,3.75,0,0,0,4-3.73,13.23,13.23,0,0,0-.4-2.83,3.69,3.69,0,0,0-.59-1.29c-.17-.26-.36-.4-.5-.4s-.44.3-.44.82l.05.68,0,.57c0,1.84-.71,2.48-2.74,2.48-1.65,0-3.86-.66-8.93-2.67-4.73-1.86-7.7-2.58-10.65-2.58-7.47,0-14,6.11-14,13.08,0,6,4,10.62,12.16,14l8.46,3.49c7,2.87,9.55,4.93,9.55,7.64,0,2.27-2.1,3.73-5.4,3.73-1.42,0-3.19-.4-6.44-1.44-7.92-2.52-13.06-3.57-17.58-3.57-7.38,0-12.64,2-16.83,6.46-.56.58-.88.76-1.37.76a3,3,0,0,1-1.42-.56,4.72,4.72,0,0,0-2.18-.72,3.68,3.68,0,0,0-2.39,1.31l-1,1.3a1.32,1.32,0,0,1-.88.6c-.72,0-2-1.23-2.8-2.69a9.24,9.24,0,0,1-1-2.59,16,16,0,0,1-.21-2.72l.12-1.86.29-2c.14-1,.25-1.53.3-1.7a.54.54,0,0,1,.48-.39c.52,0,.75.47.75,1.56l0,.62,0,.46c0,2.82,1.12,5.41,2.35,5.41q1.46,0,2.54-5.18c.14-.69.42-1.09.76-1.09s.63.51.93,2a8.61,8.61,0,0,0,1.49,3.18,1.71,1.71,0,0,0,1.14.81c.81,0,1.34-1.23,1.75-4.08.16-1.12.49-1.81.87-1.81a.5.5,0,0,1,.41.22,10.21,10.21,0,0,1,.7,1.09,3.34,3.34,0,0,0,2.26,1.39,1.43,1.43,0,0,0,.92-.4c.45-.4.7-.69.7-.81s-.21-.47-.59-.88a9.4,9.4,0,0,1-1.79-3.29c-.42-1.09-.72-1.84-.9-2.28a1.4,1.4,0,0,0-.5-.7l-.31-.07-.58.07-2.09.6-.65.09a.43.43,0,0,1-.46-.47,2,2,0,0,1,.81-1.11c2.51-2,4-5.36,4.57-10.24.35-3,.72-4.09,2-5.86.28-.38.5-.61.63-.61.37,0,.58.31.58.88a4.06,4.06,0,0,1-.31,1.41,3.33,3.33,0,0,0-.22,1.21l0,.38.2.61,1.09-.41,1.19-1.39a7.33,7.33,0,0,0,1.31-4.07,3.25,3.25,0,0,0-.81-2.29c-.62-.75-1.06-1.05-1.5-1.05l-.68.05-.71,0c-.65,0-1-.19-1-.57l.17-.77.1-1.1-.59-2.48-.5-1.2-.3-1-.7.49-1.49.89a4.93,4.93,0,0,0-1.19,1.1c-1.41,1.71-1.51,1.79-2.08,1.79-.36,0-.55-.13-.55-.38l0-.42a10.76,10.76,0,0,0,.31-2.06,9.38,9.38,0,0,0-2.8-5.79c-2.06,2-3.18,4.18-3.18,6.26v1.19c0,.47-.15.7-.45.7h0a1.19,1.19,0,0,1-.7-.5l-1.19-1.59c-.09-.11-.62-.54-1.59-1.3a8,8,0,0,1-.79-.69l-.4.8a10.32,10.32,0,0,0-1.4,4.77c0,1.32-.15,1.72-.47,1.72a1.36,1.36,0,0,1-.62-.23c-1.51-.85-1.65-.9-2.3-.9a2.93,2.93,0,0,0-3,3.16,7.92,7.92,0,0,0,1.23,3.32c.91,1.61,2.28,3.1,2.88,3.1.17,0,.21-.12.21-.61V219l-.11-1.69-.2-1.29v-.18c0-.38.15-.55.45-.55.91,0,1.68,2.63,2.35,7.89.58,4.62,1.86,7.81,3.87,9.64.53.47.82.86.82,1.08a.37.37,0,0,1-.4.31,3.07,3.07,0,0,1-1.3-.5,2.15,2.15,0,0,0-1.08-.31,2.83,2.83,0,0,0-2.31,2.4l-.89,5.67-.7,8a21.34,21.34,0,0,0,.59,6,24.9,24.9,0,0,1,.7,4.71c0,6-3.7,10.68-9.84,12.49l-6.36,1.9c-4,1.17-5.92,3.78-6.47,8.64a4.62,4.62,0,0,1,2.89-1.19l1.88-.29a5.1,5.1,0,0,0,1.7-.5,9.73,9.73,0,0,0,1.09-1.1l1.69-1.88c.64-.72,1.21-1.13,1.57-1.13s.42.26.42.58a3.54,3.54,0,0,1-.7,1.63,4.78,4.78,0,0,0-.72,2.57c0,1.27.34,2.07,1.61,3.9a7.62,7.62,0,0,1,.41-1.2,17.59,17.59,0,0,1,1.49-2.08c1.38-1.78,2.37-3.64,2.38-4.47,0-1.54.16-2.06.55-2.06s.4.09.55,1a1.29,1.29,0,0,0,.29.6,1,1,0,0,0,.62.39,2.26,2.26,0,0,0,.78-.39,7,7,0,0,0,1.59-1.4,6.39,6.39,0,0,0,1-1.78,6.18,6.18,0,0,0,.51-1.89v-1.27c0-.35.14-.63.33-.63s.74.52,1.06,1.1c.23.39.37.5.63.5h.07a1.48,1.48,0,0,0,.9-.41,5.89,5.89,0,0,0,2-3.71l-.09-1.84-.41-1.51,0-.13a.54.54,0,0,1,.49-.56c.45,0,.94.63,1.62,2.09.32.69.61,1,.91,1,.47,0,.84-.35,1.78-1.7l.89-1.29a1.76,1.76,0,0,0,.3-1,1.72,1.72,0,0,0-.3-1l-.8-1.19a2,2,0,0,1-.19-1,9.85,9.85,0,0,1,1.49-4.68,23.84,23.84,0,0,0,1.29-2.49c.16-.4.33-.59.56-.59s.34.24.34.5l-.1,1.1v1.59c.13.35.38.5.85.5a3.05,3.05,0,0,0,1-.21l2.48-.89a17.87,17.87,0,0,0,2.28-1.1c3.9-2.16,5.1-2.6,7-2.6a11.86,11.86,0,0,1,4.72,1.41,2.58,2.58,0,0,0,1,.3,1.23,1.23,0,0,0,.86-.5,1.16,1.16,0,0,0,.3-.75,2.61,2.61,0,0,0-.39-1.24,4.44,4.44,0,0,1-.61-1.48.41.41,0,0,1,.45-.44,1.13,1.13,0,0,1,.75.53c.3.48,1.06,1.8,2.28,4,1.87,3.29,4.27,5.59,6.37,6.06l4.37,1c1.36.31,1.71.83,1.71,2.52a8.66,8.66,0,0,1-4,7.42l-3.58,2.29a6.58,6.58,0,0,0-2.39,5,25.92,25.92,0,0,0,.7,5.1l.69-.69,1.7-1,1.49-1.49.8-2.19.78-2c.4-1,.84-1.6,1.16-1.6s.54.55.54,1.52v.65c0,1.43.2,2.05,1.3,4.2"/><path id="path5062" class="cls-4" d="M211.29,309.77c1.2-1.12,1.41-1.2,4.77-1.89,2.72-.55,4-1.79,4.57-4.47.43-2,.7-2.34,2.48-3.39a4.87,4.87,0,0,0,1.3-1c.22-.24.4-.4.49-.4a.4.4,0,0,1,.35.45,4.07,4.07,0,0,1-.64,1.65,3.59,3.59,0,0,0-.4,1.89,6.36,6.36,0,0,0,1.19,4,5.61,5.61,0,0,1,2.49-2.79c2-1.38,2.73-3,3.09-6.56.15-1.51.43-2.3.85-2.3a.5.5,0,0,1,.43.31l.7,1.49a.69.69,0,0,0,.63.33,2.37,2.37,0,0,0,1.26-.73l1.4-1.28c.58-.55,1-1.92,1.19-4.19.08-.82.36-1.38.69-1.38s.41.2.5.49l.6,2c.14.48.42.8.71.8a1.84,1.84,0,0,0,.78-.5,8.43,8.43,0,0,0,1.39-1.49,3.38,3.38,0,0,0,.7-2V287.1a1.84,1.84,0,0,1,.39-1.09c.2-.25.36-.41.45-.41a.67.67,0,0,1,.55.51l.39,1.09a1.1,1.1,0,0,0,.94.8c.52,0,1.05-.46,1.86-1.59a8.38,8.38,0,0,1,.59-.8,2.54,2.54,0,0,0,.69-1.26,1.49,1.49,0,0,0-.4-.72,10.92,10.92,0,0,1-2.18-6.76c0-3.3,1.25-6.08,5.07-11.25,2.28-3.09,3.58-6,3.58-8,0-.58-.27-.85-.79-.85a2.51,2.51,0,0,0-1.2.37,2.06,2.06,0,0,1-.76.3,1,1,0,0,1-.63-.4l-.7-.8-.49-.79a1,1,0,0,0-.83-.51c-.05,0-.31.08-.76.21l-.9.1c-1,0-1.42.41-1.42,1.39l0,.59,0,.45a5.12,5.12,0,0,1-1.81,3.14l-1.89,1.69c-2.33,2.08-4.14,5.41-4.14,7.61a16.82,16.82,0,0,0,.86,4.32,21.49,21.49,0,0,1,1.2,5.36c0,4.76-7.29,11-20.79,17.91-6.86,3.48-8.58,5.54-8.58,10.26l.13,1.77"/><path id="path5066" class="cls-4" d="M204.72,205.46v2.47a6.46,6.46,0,0,1-.21,1.61,10.66,10.66,0,0,0-.39,2.25,8,8,0,0,0,1.39,4.81,7.56,7.56,0,0,1,1,3.34c0,.4-.16.63-.44.63a.63.63,0,0,1-.48-.29l-.8-1.1c-.63-.87-1.23-1.09-2.84-1.09l-1.73.1a21.78,21.78,0,0,1,1.19,3.48c.8,3.25.92,3.48,2.69,5.06s1.94,1.82,1.94,2.39a.75.75,0,0,1-.69.8l-.66-.1-.39,0c-.54,0-1,1-1,2.11a7.14,7.14,0,0,0,.63,2.51,3.83,3.83,0,0,0,.7,1.19l1,1a1.44,1.44,0,0,1,.4,1c0,.49-.28.89-.61.89a2.34,2.34,0,0,1-.89-.32,1.48,1.48,0,0,0-.7-.19c-.44,0-.66.26-.66.81l.17,1.48.6,2.58a4.62,4.62,0,0,0,1.09,1.89,4.46,4.46,0,0,0,1.49,1.19c1.26.55,1.93.86,2,.9a1,1,0,0,1,.3.8.68.68,0,0,1-.66.69,7.81,7.81,0,0,1-1-.2l-1-.1c-1,0-1.07,0-1.07.84a6.05,6.05,0,0,0,.2,1.55l.4,1.59c.42,1.67,1,2.58,1.56,2.58a1.59,1.59,0,0,0,.72-.4,12.43,12.43,0,0,1,6.14-2.09,19.88,19.88,0,0,1,4.8.5,3.47,3.47,0,0,0,1,.24c.24,0,.32-.24.34-1.12l.2-1.8.39-3.08.3-2.29v-1.29c-.35.3-.63.54-.8.7-1.69,1.59-2.76,2.09-4.5,2.09-4.58,0-7.2-5.14-7.2-14.12A95.73,95.73,0,0,1,210.1,217a18.4,18.4,0,0,0,.31-2.77c0-3.26-2.07-6.46-5.69-8.77"/><path id="path5070" class="cls-4" d="M211.48,227.73l.9-.89.89-.79a4.67,4.67,0,0,0,1.35-3.06,3.4,3.4,0,0,0-.35-1.42c-.34-.74-1-1.41-1.41-1.41s-.65.83-.78,2.1l-.2,1.5-.3,1.49-.1,1.49v1"/><path id="path5074" class="cls-4" d="M202.73,268.41c1,.38,1.23.55,2.29,1.79,1.38,1.59,2.14,2,4,2a4.31,4.31,0,0,0,1.4-.2l1.3-.39,1-.31c.47-.13.79-.34.79-.5s-.78-.86-2-1.68a18.44,18.44,0,0,0-2.39-1.39,5.19,5.19,0,0,0-2.28-.62,7.34,7.34,0,0,0-4.09,1.32"/><path id="path5078" class="cls-4" d="M216.26,297.54a40.45,40.45,0,0,0,4.37-2.19l2.88-1.59c1.85-1,2.69-1.65,2.69-2.17s-1.12-1-3-1c-3.85,0-7,2.63-7,5.84l.11,1.14"/><path id="path5082" class="cls-4" d="M256.63,272.28c1.41-.28,1.88-.65,2.58-.68l1.79.08a5.15,5.15,0,0,0,1.19-.78c.32-.25.79-.59,1.4-1,2-1.36,2.09-1.44,2.09-1.88s-.8-.82-2.48-.82c-3.14,0-5,1.47-6.57,5.08"/><path id="path5086" class="cls-1" d="M52.78,32.64l-.49-1.39-.14-.81c0-.81.4-1.26,1.53-1.68A9,9,0,0,0,57.06,27l1.1-1,.1,0c.28,0,.49.32.49.75,0,1.26-1.35,3.59-2.76,6-1,1.75-1.51,2.85-1.93,2.85s-1-.76-1.08-1.68l-.2-1.2"/><path id="path5090" class="cls-1" d="M46.92,28.66l1.68.9a1.14,1.14,0,0,1,.72,1l-.11.63a6.67,6.67,0,0,0-.08,2.13,1.68,1.68,0,0,1-2,1.76c-.32,0-.15-.21-.94-1.1L44,31.44A9.35,9.35,0,0,1,42.53,27v-.26c0-.53.17-.74.6-.74a2.17,2.17,0,0,1,1.1.5l2.69,2.19"/><path id="path5094" class="cls-1" d="M52.88,39l1.59-1,.94.21c1.09,0,1.36.32,1.36,1.53,0,1.77-1.11,2.52-3.09,7.51-.88,2.2-1.06,3.48-2.37,3.48-1.46,0-2.56-1.19-3.7-4l-1.3-3.18A14,14,0,0,1,45,39.16c0-.76.58-1.26,1.47-1.26a2.86,2.86,0,0,1,1.43.4l1.19.7,1.15.12.54,0L52.88,39"/><path id="path5098" class="cls-1" d="M238.66,33l-.82-1.73-.15-.79c0-.85.37-1.24,1.64-1.69A11.33,11.33,0,0,0,242.6,27l1.1-1,.11,0c.28,0,.49.32.49.74,0,1.27-1.17,3.27-2.58,5.66-1,1.75-1.68,3.18-2.11,3.18s-1-.76-1.08-1.68l.13-.87"/><path id="path5102" class="cls-1" d="M232.47,28.66l1.68.9a1.31,1.31,0,0,1,.76,1.16l-.06.42-.49,1.8-.3,2a.52.52,0,0,1-.53.41h-.07A5.14,5.14,0,0,1,231.29,34l-1.49-2.52a8.75,8.75,0,0,1-1.32-2.78A11.16,11.16,0,0,1,228.1,27l0-.29c0-.5.19-.72.61-.72a2.17,2.17,0,0,1,1.1.5l2.69,2.19"/><path id="path5106" class="cls-1" d="M238.53,39,240,38l.57-.12A2.53,2.53,0,0,1,243,40.12c0,1-1.32,1.56-1.85,3L240,47.56q-1.22,3.18-3.13,3.18c-1.5,0-2.64-1.2-3.73-4q-.76-1.92-1.29-3.18a13.76,13.76,0,0,1-1.28-4.14,1.38,1.38,0,0,1,1.47-1.53,2.81,2.81,0,0,1,1.4.4c.76.45,1.15.69,1.19.7l1.17.12.53,0,2.18-.09"/><path id="path5110" class="cls-1" d="M44.43,214.51l-.5-1.49-.11-.44c0-.15.19-.27.42-.27a2.64,2.64,0,0,1,1.18.61c.44.35.71.32,1.39.5,2.72.7,3.29,1.2,3.29,2.5L50,217.59l-.39,1.5c-.17.63-.33.86-.64.86a9.31,9.31,0,0,1-2.15-1.56l-1-1.4-1.39-2.48"/><path id="path5114" class="cls-1" d="M56.46,217l-1.3,2.3c-.31.36-.48.55-.49.55l-.09,0c-.53,0-1.07-1.21-1.1-2.46l-.2-2c.15-.81.64-1.17,1.88-1.39a6.07,6.07,0,0,0,2-.59c1-.69,1.48-1,1.59-1.1l.16,0a.45.45,0,0,1,.47.48l0,.14-.7,1.7L56.46,217"/><path id="path5118" class="cls-1" d="M53.88,223.76l1.59-.8a1.79,1.79,0,0,1,.75-.2c.78,0,1.35.56,1.35,1.61s-.89,2.66-2.1,4.86c-1.32,2.37-2.3,4-3.33,4-1.42,0-3.45-2.27-5.43-6.07a6.68,6.68,0,0,1-.74-2.77c0-1.25.54-1.92,1.59-1.92a2,2,0,0,1,1.15.32l.89.59a4.57,4.57,0,0,0,2.53.81,3.92,3.92,0,0,0,1.75-.41"/><path id="path5122" class="cls-1" d="M226.6,211.72l1.39.9a13.09,13.09,0,0,0,2,1.09c1.54.64,2.09.86,2.09,1.45a4.48,4.48,0,0,1-.2,1.14,6.33,6.33,0,0,0-.3,1.4c-.14,1.35-1,1.68-1.5,1.68s-1.37-1-2.48-3a23.86,23.86,0,0,1-1.59-4l-.06-.37c0-.25.16-.39.43-.39l.23.06"/><path id="path5126" class="cls-1" d="M240,215.2l-2.28,2.3a8.9,8.9,0,0,0-1,2.18,1.17,1.17,0,0,1-.69.3h-.16a1,1,0,0,1-1-1l-.1-1.68-.09-1.7v-.1a1,1,0,0,1,.87-1.11l2.11-.58,2.18-1.09a3.34,3.34,0,0,1,.94-.4.54.54,0,0,1,.47.58,1.44,1.44,0,0,1-.22.62l-1,1.68"/><path id="path5130" class="cls-1" d="M230,222l1.49,1.11a2.57,2.57,0,0,0,1.33.33,6.17,6.17,0,0,0,2.35-.64l1.29-.59a2.07,2.07,0,0,1,.78-.21c.79,0,1.42.84,1.42,1.9,0,1.46-1.06,3-2.6,5.17L235,231.32c-.87,1.24-1.45,1.69-2.16,1.69-1.18,0-1.75-.67-3.52-4.18-1.27-2.52-1.79-4.05-1.79-5.28,0-1.05.54-1.78,1.33-1.78A2,2,0,0,1,230,222"/><path id="path5134" class="cls-4" d="M50.7,41.88H49.4a.59.59,0,0,0-.49.31l-.2.5.49,2.38.4,2.09c.22,1.14.64,1.59,1.49,1.59s1.57-.67,1.69-1.9L53,44.68q.18-2.2.18-2.28a.84.84,0,0,0-.29-.61.72.72,0,0,0-.5-.22l-.1,0-1.58.29"/><path id="path5138" class="cls-4" d="M236.24,41.88h-1.19a.65.65,0,0,0-.5.31,1.79,1.79,0,0,0-.29.5l.49,2.38.4,2.09c.22,1.14.41,1.59,1.26,1.59a1.92,1.92,0,0,0,1.93-1.9l.19-2.17c.14-1.47.2-2.23.2-2.28a.85.85,0,0,0-.3-.61.72.72,0,0,0-.5-.22l-.1,0-1.59.29"/><path id="path5142" class="cls-4" d="M51.59,226.14l-1.1-.2h-.16c-.63,0-.95.36-.95,1.07a9.45,9.45,0,0,0,1.81,4.31,1,1,0,0,0,.76.42c.64,0,1.1-1.22,1.43-3.2l.3-1.5,0-.28c0-.62-.18-.83-.68-.83l-.24,0-1.19.2"/><path id="path5146" class="cls-4" d="M231.27,227.44l.11,1.89a1.75,1.75,0,0,0,1.44,1.7c.91,0,1.57-1.38,1.93-3.49a9.21,9.21,0,0,0,.22-1.38c0-.73-.24-.93-1.18-.93l-.53,0h-.7l-.44,0c-.62,0-.86.5-.86,1.75v.46"/><path id="path5150" class="cls-1" d="M119.3,131.08h10.54c1.18-2.51,2.81-3.6,5.31-3.6s4.09,1,5.52,3.6h8.62a6,6,0,0,1,5.65-3.61,5.84,5.84,0,0,1,5.38,3.61h8c1.21-2.34,3.07-3.61,5.26-3.61a6.19,6.19,0,0,1,5.37,3l.4.6H190.5v51.54h-9.73v19.76H169.34V182.62H140.46v19.76H129V182.43H119.3V131.08"/><path id="path5152" class="cls-3" d="M123.46,178.65H186.7V135.32H123.46v43.33Z"/><path id="path5156" class="cls-4" d="M130,145.22a3,3,0,1,0,3,3,3,3,0,0,0-3-3"/><path class="cls-1" d="M130,151.65a3.42,3.42,0,1,1,3.42-3.42A3.42,3.42,0,0,1,130,151.65Zm0-6a2.6,2.6,0,1,0,2.61,2.6A2.61,2.61,0,0,0,130,145.63Z"/><path id="path5164" class="cls-4" d="M179.68,145.22a3,3,0,1,0,3,3,3,3,0,0,0-3-3"/><path class="cls-1" d="M179.67,151.65a3.42,3.42,0,1,1,3.42-3.42A3.42,3.42,0,0,1,179.67,151.65Zm0-6a2.6,2.6,0,1,0,2.61,2.6A2.61,2.61,0,0,0,179.67,145.63Z"/><path id="path5172" class="cls-4" d="M130,168.79a3,3,0,0,0-3,3,3.06,3.06,0,0,0,3.11,3,3,3,0,0,0,2.9-3,3,3,0,0,0-3-3"/><path class="cls-1" d="M130.14,175.21a3.47,3.47,0,0,1-3.52-3.41,3.42,3.42,0,1,1,6.83,0A3.36,3.36,0,0,1,130.14,175.21Zm-.11-6a2.61,2.61,0,0,0-2.6,2.61,2.66,2.66,0,0,0,2.71,2.6,2.56,2.56,0,0,0,2.5-2.6A2.61,2.61,0,0,0,130,169.19Z"/><path id="path5180" class="cls-4" d="M179.68,168.79a3,3,0,1,0,3,3,3,3,0,0,0-3-3"/><path class="cls-1" d="M179.67,175.21a3.42,3.42,0,1,1,3.42-3.41A3.41,3.41,0,0,1,179.67,175.21Zm0-6a2.61,2.61,0,1,0,2.61,2.61A2.61,2.61,0,0,0,179.67,169.19Z"/><path id="path5188" class="cls-4" d="M139.46,159.66A19,19,0,0,0,155,167.28c5.89,0,9.94-2.1,14.7-7.62-4.75-4.88-9.18-6.91-15-6.91a19.6,19.6,0,0,0-15.29,6.91"/><path id="path5192" class="cls-1" d="M142.47,159.66c4.2-3.26,7.75-4.61,12.13-4.61s7.73,1.29,12,4.71c-3.75,3.72-7,5.12-12.1,5.12a16.8,16.8,0,0,1-12.07-5.22"/><path id="path5196" class="cls-4" d="M147.59,158.66a12.39,12.39,0,0,0,14.13,0,16.51,16.51,0,0,0-7.18-1.71,14.54,14.54,0,0,0-6.95,1.71"/><path id="path5198" class="cls-1" d="M122.58,139.73h65v-2.21h-65Z"/><path class="cls-1" d="M187.72,139.87H122.44v-2.49h65.28Zm-65-.27h64.73v-1.94H122.72Z"/><path id="path5204" class="cls-4" d="M132.54,134.69v6.22a2.59,2.59,0,0,0,2.68,2.6,2.42,2.42,0,0,0,2.74-2.6v-6.12c0-2.36-1-3.81-2.5-3.81a3.23,3.23,0,0,0-1.21.31,3.33,3.33,0,0,0-.7.39,2.43,2.43,0,0,0-.61.81,3.8,3.8,0,0,0-.4,1.1v1.1"/><path id="path5208" class="cls-4" d="M152.09,139.81v1.1a2.6,2.6,0,0,0,2.68,2.61,2.44,2.44,0,0,0,2.75-2.61v-6.12c0-2.34-1-3.83-2.49-3.83-1.79,0-2.94,1.46-2.94,3.74v5.11"/><path id="path5212" class="cls-4" d="M171.05,134.69v6.22a2.59,2.59,0,0,0,2.68,2.6,2.41,2.41,0,0,0,2.73-2.6v-6.12c0-2.36-1-3.81-2.5-3.81a3.27,3.27,0,0,0-1.21.31,3.62,3.62,0,0,0-.7.39,2.55,2.55,0,0,0-.6.81,3.51,3.51,0,0,0-.4,1.1v1.1"/><path id="path5214" class="cls-4" d="M131.14,194.76h5.92v-7.62h-5.92Z"/><path id="path5216" class="cls-4" d="M131.14,198.87h5.92v-2.4h-5.92Z"/><path id="path5218" class="cls-4" d="M171.45,194.76h5.93v-7.62h-5.93Z"/><path id="path5220" class="cls-4" d="M171.45,198.87h5.93v-2.4h-5.93Z"/></g></g></g></g></svg>