<svg xmlns="http://www.w3.org/2000/svg" viewBox="0 0 349.97 294.4"><defs><style>.cls-1{fill:#ecb365;}.cls-2{fill:#fff;}</style></defs><g id="Layer_2" data-name="Layer 2"><g id="Layer_1-2" data-name="Layer 1"><path class="cls-1" d="M332.37,107.4q-17.6-21.79-53.2-21.8-22.8,0-40.8,9.8c-4.48,2.44-7.83,5.17-14.35,10.21a303.85,303.85,0,0,0-25.17,21.7L197.1,141q9.65,19.91,19.27,39.8,0-14.4,8.2-23.2t21.8-8.8q10,0,15.2,6.6t5.2,21.8V294.4H350V174Q350,129.21,332.37,107.4Z"/><path class="cls-2" d="M0,294.4V0H83.2V123.2H76.8a72.08,72.08,0,0,1,28.4-27.8q18-9.8,40.8-9.8,35.59,0,53.2,21.8T216.8,174V294.4H133.6V177.2q0-15.19-5.2-21.8t-15.2-6.6q-13.61,0-21.8,8.8t-8.2,23.2V294.4Z"/></g></g></svg>