<svg xmlns="http://www.w3.org/2000/svg" viewBox="0 0 767.7 719"><defs><style>.cls-1{fill:#fff;}.cls-2{opacity:0.7;}</style></defs><g id="Layer_2" data-name="Layer 2"><g id="Layer_1-2" data-name="Layer 1"><path class="cls-1" d="M289,719V691c58-6,66-11,66-77V450c0-83-32-125-99-124-38,0-78,19-106,52V614c0,65,8,71,68,77v28H0V691c58-5,71-10,71-77V132c0-53-3-66-70-72V34C54,29,114,14,150,0V341c36-36,91-73,145-73,82,0,139,51,139,171V615c0,66,8,71,66,76v28Z"/><g class="cls-2"><path class="cls-1" d="M704.7,615c-4.75-108.84,38-355.55-126-347-65.58,3.09-105,45.44-158,82-.09-.24-.19-.47-.29-.71a4.65,4.65,0,0,1-1.59,2.26,89.28,89.28,0,0,0,9.54,25.69c.39.68.79,1.33,1.21,2C512.08,302,631.74,306,625.7,444V611c0,70-7,74-66,80v28h208V691C710.7,685,704.7,682,704.7,615Z"/></g></g></g></svg>