<svg xmlns="http://www.w3.org/2000/svg" viewBox="0 0 1045.26 719"><defs><style>.cls-1{fill:#fff;}.cls-2{opacity:0.7;}</style></defs><g id="Layer_2" data-name="Layer 2"><g id="Layer_1-2" data-name="Layer 1"><path class="cls-1" d="M289,719V691c58-6,66-11,66-77V450c0-83-32-125-99-124-38,0-78,19-106,52V614c0,65,8,71,68,77v28H0V691c58-5,71-10,71-77V132c0-53-3-66-70-72V34C54,29,114,14,150,0V341c36-36,91-73,145-73,82,0,139,51,139,171V615c0,66,8,71,66,76v28Z"/><g class="cls-2"><path class="cls-1" d="M837.26,719V691c59-6,66-10,66-80V444c0-71-24-116-86-116-38,0-73,21-111,52,1,12,3,24,3,43V617c0,63,9,68,64,74v28h-214V691c62-6,71-10,71-76V443c0-74-23-115-84-115-40,0-79,27-110,52V615c0,66,7,70,64,76v28h-215V691c66-6,72-10,72-76V408c0-64-4-68-60-78V305a537,537,0,0,0,139-40v81c21-16,42-33,74-52,25-16,47-26,79-26,48,0,89,30,109,82,28-22,54-39,79-56,22-14,50-26,79-26,78,0,126,56,126,154V615c0,67,6,70,63,76v28Z"/></g></g></g></svg>