<svg xmlns="http://www.w3.org/2000/svg" viewBox="0 0 617.77 521.58"><defs><style>.cls-1{fill:#fff;}</style></defs><g id="Layer_2" data-name="Layer 2"><g id="Layer_1-2" data-name="Layer 1"><path class="cls-1" d="M143.31,484.11a278,278,0,0,1,0-446.64V0C57.16,54.81,0,151.12,0,260.79s57.16,206,143.31,260.79Z"/><path class="cls-1" d="M528.72,477.75a308.82,308.82,0,0,0,0-433.92V90.64a278,278,0,0,1,0,340.3Z"/><rect class="cls-1" x="219.55" width="38.94" height="506.58"/><rect class="cls-1" x="100.3" y="167.05" width="38.49" height="200" transform="translate(-147.5 386.59) rotate(-90)"/><rect class="cls-1" x="336.86" width="38.7" height="506.58"/><rect class="cls-1" x="392.89" y="-5.14" width="38.92" height="165.79" transform="translate(41.45 274) rotate(-38.56)"/><rect class="cls-1" x="468.83" y="34.47" width="38.82" height="130.32" transform="translate(714.69 543.5) rotate(-128.56)"/></g></g></svg>