<svg xmlns="http://www.w3.org/2000/svg" viewBox="0 0 621.77 521.58"><defs><style>.cls-1{fill:#fff;}</style></defs><g id="Layer_2" data-name="Layer 2"><g id="Layer_1-2" data-name="Layer 1"><path class="cls-1" d="M143.31,484.11a278,278,0,0,1,0-446.64V0C57.16,54.81,0,151.12,0,260.79s57.16,206,143.31,260.79Z"/><path class="cls-1" d="M532.72,477.75a308.82,308.82,0,0,0,0-433.92V90.64a278,278,0,0,1,0,340.3Z"/><rect class="cls-1" x="221.55" y="2" width="38.94" height="506.58"/><rect class="cls-1" x="102.3" y="169.05" width="38.49" height="200" transform="translate(-147.5 390.59) rotate(-90)"/><rect class="cls-1" x="338.86" y="2" width="38.7" height="506.58"/><rect class="cls-1" x="398.52" y="-4.92" width="38.92" height="170.03" transform="translate(47.49 289.53) rotate(-40.33)"/><rect class="cls-1" x="476.25" y="36.47" width="38.82" height="130.32" transform="translate(738.94 545.28) rotate(-130.33)"/></g></g></svg>