<svg xmlns="http://www.w3.org/2000/svg" viewBox="0 0 662.38 519.14"><defs><style>.cls-1{fill:#fff;}.cls-2{fill:#ec5b26;}.cls-3{fill:#bd0406;}.cls-4{fill:#c58e5b;}.cls-5{fill:#e0bd94;}.cls-6{fill:#c3b4a7;}.cls-7{fill:#f6ccc7;}.cls-8{fill:#cfc3b7;}.cls-9{fill:#fae8e7;}.cls-10{fill:#a91413;}.cls-11{fill:#ae4645;}.cls-12{fill:#bc0b08;}.cls-13{fill:#bfa2a1;}.cls-14{fill:#eabb88;}.cls-15{fill:#f5b588;}.cls-16{fill:#ee9773;}.cls-17{fill:#7e6d18;}.cls-18{fill:#b3321d;}.cls-19{fill:#9c963f;}.cls-20{fill:#902d09;}.cls-21{fill:#c50605;}.cls-22{fill:#cf0203;}.cls-23{fill:#b01107;}.cls-24{fill:#a73434;}.cls-25{fill:#f2bdbc;}.cls-26{fill:#eeb5b4;}.cls-27{fill:#aa291c;}.cls-28{fill:#e98d6a;}.cls-29{fill:#508a0f;}.cls-30{fill:#7dba48;}.cls-31{fill:#639321;}.cls-32{fill:#fdf9f7;}</style></defs><g id="Layer_2" data-name="Layer 2"><g id="Layer_1-2" data-name="Layer 1"><path class="cls-1" d="M616.64,293.2c-.63,1.6-1.22,3.21-1.88,4.8-3.51,8.49-7.45,11.14-16.6,10.95q-130.68-2.65-261.35-5.37a14.21,14.21,0,0,1-5.54-.9c-11.06-5.12-21.26-1.61-31.11,3.25-6.78,3.34-13.12,7.59-20.14,11.71,2.32,7.07,5.15,15.27,7.68,23.55,4.51,14.77,7.72,29.77,7.46,45.33-.14,8.59-1.55,16.72-7.48,23.51-.89,1-.89,2.91-1.08,4.43-.89,7.18-1.62,14.38-2.59,21.55-.49,3.67-2.7,6-6.57,5.28s-4.76-3.78-4.22-7.35c.86-5.83,1.73-11.66,2.55-17.23-6.5-.87-12.48-1.09-18.14-2.55-12.78-3.32-21.92-14.8-21.94-26.63,0-15.86,15.21-25.21,29.33-17.93,7.55,3.9,12.42,10.3,16,17.78a26.24,26.24,0,0,0,2.22,4.21c1.51-8.64.53-17.15-1-25.62-4.41-24.4-14.06-47.2-21.61-70.63-4.54-14.07-9.48-28-14.22-42a30.48,30.48,0,0,1-1.16-4.18c-.54-3,.61-5.27,3.45-6.23,3-1,5.53.17,6.81,3.08,1.17,2.64,2,5.45,2.9,8.2,2.53,7.49,2.52,7.44,10.24,7.51a130,130,0,0,1,14.79.52,38,38,0,0,1,19.26,8.44c7.08,5.67,16.13,9.15,24.37,7.18,10.61-2.54,21-2,31.49-2.27,49.51-1.32,99-2.23,148.54-3.27,30.05-.63,60.12-1,90.16-1.94,10.2-.33,14.06,2.76,18.25,13.1.37.92.73,1.84,1.09,2.77ZM274.7,404.53c-.56-2.53-.87-4.84-1.58-7-2.25-6.87-5.49-13.14-11.76-17.24-3.13-2-6.61-3.26-10.17-1S246.41,385,246.9,389c.59,4.93,3.35,8.56,7.28,11.36C260.19,404.65,267,405.41,274.7,404.53Z"/><path class="cls-1" d="M225.1,325.35c-14,0-27.95,0-41.87,0-1.59,0-3.59.37-4.66-.42-1.79-1.33-4.12-3.48-4.09-5.24s2.42-3.86,4.25-5.14c1.1-.77,3.09-.34,4.68-.34,12.45,0,24.9,0,37.94,0-1-3.11-1.62-5.86-2.94-8.18-.61-1.08-2.68-1.85-4.11-1.87-10.74-.15-21.48-.08-32.22-.09-1.3,0-2.61,0-3.92-.06-3.58-.22-5.88-2.08-5.72-5.72.15-3.37,2.4-5.16,5.83-5.18,7,0,13.93,0,20.9,0h15c-1-3.06-1.64-5.88-2.92-8.38-.51-1-2.43-1.78-3.72-1.8-9.87-.15-19.74-.06-29.61-.09-4.76,0-7.38-2-7.4-5.47s2.65-5.58,7.35-5.61c9.41-.07,18.83,0,28.25,0-.26-6.46-.7-6.89-6.61-6.9-5.37,0-10.74.09-16.11,0-4.18-.11-6.54-2.21-6.31-5.56.27-4,2.84-5.37,6.54-5.35,5.5,0,11,0,17,0-.43-1.68-.8-3-1.09-4.33-.7-3.18.54-5.57,3.49-6.6s5.41.14,6.8,3.08a25.49,25.49,0,0,1,1.07,2.84q14.35,42.41,28.69,84.81c.28.82.54,1.65.76,2.49.9,3.33-.21,5.79-3.46,6.93s-5.73-.5-6.91-3.53C228.24,335,226.78,330.25,225.1,325.35Z"/><path class="cls-1" d="M256.52,338.55c-1.4,1.42-2.78,4-4.59,4.33s-4.29-1.22-6.14-2.45c-.88-.58-1-2.31-1.44-3.54Q230.1,295,215.88,253c-.18-.55-.36-1.1-.53-1.65-1.34-4.37-.38-7.27,2.79-8.47,3.32-1.26,6.18.46,7.7,5q12.91,38,25.74,76.08C253.1,328.46,254.63,333,256.52,338.55Z"/><path class="cls-1" d="M235.75,242.6c3,.09,4.37,2.49,5.36,5.42q9.93,29.41,19.94,58.81c3.11,9.19,6.36,18.33,9.25,27.59A10,10,0,0,1,270,341c-.57,1.27-3.42,2.69-4.58,2.26-2-.75-4.39-2.57-5.1-4.49-3.93-10.58-7.4-21.33-11-32q-9.39-27.76-18.75-55.54C228.92,246.31,231,242.66,235.75,242.6Z"/><path class="cls-2" d="M336.46,116.4q14.9,0,24.43,7.6t9.61,20.28q.08,12.67-6.38,21.31-3.69,4.69-6.84,4.69a6.18,6.18,0,0,1-4.84-1.87,6.5,6.5,0,0,1-1.69-4.51,7.63,7.63,0,0,1,1.54-4.69,22.22,22.22,0,0,0,4.91-13.8A13.56,13.56,0,0,0,351,133.67q-6.23-4.32-15.44-4.32A30.32,30.32,0,0,0,318,135.08q-8.29,5.73-8.3,13.8t3.69,12.2q3.69,4.14,12.37,9.95c5.78,3.89,9.3,6.23,10.52,7l5.61,3.76,5,3.38c.82.56,2.25,1.63,4.3,3.19a43.21,43.21,0,0,1,4.07,3.38c.67.69,1.77,1.78,3.31,3.29a16.24,16.24,0,0,1,3.07,3.75c.51,1,1.23,2.32,2.15,3.94q3.22,5.64,3.23,16,0,17.46-12.45,27.6T323.7,256.46q-18.43,0-30.65-9.58t-12.22-27.41A22.43,22.43,0,0,1,284.29,207q3.45-5.36,8.45-5.35t5,5.07a26.33,26.33,0,0,1-1.07,6.1,26.83,26.83,0,0,0-1.08,6.66q0,11.26,7.38,17.28t21,6q13.6,0,20.6-6.19a20.45,20.45,0,0,0,7-16.05,21.37,21.37,0,0,0-6.76-16.24,66.41,66.41,0,0,0-6.69-5.36q-3.15-2.15-8.53-5.53t-7.3-4.79q-1.92-1.41-5.76-4.13T311.79,181c-.56-.49-1.89-1.56-4-3.19a24.59,24.59,0,0,1-4-3.56c-.56-.75-1.59-1.94-3.07-3.57a14.44,14.44,0,0,1-2.92-4.23q-.69-1.77-2.15-5.25t-1.46-10.8q0-15.58,12.68-24.78T336.46,116.4Z"/><path class="cls-2" d="M378.25,217a92.15,92.15,0,0,1,2.46-19.43q2.46-11.17,4.92-16.62t4.23-6.47a7.7,7.7,0,0,1,4-1,5.92,5.92,0,0,1,3.84,1.31,3.69,3.69,0,0,1,1.62,2.82c0,1-.6,2.75-1.77,5.25s-2.69,7.39-4.53,14.65-2.77,13.08-2.77,17.46q0,8.82,5.38,8.82,6.45,0,15.52-12.77a3.54,3.54,0,0,1,3-1.87,4.32,4.32,0,0,1,3.23,1.59,5.42,5.42,0,0,1,1.46,3.76,9.06,9.06,0,0,1-1.69,4.79q-11.37,16.32-23.66,16.33a13.49,13.49,0,0,1-11.07-5.16Q378.26,225.28,378.25,217Zm22.59-55.95q-8.29,0-8.3-8.82a10.12,10.12,0,0,1,2.69-7.42,9.23,9.23,0,0,1,6.84-2.72q7.68,0,7.68,8.45a11.35,11.35,0,0,1-2.45,7.7A8.16,8.16,0,0,1,400.84,161.08Z"/><path class="cls-2" d="M407.14,210.27a46.93,46.93,0,0,1,7.38-25.44q7.37-11.73,18.59-11.73a13.19,13.19,0,0,1,10.37,4.41,15,15,0,0,1,3.92,10.23,20.47,20.47,0,0,1-2.92,10.71q-2.93,4.88-5.07,4.88a3.62,3.62,0,0,1-3.23-1.6,5.58,5.58,0,0,1-1.07-3.1,10.35,10.35,0,0,1,1-3.85,12.2,12.2,0,0,0,1-4.78,4.63,4.63,0,0,0-1.39-3.66,4.69,4.69,0,0,0-3.22-1.22q-4.92,0-9.45,6.57t-4.54,18.77q0,6.94,3.23,10.89a10.39,10.39,0,0,0,8.45,3.94q10.9,0,23.51-16.89a2.59,2.59,0,0,1,2-1.13c.72,0,1.41.53,2.07,1.6a6.21,6.21,0,0,1,1,3.37,7.2,7.2,0,0,1-.61,3.1A46.27,46.27,0,0,1,445.94,230a28.2,28.2,0,0,1-18.13,6.19q-10.38,0-16.83-10.32Q407.14,219.66,407.14,210.27Z"/><path class="cls-2" d="M451.86,217a92.07,92.07,0,0,1,2.45-19.43q2.46-11.17,4.92-16.62t4.23-6.47a7.73,7.73,0,0,1,4-1,5.9,5.9,0,0,1,3.84,1.31,3.69,3.69,0,0,1,1.62,2.82q0,1.5-1.77,5.25t-4.53,14.65q-2.78,10.89-2.77,17.46,0,8.82,5.38,8.82,6.45,0,15.52-12.77a3.55,3.55,0,0,1,3-1.87,4.32,4.32,0,0,1,3.22,1.59,5.37,5.37,0,0,1,1.46,3.76,9.06,9.06,0,0,1-1.69,4.79q-11.37,16.32-23.66,16.33A13.49,13.49,0,0,1,456,230.46Q451.86,225.28,451.86,217Zm22.58-55.95q-8.29,0-8.29-8.82a10.08,10.08,0,0,1,2.69-7.42,9.21,9.21,0,0,1,6.83-2.72q7.69,0,7.69,8.45a11.3,11.3,0,0,1-2.46,7.7A8.15,8.15,0,0,1,474.44,161.08Z"/><path class="cls-2" d="M501.18,235.62q-7.68,0-11.83-7.6t-4.15-20.75q0-3.95.15-6A237.71,237.71,0,0,1,497,144.56q4.77-14.09,11.83-23.37t14.91-9.3a8.79,8.79,0,0,1,7.38,3.67,14.68,14.68,0,0,1,2.76,9.1v1.5q-1.53,19-12.6,39.62T496.88,199.2q-.61,6-.62,9.2,0,15.19,7.38,15.2,7.68,0,17.06-13.14a3.34,3.34,0,0,1,2.69-1.31,4.21,4.21,0,0,1,3.07,1.59,5.66,5.66,0,0,1,1.46,3.95,8,8,0,0,1-1.85,4.78Q514.4,235.63,501.18,235.62Zm18.75-108.33q-6.45,0-13,20.09a209.59,209.59,0,0,0-8.83,38.11,180.38,180.38,0,0,0,16.67-28.16q7.61-15.78,7.76-26.29Q522.54,127.29,519.93,127.29Z"/><path class="cls-2" d="M525,294.57q-12.76,0-12.76-12.77a16.37,16.37,0,0,1,.93-5.82c.3-1,.59-1.91.84-2.72a15.18,15.18,0,0,1,1.23-2.72c.56-1,1-1.78,1.31-2.35s.82-1.41,1.53-2.53,1.21-1.88,1.46-2.25.8-1.1,1.62-2.16a15.2,15.2,0,0,0,1.38-2q5.07-7.12,15.83-15.95,5.68-4.51,7.68-6.39l4.61-16.33A26.29,26.29,0,0,1,543,230.93q-5.07,4.13-10.07,4.13t-8.76-5.17A21.22,21.22,0,0,1,520.39,217a88.28,88.28,0,0,1,7.37-35.29,11.41,11.41,0,0,1,3.23-4.23,6.46,6.46,0,0,1,4-1.78,4.5,4.5,0,0,1,4.61,5,17.5,17.5,0,0,1-1.85,6.67,35,35,0,0,0-1.23,3.38q-3.84,15.76-3.84,24.31t5.38,8.54q8.15,0,12.75-19l4.46-19.52q1.85-8.46,7.07-8.45,4.6,0,4.61,3.56,0,5.07-2.84,19.81t-4.69,28.44q15.21-13.51,25.35-19.9a4.11,4.11,0,0,1,2.16-.56c.81,0,1.69.6,2.61,1.78a7.64,7.64,0,0,1,1.38,4.79q0,3-3.23,5.45-25.5,18.39-30,22a158.41,158.41,0,0,1-6.46,28,54.29,54.29,0,0,1-5.83,12.76,29.46,29.46,0,0,1-8.53,8.36A21.32,21.32,0,0,1,525,294.57Zm1.84-10.89c2.25,0,4.46-1.19,6.61-3.57q6.45-7.69,10.76-29.85-6.76,4.89-13.76,14.93t-7,14.27Q523.46,283.67,526.84,283.68Z"/><path class="cls-2" d="M269.3,69.68l-.66.21.41,1.19L268,70.25l-.27.06a9.65,9.65,0,0,0,.37,1.3c.5,1.22,1.63,1.6,2.7,2.06.12,0,.28.11.33.21.46.84,1.15.75,1.82.5,1.73-.65,1.72-.67,2.77,1l-.77.62,1,.72c.73-1.55,1.57-.09,2.37-.17,0,.17,0,.3,0,.3-1.33.37-1.87,1.09-1.58,2.65.13.72-.8,1.54-.87,2.37a24.83,24.83,0,0,0,.17,3.74,4.46,4.46,0,0,0,.1,1.61c.75,1.48.81,3.33,2.66,4.23a15.36,15.36,0,0,1,2.87,2.29,6.48,6.48,0,0,0-.6,1.28,1.06,1.06,0,0,1-1.77.73c-1.46-.88-1.85-.82-2.63.53a1.24,1.24,0,0,1-1.48.6,3.33,3.33,0,0,0-3.2.72,10.21,10.21,0,0,0-1.14,1.89,2.88,2.88,0,0,1-.13.31,9.79,9.79,0,0,1-4.25,1.52,7.1,7.1,0,0,0-4.28.48c-.84.3-1.54,1-2.39,1.2a3,3,0,0,1-2.35-.4c-2.21-2.06-4.89-3.08-7.58-4.09a13.58,13.58,0,0,0-10.34.52c-1.86.8-3.36,2.45-5,3.77-1.19,1-2,1.86-3.58,1.12a2,2,0,0,0-2.15.26,7.74,7.74,0,0,1-6.51.43,14.76,14.76,0,0,0-2.91-.36c-.21,0-.47.11-.63,0-1.3-.71-2.23.14-3.07.78a3.35,3.35,0,0,1-3.26.62,5.5,5.5,0,0,0-1.85-.19,40.06,40.06,0,0,1-4.36.29c-.93-.06-1.84-.84-2.79-1-1.52-.22-3.16-1.28-4.58.24-.34.36-1,.38-1.51.59-.26.12-.63.24-.71.46-.48,1.25-1.19,1.15-2.2.5-2.34-1.5-4.31-.32-6.08.95a22.46,22.46,0,0,0-3.85,3.64c-.71.84-1.33,1.14-2.33.63-.77-.39-1.55-.73-2.3-1.16a3.41,3.41,0,0,0-2.9.25c-.81.7-3.08.53-3.67-.41a5.39,5.39,0,0,0-4-2.52,2.49,2.49,0,0,1,.32-.73,1.07,1.07,0,0,0,0-1.59c-.16-.2-.12-.56-.24-.81-.21-.41-.39-1-.72-1.14a1.74,1.74,0,0,1-1.35-2,2.33,2.33,0,0,0-.28-1.31c-.35-.62-.74-1.14,0-1.73a.61.61,0,0,0,0-.6.93.93,0,0,0-.67-.21,2.64,2.64,0,0,0-.69.17,19.23,19.23,0,0,0,.33-2.53,1.53,1.53,0,0,1,.78-1.52c1.2-.7,1.37-1.45,1-2.77-.06-.23.23-.59.42-.84s.85-.69.93-1.12a1.24,1.24,0,0,0-.79-1.62,4.77,4.77,0,0,1-1.17-.93l1.57-.64c1.72,1,3.41,2,5.13,2.89.25.13.63,0,.95,0s.68-.18.82,0c.88.79,1.38.13,2-.32a7.1,7.1,0,0,0,2.17-3.49l.18-.52c.82-2.11.83-2.11-1.16-3-.16-.83-.29-1.54-.44-2.25-.19-.89,1.32-2.37,2.12-1.93s1.14-.13,1.4-.52a13,13,0,0,0,.73-1.87c.43-.91.93-1.78,1.26-2.42a7.14,7.14,0,0,1,2.1.27,4.65,4.65,0,0,1,1.94,1.54,1.65,1.65,0,0,0,2.25.82,3.48,3.48,0,0,0,2.65-2.93c1-.37,1.46.35,1.84,1a1.45,1.45,0,0,0,1.53.85,33.57,33.57,0,0,0,4.28-.27c1.43-.3,3.11-.6,4.09-1.53,1.38-1.31,2.17-3.24,3.29-4.85a35.2,35.2,0,0,1,2.48-3.11c.13-.16.55-.09.83-.08A2.89,2.89,0,0,0,214,62.52a.93.93,0,0,1,.51-.4,10.63,10.63,0,0,0,5.61-3.55c.67-.84,1.26-1.74,1.93-2.58.21-.27.59-.39.86-.62a11.42,11.42,0,0,0,1.76-1.56,30.6,30.6,0,0,0,2.44-3.55A8.8,8.8,0,0,0,228,45.2c-.06-.91,0-1.45,1.05-1.45a.93.93,0,0,0,.68-.29c.83-1.21,1.58-2.49,2.45-3.67.24-.33.86-.67,1.17-.55a3.1,3.1,0,0,0,3.27-.63,1.72,1.72,0,0,1,1.38-.17,1.41,1.41,0,0,0,1.88-.67,9.56,9.56,0,0,0,1.43-4.48,5.39,5.39,0,0,0-1.61-3.75c.75-.19,1.06.25,1.31.84.52,1.24.61,1.29,1.61.45a11,11,0,0,0,4.17-6.75c.4-2.46.61-2.54,3-2.78a16.94,16.94,0,0,0,2.39-.75c-1.39,1.34-2.17,2.81-.86,4.76l.3,0c.34,1.81.79,3.55,1,5.31.2,2,.19,4.07.24,6.11a38.85,38.85,0,0,0,.15,6.48c.43,2.29.07,4.56.58,6.82.07.35.15.89.37,1,1.67.8,1.32,2.58,2,3.83.36.63.42,1.44.83,2a3.23,3.23,0,0,1,.6,2.44c-.09.62-.13,1.26-.16,1.89a4.87,4.87,0,0,0,1.57,4.14,29.51,29.51,0,0,1,2.79,3.46,1.64,1.64,0,0,0,2.1.68,17.31,17.31,0,0,0,2.79-.89c.57-.33,1.87.59,2.84,1A.61.61,0,0,0,269.3,69.68Z"/><path class="cls-3" d="M122,484.41c-1.21-8.45-4.9-11.71-13.64-12v37.43c0,5.39.79,6.1,7,6.53v1.78H90v-1.78c6.11-.5,6.89-1.28,6.89-6.53V472.41c-8.81.29-12.5,3.55-13.71,12h-2l.21-14.27H124l.14,14.27Z"/><path class="cls-3" d="M138,491.23c3.34-4.83,6-6.67,9.58-6.67a5.49,5.49,0,0,1,5.76,5.61c0,2.84-1.85,4.83-4.48,4.83-1.84,0-3-.72-4.26-2.7-.78-1.28-1.42-1.64-2-1.64-2.48,0-4.33,3.2-4.33,7.39v12.57c0,4.54.78,5.54,5.11,5.82v1.71H124.6v-1.71c3.12-.57,3.83-1.35,3.83-4.26V491.66c0-3.34-.85-4.12-3.91-4.55v-1.7H138Z"/><path class="cls-3" d="M188.44,515.09c-2.7,2.91-4.9,4-8,4-3.48,0-5-1.28-5.82-4.9-3.91,3.55-7.17,4.9-11.29,4.9-4.55,0-7.81-2.27-7.81-7.53,0-3.12,1.56-5.82,4.75-7.95,2.7-1.78,6-3.05,14.28-5.4v-4.83c0-4.54-1.56-6.6-5.75-6.6-2.56,0-4.62.92-4.62,2.63a2.38,2.38,0,0,0,.78,1.63,4.68,4.68,0,0,1,1.35,3c0,2.42-2,4.26-4.83,4.26s-4.61-1.84-4.61-4.83c0-5.68,5.53-8.94,13.56-8.94,8.66,0,13.92,3.41,13.92,9.51v18.54c0,1.2.5,2,1.49,2a1,1,0,0,0,.78-.29l.71-.71Zm-13.85-14.34c-5.68,1.56-8.67,4.47-8.67,8.59,0,3.12,1.57,4.76,3.7,4.76a5.81,5.81,0,0,0,5-2.84Z"/><path class="cls-3" d="M212.87,511c-2.92,5.83-5.76,8-10.51,8-4.9,0-8-2.84-8-7.6V488.53h-3.76v-1.91c5.11-3.48,7.74-7.25,11.86-13.21h1.77v12H211v3.12h-6.75v21.16c0,2.85.78,4.27,2.77,4.27,1.49,0,2.63-1.07,4.05-3.77Z"/><path class="cls-3" d="M236.51,511c-2.91,5.83-5.75,8-10.51,8s-7.95-2.84-7.95-7.6V488.53h-3.76v-1.91c5.11-3.48,7.74-7.25,11.85-13.21h1.78v12h6.75v3.12h-6.75v21.16c0,2.85.78,4.27,2.77,4.27,1.49,0,2.63-1.07,4.05-3.77Z"/><path class="cls-3" d="M254.05,519.14c-8.87,0-16-7.1-16-17.19,0-10.36,6.88-17.39,16.26-17.39,9,0,15.76,7.24,15.76,17.32S263.21,519.14,254.05,519.14Zm.07-32.38c-4.33,0-5.61,3.76-5.61,15.9,0,10.3,1.5,14.28,5.61,14.28s5.54-3.69,5.54-14.28C259.66,490.52,258.31,486.76,254.12,486.76Z"/><path class="cls-3" d="M287.29,491.23c3.34-4.83,6-6.67,9.59-6.67a5.48,5.48,0,0,1,5.75,5.61c0,2.84-1.85,4.83-4.48,4.83-1.84,0-3-.72-4.26-2.7-.78-1.28-1.42-1.64-2-1.64-2.48,0-4.33,3.2-4.33,7.39v12.57c0,4.54.78,5.54,5.12,5.82v1.71H273.87v-1.71c3.12-.57,3.83-1.35,3.83-4.26V491.66c0-3.34-.85-4.12-3.9-4.55v-1.7h13.49Z"/><path class="cls-3" d="M305,518.15v-1.71c3.27-.78,3.76-1.28,3.76-4.54V491.66c0-3.2-.71-3.91-3.83-4.55v-1.7h13.7v26.7c0,3,.93,4,3.41,4.33v1.71Zm8.59-38.07a5.34,5.34,0,0,1-5.47-5.47,5.51,5.51,0,1,1,11,0A5.39,5.39,0,0,1,313.56,480.08Z"/><path class="cls-3" d="M358.23,515.09c-2.7,2.91-4.9,4-8,4-3.48,0-5-1.28-5.83-4.9-3.9,3.55-7.17,4.9-11.29,4.9-4.54,0-7.81-2.27-7.81-7.53,0-3.12,1.56-5.82,4.76-7.95,2.7-1.78,6-3.05,14.27-5.4v-4.83c0-4.54-1.56-6.6-5.75-6.6-2.56,0-4.62.92-4.62,2.63a2.43,2.43,0,0,0,.78,1.63,4.63,4.63,0,0,1,1.35,3c0,2.42-2,4.26-4.82,4.26s-4.62-1.84-4.62-4.83c0-5.68,5.54-8.94,13.56-8.94,8.67,0,13.92,3.41,13.92,9.51v18.54c0,1.2.5,2,1.49,2a1,1,0,0,0,.78-.29l.71-.71Zm-13.85-14.34c-5.68,1.56-8.66,4.47-8.66,8.59,0,3.12,1.56,4.76,3.69,4.76a5.81,5.81,0,0,0,5-2.84Z"/><path class="cls-3" d="M380,506v-8.23h17.26V506Z"/><path class="cls-3" d="M441.74,470.14c11.86,0,19.1,4.19,19.1,12.85,0,5.69-3.26,10-9.16,12.22-3.05,1.13-5.46,1.35-14.84,1.42v13.63c0,4.76.57,5.4,6.18,6.11v1.78H419.37v-1.78a10.75,10.75,0,0,0,3.2-.64c2.34-.92,2.77-2.91,2.77-6.53V478.88c0-5.54-1-6.54-6-7v-1.78Zm-4.9,24c8.88-.07,11.79-2.48,11.79-10.37s-2.34-11.14-8.24-11.14c-2.34,0-3.55.85-3.55,2.48Z"/><path class="cls-3" d="M462.76,518.15v-1.71c3.27-.78,3.77-1.28,3.77-4.54V491.66c0-3.2-.71-3.91-3.84-4.55v-1.7H476.4v26.7c0,3,.92,4,3.41,4.33v1.71Zm8.59-38.07a5.33,5.33,0,0,1-5.46-5.47,5.5,5.5,0,1,1,11,0A5.39,5.39,0,0,1,471.35,480.08Z"/><path class="cls-3" d="M510.06,518.15h-27.2v-1.78l16.62-28.69c-10.09,0-11.79,1.07-13.57,7.81h-1.84l.49-10.08h26.35v1.84l-16.4,28.62h2.06c5.75,0,8.09-.92,10.43-4.19a14.78,14.78,0,0,0,2.21-4.9h2Z"/><path class="cls-3" d="M541.59,518.15h-27.2v-1.78L531,487.68c-10.09,0-11.79,1.07-13.57,7.81H515.6l.49-10.08h26.35v1.84L526,515.87h2.05c5.76,0,8.1-.92,10.44-4.19a14.78,14.78,0,0,0,2.21-4.9h2Z"/><path class="cls-3" d="M574.75,510.19c-4.26,6.75-8,8.95-14.06,8.95-8.59,0-14.49-7.17-14.49-16.9,0-10.58,6-17.68,14.84-17.68,4.12,0,7,1.27,9.09,3.55,2.63,2.91,3.91,7.38,4.19,12.64H556.43c.42,6.74,1.49,13.28,8.45,13.28,3,0,5.25-1.35,8.17-4.83Zm-9.16-13.56c0-3.69,0-5.19-.64-6.53-1-2.13-1.85-3.34-3.91-3.34-3.26,0-5,2.84-5,11.36h9.52Z"/><path class="cls-3" d="M591.44,491.23c3.33-4.83,6-6.67,9.58-6.67a5.49,5.49,0,0,1,5.76,5.61c0,2.84-1.85,4.83-4.48,4.83-1.84,0-3-.72-4.26-2.7-.78-1.28-1.42-1.64-2-1.64-2.48,0-4.33,3.2-4.33,7.39v12.57c0,4.54.78,5.54,5.11,5.82v1.71H578v-1.71c3.12-.57,3.83-1.35,3.83-4.26V491.66c0-3.34-.85-4.12-3.91-4.55v-1.7h13.5Z"/><path class="cls-3" d="M609.12,518.15v-1.71c3.26-.78,3.76-1.28,3.76-4.54V491.66c0-3.2-.71-3.91-3.83-4.55v-1.7h13.7v26.7c0,3,.93,4,3.41,4.33v1.71Zm8.59-38.07a5.34,5.34,0,0,1-5.47-5.47,5.51,5.51,0,1,1,11,0A5.39,5.39,0,0,1,617.71,480.08Z"/><path class="cls-3" d="M662.38,515.09c-2.7,2.91-4.9,4-8,4-3.47,0-5-1.28-5.82-4.9-3.9,3.55-7.17,4.9-11.29,4.9-4.54,0-7.81-2.27-7.81-7.53,0-3.12,1.56-5.82,4.76-7.95,2.7-1.78,6-3.05,14.27-5.4v-4.83c0-4.54-1.56-6.6-5.75-6.6-2.56,0-4.62.92-4.62,2.63a2.38,2.38,0,0,0,.78,1.63,4.63,4.63,0,0,1,1.35,3c0,2.42-2,4.26-4.83,4.26s-4.61-1.84-4.61-4.83c0-5.68,5.54-8.94,13.56-8.94,8.67,0,13.92,3.41,13.92,9.51v18.54c0,1.2.5,2,1.49,2a1,1,0,0,0,.78-.29l.71-.71Zm-13.85-14.34c-5.68,1.56-8.66,4.47-8.66,8.59,0,3.12,1.56,4.76,3.69,4.76a5.81,5.81,0,0,0,5-2.84Z"/><path class="cls-4" d="M344.08,368.6a28.27,28.27,0,0,0-4.83.9v-2.36c-1.7,1.82-2.9,2.4-4.83,2.4-3.81,0-6.57-3.56-6.57-8.53,0-5.27,3-9.15,7-9.15,1.67,0,2.76.58,4.32,2.25v-6.64c0-1.67-.32-1.93-2.76-2.11v-.87h7.81v20.87c0,1.53.47,2,2.14,2.11v.84Zm-4.94-12.46a3.19,3.19,0,0,0-2.83-2.25c-2.1,0-3.08,2.14-3.08,6.83s.9,6.79,2.83,6.79a3.1,3.1,0,0,0,2.39-1.35,3.37,3.37,0,0,0,.69-1.2Z"/><path class="cls-4" d="M364.84,367.47c-1.38,1.49-2.5,2.07-4.06,2.07-1.78,0-2.58-.65-3-2.51a8,8,0,0,1-5.77,2.51c-2.32,0-4-1.16-4-3.85a4.76,4.76,0,0,1,2.43-4.06c1.38-.91,3.08-1.57,7.29-2.76V356.4c0-2.33-.79-3.38-2.94-3.38-1.3,0-2.36.47-2.36,1.35a1.25,1.25,0,0,0,.4.83,2.34,2.34,0,0,1,.69,1.52,2.26,2.26,0,0,1-2.46,2.18,2.22,2.22,0,0,1-2.36-2.47c0-2.9,2.83-4.57,6.93-4.57,4.43,0,7.11,1.74,7.11,4.86v9.48c0,.62.26,1,.77,1a.5.5,0,0,0,.4-.15l.36-.36Zm-7.08-7.33c-2.9.8-4.42,2.28-4.42,4.39,0,1.6.79,2.43,1.88,2.43a3,3,0,0,0,2.54-1.45Z"/><path class="cls-4" d="M392.9,369l-7.51-11.36h-1v7.11c0,2.65.36,3,3.2,3.34V369H375.3v-.91c2.83-.32,3.19-.58,3.19-3.45V349c0-2.83-.51-3.45-3.19-3.63v-.91h11.18c7.08,0,10.74,2.07,10.74,6.24a6,6,0,0,1-1.63,4.29,8.81,8.81,0,0,1-4.07,2.07l7.23,10.23a1.94,1.94,0,0,0,1.59.8V369Zm-8.53-12.52c4.76,0,6.64-1,6.64-5.41,0-3.85-1.34-5.37-4.71-5.37-1.42,0-1.93.43-1.93,1.63Z"/><path class="cls-4" d="M408.87,369.54c-4.53,0-8.16-3.63-8.16-8.79s3.52-8.89,8.31-8.89c4.57,0,8.06,3.7,8.06,8.86S413.56,369.54,408.87,369.54Zm0-16.55c-2.22,0-2.87,1.92-2.87,8.13,0,5.26.76,7.29,2.87,7.29s2.83-1.88,2.83-7.29C411.74,354.91,411.05,353,408.91,353Z"/><path class="cls-4" d="M433.56,365.73c-2,2.72-4,3.81-6.94,3.81-4.53,0-7.77-3.38-7.77-8.57,0-5.41,3.78-9.11,8.61-9.11,3.16,0,5.59,1.67,5.59,4a2.24,2.24,0,0,1-2.47,2.33c-1.23,0-2-.91-2-2.65s0-2.54-1.53-2.54c-1.78,0-3,2.17-3,6.13,0,4.94,1.89,8,5,8,1.49,0,2.54-.51,3.88-2Z"/><path class="cls-4" d="M449.67,365.73c-2,2.72-4,3.81-6.93,3.81-4.54,0-7.77-3.38-7.77-8.57,0-5.41,3.78-9.11,8.6-9.11,3.16,0,5.59,1.67,5.59,4a2.23,2.23,0,0,1-2.46,2.33c-1.24,0-2-.91-2-2.65s0-2.54-1.52-2.54c-1.78,0-3.05,2.17-3.05,6.13,0,4.94,1.89,8,5,8,1.49,0,2.55-.51,3.89-2Z"/><path class="cls-4" d="M459.25,369.54c-4.53,0-8.16-3.63-8.16-8.79s3.52-8.89,8.31-8.89c4.57,0,8.06,3.7,8.06,8.86S463.94,369.54,459.25,369.54Zm0-16.55c-2.21,0-2.87,1.92-2.87,8.13,0,5.26.77,7.29,2.87,7.29s2.83-1.88,2.83-7.29C462.12,354.91,461.43,353,459.29,353Z"/><path class="cls-4" d="M492.9,365c-2.17,3.45-4.1,4.58-7.18,4.58-4.4,0-7.41-3.67-7.41-8.64,0-5.41,3.05-9,7.59-9a5.89,5.89,0,0,1,4.64,1.81c1.35,1.49,2,3.78,2.15,6.47h-9.15c.22,3.45.76,6.79,4.32,6.79,1.56,0,2.68-.69,4.17-2.47ZM488.22,358c0-1.89,0-2.65-.33-3.34-.5-1.09-.94-1.7-2-1.7-1.67,0-2.54,1.45-2.54,5.8h4.86Z"/><path class="cls-4" d="M518.06,355.82c4,.51,7,2.94,7,6.39,0,3.88-3.49,6.82-10,6.82H503.18v-.91c2.65-.29,3.19-.8,3.19-2.83v-17c0-2.14-.73-2.76-3.19-2.94v-.91h11.5c5.85,0,9.15,2.07,9.15,5.81,0,2.76-1.52,4.61-5.77,5.48Zm-5.88-.33c4.54,0,5.66-1.38,5.66-4.94,0-3.19-1.12-5-3.59-5-1.45,0-2.07.55-2.07,2Zm0,10c0,1.75.69,2.4,2.29,2.4,2.83,0,4.35-2,4.35-5.66s-1.85-5.63-5.7-5.63h-.94Z"/><path class="cls-4" d="M534.72,355.27c1.71-2.47,3.09-3.41,4.9-3.41a2.8,2.8,0,0,1,2.94,2.87,2.28,2.28,0,0,1-2.29,2.47,2.32,2.32,0,0,1-2.17-1.38c-.4-.66-.73-.84-1-.84-1.27,0-2.21,1.64-2.21,3.78v6.42c0,2.33.39,2.83,2.61,3V369h-9.62v-.87c1.6-.29,2-.69,2-2.18V355.49c0-1.71-.44-2.11-2-2.32v-.87h6.9Z"/><path class="cls-4" d="M560.46,368.56a18,18,0,0,0-4.8.94v-2.36c-1.88,1.78-3.26,2.4-5.26,2.4-3,0-4.83-1.89-4.83-5.27v-8.74c0-1.67-.29-2.07-1.78-2.36v-.87h6.83v12.12c0,2,.72,2.76,2,2.76,1.05,0,1.85-.47,3-1.71v-10c0-1.63-.4-2.14-2.22-2.28v-.87h7.26v12.92c0,1.6.48,2.18,2.07,2.25v.84Z"/><path class="cls-4" d="M574.47,369v-.87c1.23-.15,1.67-.73,1.67-2.18v-8.6c0-2-.62-3.09-1.85-3.09a3.64,3.64,0,0,0-2.54,1.24,2,2,0,0,0-.62.87V366c0,1.34.4,2,1.74,2.18V369h-8.71v-.87c1.63-.33,1.92-.76,1.92-2.29V355.38c0-1.56-.33-2-1.92-2.21v-.87h6.93V355h0a5.6,5.6,0,0,1,5.15-3.16c3,0,4.9,2,4.9,5.15v9c0,1.63.37,2.07,1.78,2.18V369Z"/><path class="cls-4" d="M592.65,369.54c-4.53,0-8.16-3.63-8.16-8.79s3.52-8.89,8.31-8.89c4.57,0,8.06,3.7,8.06,8.86S597.34,369.54,592.65,369.54Zm0-16.55c-2.21,0-2.87,1.92-2.87,8.13,0,5.26.76,7.29,2.87,7.29s2.83-1.88,2.83-7.29C595.52,354.91,594.83,353,592.69,353Z"/><path class="cls-4" d="M607.17,360.54a41.86,41.86,0,0,0-1.85-9.66,10,10,0,0,1-.65-3.3c0-2.29,1.09-3.63,3.05-3.63,1.81,0,3.08,1.34,3.08,3.7a10.07,10.07,0,0,1-.65,3.23,42.73,42.73,0,0,0-1.85,9.66Zm.58,9a3,3,0,0,1-3-3,3,3,0,0,1,3.09-3.12,3,3,0,0,1,3.05,3.08A3.05,3.05,0,0,1,607.75,369.5Z"/><path class="cls-5" d="M165.94,213c-5.64,3-11.45,5.66-16.88,9-4.37,2.67-8.72,4-13.83,3.35-.95-.12-2.15,1.75-3.23,2.7h-3c-.65-.83-1.3-2.38-2-2.38-6.67,0-13.34.23-20,.4l-12-4.11c0-.31,0-.62,0-.92v-2l8,0,2,.06c2.57,5.49,6.86,2.43,10.63,2.19a22.73,22.73,0,0,1,6.39.22c4.25,1,8.41,2.4,12-1.42l7.94-2a23.21,23.21,0,0,0,4.9-.52c3.1-1,6.09-2.31,9.13-3.49l12.06-5.93Q167,210.51,165.94,213Z"/><path class="cls-6" d="M4,146c-.62-1.31-1.67-2.58-1.79-3.93-.29-3.08.08-6.22-.23-9.3C1.86,131.43.7,130.24,0,129V116c.37-1.39.73-2.78,1.1-4.16A2.64,2.64,0,0,0,2,112c0,3-.18,6,0,9,.58,8.31,1.32,16.6,2,24.91Z"/><path class="cls-7" d="M230,146h-.47l-.46,0c0-1.36-.08-2.71-.11-4.06-1.47-9-1.91-9.59-8.1-9.86l-3.72,0-1.1,0-.11-.09-.26-1.66c5.08-.75,10.09-1.16,14.33,2.64Z"/><path class="cls-6" d="M88,5A70.68,70.68,0,0,0,95.5,2.81C96.83,2.28,97.84,1,99,0h9l2,1.1c0,.31,0,.61,0,.92l-2,0C102.59,3.23,97.18,4.5,91.73,5.55,90.57,5.78,89.25,5.2,88,5Z"/><path class="cls-6" d="M107,226c6.67-.17,13.34-.42,20-.4.66,0,1.31,1.55,2,2.38h-4l-18-1C107,226.68,107,226.35,107,226Z"/><path class="cls-7" d="M110.05,1.1,108,0h25l-.09,1.28a7.87,7.87,0,0,1-2.28.63C123.77,1.69,116.91,1.38,110.05,1.1Z"/><path class="cls-7" d="M107,227l18,1H101c.07-.36.13-.71.2-1.07Z"/><path class="cls-8" d="M1.1,111.84,0,116V93a1.17,1.17,0,0,1,.77-.21l.44.33-.06,4.66-.08,7.37.26,1.95Z"/><path class="cls-9" d="M.77,92.79A1.17,1.17,0,0,0,0,93V89l1.91,0Z"/><path class="cls-10" d="M150.24,114.54l2.72.58c1.52,1.46,2.63,4.5,5.34,1.39l1.62.6.24,2.8c-2.11.08-4.48-.17-4.19,3.12l-8.92-2c-3.31.37-5.6-.85-8.09-3.29a30.4,30.4,0,0,0-10.63-6.55c-2.91-1.07-3.48-2.49-3.3-5,6.27-2.75,8.31-8.39,9.88-14.36l.57-7.29c-.51-4.16-5.78-8-10.5-7.61l-6-.13-2.08.67q-3.14,3.19-6.28,6.37L106,93h0L103.87,98,101,98V96l2.08-5.55-4.23-.54v-2.1l.87-1L100,86l.06-4-.48-1.77-.67-2.2,1-1.89,2-1.19L103,75l1.94,8.13c4.19-3.45,7.64-6.29,11.08-9.14l5-3,0-3,2-6h0l1,1.1L125,65l1.84,7.5,3.24-.2,1.59-2.42c.28-.42.55-.84.82-1.26L134.19,65,137,65v3c-.28,1.53-.57,3.07-.8,4.29l5.85.79c-.06.51-.13,1-.19,1.53L139,75.72l-.84.46c.92,2,1.85,4,2.77,6,1.13.37,3,1.32,3.27,1A32.16,32.16,0,0,0,147.14,78l-.33-3.6c.81,0,1.8-.27,2.38.1,1.83,1.19,3.51,2.61,5.24,3.94-5.05,6.3-10,12.73-15.21,18.87-3.91,4.57-4.94,8.54-2.29,11.78,1.38,4.17,2.28,4.8,5.2,3.58l1.84.4C146,113.74,147.29,117.81,150.24,114.54Z"/><path class="cls-5" d="M172.12,10c2.95,2.08,6,4.08,8.83,6.29a26.27,26.27,0,0,1,3.2,3.59,18.34,18.34,0,0,0,1.27,3c1.1,1.76,2.38,3.42,3.58,5.12l-4-1h0c-5.22-9.44-13.85-13.44-24-15h-1c-.92-.66-1.84-1.31-2.73-2S155.75,8.69,155,8c1.45.19,2.89.41,4.34.57Z"/><path class="cls-5" d="M110.05,1.1c6.86.28,13.72.59,20.58.81a7.87,7.87,0,0,0,2.28-.63c4.31.55,8.63,1,12.93,1.67a29,29,0,0,1,4.08,1.24l2,1.74c.36.69.73,1.37,1.09,2.05-2.35-.65-4.67-1.64-7.07-1.89C134.87,4.94,123.77,4,112.68,3A11,11,0,0,1,110,2C110,1.71,110,1.41,110.05,1.1Z"/><path class="cls-10" d="M192.27,128.5l1.71.55,22,3,.11.09c.29.29.57.59.85.88,0,1.32-.1,2.64-.14,4L214,137l-4-3-18-2-2-2Z"/><path class="cls-11" d="M215.93,132l-22-3,16.68-.22,3.62.9,1.39.63C215.76,130.91,215.85,131.46,215.93,132Z"/><path class="cls-6" d="M189,28c-1.2-1.7-2.48-3.36-3.58-5.12a18.34,18.34,0,0,1-1.27-3l13,10.76L197,32.05,190,29Z"/><path class="cls-6" d="M153,8c-.36-.68-.73-1.36-1.09-2.05,0-.42,0-.84,0-1.27,6.38,1.24,12.77,2.46,19.14,3.79.44.09.72,1,1.07,1.52L159.33,8.61c-1.45-.16-2.89-.38-4.34-.57Z"/><path class="cls-11" d="M160.16,119.91l-.24-2.8L161,117l3.26.79a1.63,1.63,0,0,1,.58.42l3.39,1.56L171,121l3.22.78L179,123l3.23.77a.51.51,0,0,1,0,.82l-5.15.34-4.09-.86-2.84-.1L167,122l-2.88-.17Z"/><path class="cls-12" d="M177.06,124.91l5.15-.34,1.71.53,4.29,4.77a58.78,58.78,0,0,1-8.22-1c-1.48-.38-2.68-1.86-4-2.84Z"/><path class="cls-11" d="M188.22,129.87l-4.3-4.77,4.75.42,3.55,2.21a.5.5,0,0,1,.05.77L190,130Z"/><path class="cls-11" d="M136.93,109.12l5.14,2.82a.66.66,0,0,1,.06.76C139.21,113.92,138.31,113.29,136.93,109.12Z"/><path class="cls-11" d="M150.24,114.54c-3,3.27-4.22-.8-6.27-1.44l3-.11,3.21.77A.48.48,0,0,1,150.24,114.54Z"/><path class="cls-11" d="M158.3,116.51c-2.71,3.11-3.82.07-5.34-1.39l2-.15,3.25.77A.49.49,0,0,1,158.3,116.51Z"/><path class="cls-13" d="M192.22,127.73l-3.55-2.21Z"/><path class="cls-13" d="M214.28,129.73l-3.62-.9Z"/><path class="cls-13" d="M150.19,113.76,147,113Z"/><path class="cls-13" d="M158.21,115.74,155,115Z"/><path class="cls-13" d="M182.2,123.75,179,123Z"/><path class="cls-13" d="M164.23,117.77,161,117Z"/><path class="cls-13" d="M174.2,121.76,171,121Z"/><path class="cls-13" d="M168.2,119.75l-3.39-1.56Z"/><path class="cls-7" d="M151.91,4.66c0,.43,0,.85,0,1.27l-2-1.74Z"/><path class="cls-8" d="M42.64,199.08c-5.21-4.88-12.26-8.87-15.16-14.86C24,177.1,18,172.73,14,166.51a48.92,48.92,0,0,1-2.6-5.35L4,146l0-.12L8,147H8l1,2q1,2,2.08,4c1.41,4.1,2.66,8.27,4.36,12.24.4.93,2.34,1.2,3.57,1.78h0l1,1,1,1,3,3a7.48,7.48,0,0,0,1,0l2,3c-.33,6,4.24,8.72,8,11.95l1,1L42,195,45,197l0,2Z"/><path class="cls-6" d="M42.64,199.08,45,199l10,7,4,2,4,3,7,3L72,216l1,0,1.89,2.75c-1,.15-2.26.77-3,.38-7.47-4-15-8-22.17-12.48C46.91,204.87,45,201.65,42.64,199.08Z"/><path class="cls-6" d="M95,221c0,.3,0,.61,0,.92L95,224.13c-4.45-.76-8.93-1.42-13.35-2.32-1.19-.24-2.23-1.2-3.34-1.83L83,219l4,.05,4,.93Z"/><path class="cls-13" d="M95,224.13l.09-2.22L107,226c0,.33,0,.66,0,1l-5.78-.08Z"/><path class="cls-5" d="M83,219l-4.73,1-3.38-1.22L73,216a29.33,29.33,0,0,1,5.27.69C79.9,217.22,83,215.11,83,219Z"/><path class="cls-14" d="M11.07,153Q10,151,9,149l-1-2H8c-.32-5.87-.62-11.75-1-17.63-.63-10-1-20-2.07-29.88-.68-6.45,3.22-10.74,5.55-16C14.58,74.3,17.54,64.54,21,55l7-7,7-10h0l2-3h0l3-3c2.06-1.72,4.25-3.3,6.13-5.2C48.55,24.33,50.74,21.61,53,19l5.81-2.09L65,15l2-2,0,0C73.09,9.47,80,8.72,86.68,7.74,90,7.26,93.56,7.87,97,8c-6.45,2.56-12.93,5.07-19.34,7.73-1,.43-1.8,1.53-2.69,2.32l-1.94,0c-3-1.59-5.57-1.71-8.36,1.06s-6.15,4.42-9.2,6.68c-2.74,2-5.76,3.9-8,6.42-4.83,5.5-9.23,11.37-13.83,17.08a3,3,0,0,1-.81.55c-4.58,2.77-7.78,6.32-8.13,12.1a11.25,11.25,0,0,1-2.57,6.24C15,76.5,11.33,86.47,8.34,96.74,8.09,97.6,9.43,98.91,10,100a27.56,27.56,0,0,0-.6,4.39c.11,6.2.36,12.4.56,18.59a35.24,35.24,0,0,0,.39,5.06c1.47,6.65,3.08,13.26,4.64,19.89L16,150l1,4v5h0Z"/><path class="cls-5" d="M21,55c-3.45,9.54-6.41,19.3-10.54,28.55-2.33,5.23-6.23,9.52-5.55,16C6,109.44,6.34,119.44,7,129.4c.37,5.88.67,11.76,1,17.63l-3.91-1.2c-.67-8.31-1.41-16.6-2-24.91-.21-3,0-6,0-9l.75-4c.08-.64.15-1.28.22-1.92l-.93-8.13-.85-4.81-.45-.33L1.91,89l1-2C6.64,83,10.39,79.07,10,73L10,73l.87-1L14,60Z"/><path class="cls-8" d="M21,55l-7,5c.41-1.57.36-3.5,1.29-4.64C22,47,28.8,38.63,36.05,30.67c3.73-4.08,8.37-7.36,12.78-10.77,1-.79,2.78-.63,4.2-.9-2.29,2.61-4.48,5.33-6.92,7.79C44.23,28.69,42,30.27,40,32l-3,3h0l-2,3h0c-6.43.49-5.22,6.29-7,10Z"/><path class="cls-5" d="M97,8c-3.45-.11-7-.72-10.33-.24C80,8.72,73.09,9.47,67,13c0-.67,0-1.33,0-2,1.08-.4,2.2-.73,3.24-1.22C73.51,8.25,76.73,6.66,80,5.1L88,5c1.24.21,2.56.79,3.72.56C97.18,4.5,102.59,3.23,108,2c-2,1.14-3.94,2.26-5.89,3.41C100.73,6.27,99.36,7.13,98,8,97.66,8,97.34,8,97,8Z"/><path class="cls-13" d="M80,5.1c-3.23,1.56-6.45,3.15-9.7,4.67-1,.49-2.16.82-3.24,1.22L66,9C70,5.43,74.79,4.56,80,5.1Z"/><path class="cls-9" d="M10,73c.44,6.07-3.31,10-7.08,14a15.62,15.62,0,0,1,1-3.69"/><path class="cls-8" d="M66,9l1,2c0,.67,0,1.33,0,2l0,0-2,2-6.15,1.93Z"/><path class="cls-9" d="M10.87,72,10,73Z"/><path class="cls-6" d="M229,141.9c0,1.36.07,2.71.11,4.07-1.06,2.64-2,5.34-3.19,7.92a101.36,101.36,0,0,1-5.59,11.18c-2.08,3.32-4.37,6.75-7.33,9.21-6.28,5.21-9.08,12.76-13.92,18.89-2,2.55-5,4.42-7.64,6.38-1.93,1.42-4.12,2.49-6.19,3.72L184,200h0l2-2H187c4.68.49,6.61-3.1,9-6h0l5-8q.48,0,1-.06a2.37,2.37,0,0,0,.39-.24,4.74,4.74,0,0,0-.38-.7v-1l3.05-6h0l5-4,2-2,1-1v0c6.37-5.06,9.35-11.93,11.19-19.67C224.82,146.62,227.31,144.36,229,141.9Z"/><path class="cls-5" d="M184,200l1.2,3.25-2,1.89c-4.84-1.95-6.77,3.06-10.27,4.3l-1.9.55L170,208Z"/><path class="cls-6" d="M173,209.46c3.5-1.24,5.43-6.25,10.27-4.3L181,208l-4,1.59Z"/><path class="cls-6" d="M170,208l1.08,2L166,213l2.11-4.92Z"/><path class="cls-8" d="M177,209.62l4-1.59Z"/><path class="cls-15" d="M24.94,172a7.48,7.48,0,0,1-1,0c0-1,0-2,0-3l-3-8,4.26.91L26,163l2.23,4,1.07,2.53,1.89,2.43,2.43,2.26c.16.88.33,1.76.49,2.64l2.08,3.09L37,181l2.21,2.93.88.06,2.8,2.27,1.06,1,8.46,6.61L56,196.21l2.54,1.45L62,199l2.44,1.71,2.51,1.51,2,1.8L76,209.12c3.22,3.95,6.69,4.72,10.09,2.25l1-.63,1.92.57,5.54,2.39,2.47.62L103,219l-8,0c-2.26-4.06-6.36-3.47-10-4-7-1-14.16-1.35-19.36-7.19a35.22,35.22,0,0,0-5.06-5c-4.76-3.55-9.66-6.91-14.59-10.23A19.69,19.69,0,0,0,42,191l-6-3-1-1-7-12Z"/><path class="cls-15" d="M156,214c-3,1.18-6,2.51-9.13,3.49a23.21,23.21,0,0,1-4.9.52c.39-.94.78-1.89,1.18-2.83,1.34-1,2.7-2,4-3,4.17-1.76,8.39-3.43,12.47-5.38.73-.34.91-1.82,1.34-2.78l1-1,2.07-1.91,0,0,12.77-7.24v0l3.08-2,5-3.2,1.44.84.55-2.62h0l3-3.1,1.08-2.92.69-.85,4.31-6.1,3-2.94h0l2.38-.6.66.66c-1,2.13-1.83,4.31-2.93,6.36-3.22,6-9.28,10.28-10.1,17.62l-2,1-3.37-1.54.6,1.31c-3.22,2-6.26,5.11-9.7,5.64-6.82,1-10.76,6.51-16.46,9.1C157.05,211,156.67,212.78,156,214Z"/><path class="cls-14" d="M42,191a19.69,19.69,0,0,1,4,1.57c4.93,3.32,9.83,6.68,14.59,10.23a35.22,35.22,0,0,1,5.06,5C70.81,213.65,78,214,85,215c3.67.53,7.77-.06,10,4v2l-4-1L87,219,83,219c0-3.86-3.09-1.75-4.73-2.27A29.33,29.33,0,0,0,73,216l-1,0c-.69-.64-1.37-1.29-2.05-1.94l-7-3-4-3-4-2c-1.47-5.07-6.24-6.46-10-9L42,195C42,193.63,42,192.32,42,191Z"/><path class="cls-14" d="M156,214c.67-1.2,1.05-3,2.06-3.48,5.7-2.59,9.64-8.05,16.46-9.1,3.44-.53,6.48-3.67,9.7-5.64l-.6-1.31L187,196c0,.68,0,1.36,0,2h-.95l-2,2h0l-14,8-1.95.06Z"/><path class="cls-15" d="M134,220c-3.63,3.82-7.79,2.39-12,1.42a22.73,22.73,0,0,0-6.39-.22c-3.77.24-8.06,3.3-10.63-2.19l2-1.05,5,.16,11-2.22,3,.6C127.2,221,131.05,219.53,134,220Z"/><path class="cls-16" d="M134,220c-3-.49-6.83,1-8.06-3.5a4.28,4.28,0,0,0,.93-.26l1,.33,2.16,1.29,4.94-.12,2.59-1.48,2.56-1,2.63-.52.4.4c-.4.94-.79,1.89-1.18,2.83Z"/><path class="cls-16" d="M107,218,105,219l-2-.06L97,214.31l8.07,2,1.36.19Z"/><path class="cls-17" d="M2.78,108,2,112a2.64,2.64,0,0,1-.93-.11c.08-1.58.15-3.16.23-4.74Z"/><path class="cls-15" d="M216.74,137l.15-4a1.59,1.59,0,0,0,.25-.9l3.73,0-.86,3c-.47,4.26-.64,8.58-1.53,12.75a39.05,39.05,0,0,1-3.58,9.45c-2.42,4.7-5.25,9.2-7.9,13.79h-1l-4,0-.66-.66c.16-.48.31-1,.47-1.45l.07-.1q4-4.44,8-8.87l.06,0,.66-.9.31-1.31.55-.67.4-1,.33-1q1.23-4.91,2.45-9.81l1.3-1.27a1.4,1.4,0,0,0,.13.36c0,.06.17.06.26.09L216,144l.42-2.85L217,139Z"/><path class="cls-5" d="M220,135l.86-3c6.18.27,6.62.81,8.09,9.86-1.65,2.45-4.14,4.71-4.77,7.41-1.84,7.74-4.82,14.61-11.19,19.67.29-1.09.24-2.5.91-3.23,6.12-6.58,7.39-15.23,10.23-23.23C225.71,138.08,224.15,136,220,135Z"/><path class="cls-18" d="M217.14,132.09a1.59,1.59,0,0,1-.25.9c-.28-.29-.56-.59-.85-.88Z"/><path class="cls-14" d="M98,8c1.38-.84,2.75-1.7,4.14-2.52C104.07,4.3,106.05,3.18,108,2l2,0a11,11,0,0,0,2.68.94C123.77,4,134.87,4.94,146,6.09c2.4.25,4.72,1.24,7.07,1.89L155,8c.76.65,1.5,1.32,2.29,1.94s1.81,1.35,2.73,2c-7.92-1.79-16.64.58-23.95-4.69-.78-.57-2.68.41-4.06.67l-4,.08-10.08,2L116,10c-3.25-3.81-7.88-4.24-11-1L101,9Z"/><path class="cls-13" d="M2.07,97.93,3,106.05l-1.93-.9c0-2.46.05-4.92.08-7.37A2.37,2.37,0,0,0,2.07,97.93Z"/><path class="cls-19" d="M2.07,97.93a2.37,2.37,0,0,1-.92-.15l.06-4.66C1.5,94.72,1.78,96.33,2.07,97.93Z"/><path class="cls-19" d="M1.07,105.15l1.93.9c-.07.65-.14,1.29-.22,1.93l-1.45-.88C1.24,106.45,1.16,105.8,1.07,105.15Z"/><path class="cls-20" d="M101,98l2.87,0,1.06.26q.16,2.85.35,5.7c-8.39-1.89-16.81-3.3-25.44-1.89l-5.74,1.68c.66,2,.91,4.26,2.1,5.83,1.43,1.89,3.68,3.16,5.57,4.7,3.93,6.59,10.57,7.1,17.19,7.67,1,1,2,2.07,3,3.11,0,.36,0,.71,0,1.07-3.6,5.91-1,10.95,2.26,15.88l.88,2-2,2.18-2-1.2-2.94-6L98,135,97,133l-.08-3L95,127h0l-8.08-1.94-1.86,0c-.34-5.74-4.06-7.26-9-7.22l-2-1.84c-.34-2.67-.3-5.46-1.12-8-1.61-4.94-1-6.39,3.7-8.36C84.58,96.24,92.78,97.21,101,98Z"/><path class="cls-21" d="M116,74c-3.44,2.85-6.89,5.69-11.08,9.14-.58-2.42-1.26-5.28-1.94-8.13,4.56-2.72,6.34-6.84,6-12,2.78-.18,6,.3,6-4l2-1c4.08.56,6-2.23,8-5l1,0,1,5c-2.87-.19-4.22,1.13-4,4h0c-3.83,1-3.74,3.21-2,6l0,3Z"/><path class="cls-22" d="M127,58l-1-5,2-1,3-3,3,0,5,7,2,.07a2.51,2.51,0,0,1,0,.82c-1.37,4-.09,5.58,4.06,5L148,62.9c.44,4.24,3.67,2.84,6.12,3a5,5,0,0,1,.77.06l-1.23,5.5a44,44,0,0,0-5.33-2.34,33.85,33.85,0,0,0-6.12-1c-1.74-.18-3.5-.1-5.25-.13V65c.44-3-.84-4.42-3.93-4l-1-1-2-1h-3C127,58.65,127,58.32,127,58Z"/><path class="cls-20" d="M101.92,75l-2,1.19-2.35-.82-7.28-1.1L89,72q-3.48-5-7-10l-1-3-1-2-1-3,1-11,4-1h5l-.39,2.94L86,46.39l-5.79-1.93L83,54.13A24,24,0,0,0,93.64,70c4.58,2.94,9,1.05,10.41-4.28.54-2,1.36-3.94,2-5.91l2.91.11V61c0,.32,0,.63,0,1Z"/><path class="cls-23" d="M101,98c-8.22-.78-16.42-1.75-24.43,1.62-4.67,2-5.31,3.42-3.7,8.36.82,2.51.78,5.3,1.12,8L71,117c.2-1.12.43-2.24.6-3.37.9-5.9-2.85-10.51-8.72-10.72a20.52,20.52,0,0,0,2.5-2.22c2.6-3.18,5.11-6.43,7.65-9.66L76,90l1.94-1L79,89c-.3,2.13-.59,4.27-.83,6H88l13,1Z"/><path class="cls-24" d="M147.05,121.08l8.92,2h0l1,2c0,.29.05.59.07.88.31,1,.61,2,.92,3.07-1.17,4.1,1.33,6.51,4.05,8.83-1.93,2.52-4,5-5.75,7.6-1.6,2.43-2.84,5.09-4.24,7.65.32-1.7.63-3.39.95-5.09,0-1,0-2,0-3,0-.29,0-.58,0-.87,3.15-1.45,2-2.8-.1-4.14l-3-1-2.95-1v-2.87l8.29,1c-.11-3.14.21-6.37-.44-9.4-.91-4.26-4.56-4-7.93-3.74Z"/><path class="cls-20" d="M147.05,121.08c0,.62-.05,1.25-.08,1.87l-2.05,2c-2-1.2-4.66-1.94-5.93-3.68-4.26-5.88-10.4-7.36-16.94-8.3l-2-.09q.36-3.94.73-7.9l2.93.94,1.28.3c-.18,2.52.39,3.94,3.3,5A30.4,30.4,0,0,1,139,117.79C141.45,120.23,143.74,121.45,147.05,121.08Z"/><path class="cls-12" d="M137,68c1.75,0,3.51,0,5.25.13a33.85,33.85,0,0,1,6.12,1,44,44,0,0,1,5.33,2.34l1.23-5.5,0,0,1,.08,1.05.91,1.11,6.15c0,.68,0,1.37-.07,2.05l-.38,0-.37-.07-2.87,3.27,0,.1c-1.73-1.33-3.41-2.75-5.24-3.94-.58-.37-1.57-.08-2.38-.1l-2.87-.68-1.88-.67-5.86-.79C136.43,71.07,136.72,69.53,137,68Z"/><path class="cls-7" d="M119,76.84l6,.13,5.27,3.72-.46.53c-1.77-.39-3.52-.86-5.3-1.16-6.37-1-10.36,1.27-11.94,6.65-.89,3.05-.23,4.4,3.21,4,1-.11,2.1.86,3.15,1.33l-12.86,5.12V93h0c4.58-1.52,3.86-5.69,4.57-9.15q3.14-3.18,6.28-6.37Z"/><path class="cls-25" d="M90.25,74.24l7.28,1.1,1.33,2.71c.23.73.45,1.46.68,2.2s.31,1.18.47,1.77L100,86a.71.71,0,0,0-.23.8l-.87,1L89.25,86l-2.39-2.9.2-5a.66.66,0,0,0,.29-.55l2.94-3.07Zm3.56,12.63c2.15-2.13,4.11-3.77,4-4A67.38,67.38,0,0,0,92.84,77c-1.24,1.13-3.7,2.72-3.48,3.32C90.11,82.39,91.81,84.11,93.81,86.87Z"/><path class="cls-7" d="M135.48,84.58l-.57,7.29c-1.88,2.6-3.6,5.34-5.69,7.76a51.54,51.54,0,0,1-5.4,4.8L121.3,98q1.36,1.8,2.72,3.62c7.19-3.91,9.92-13.56,5.77-20.41l.46-.53Z"/><path class="cls-12" d="M101,96,88,95l1-6.12,9.8,1,4.23.54Z"/><path class="cls-25" d="M143.94,73.75l2.87.68.33,3.6-6.2,4.17c-.92-2-1.85-4-2.77-6a1.31,1.31,0,0,0,.84-.46l2.85-1.11Z"/><path class="cls-11" d="M123.81,104.43a50.66,50.66,0,0,0,5.41-4.8c2.09-2.42,3.81-5.16,5.69-7.76-1.57,6-3.61,11.61-9.88,14.36l-1.28-.3C123.78,105.43,123.79,104.93,123.81,104.43Z"/><path class="cls-9" d="M132.51,68.63c-.27.42-.54.84-.82,1.26l-4.6-1.36,3-5.72.86-.5,1.14.62a2.36,2.36,0,0,0,0,1Z"/><path class="cls-26" d="M130.05,62.81l-3,5.72,4.6,1.36-1.59,2.42-3.24.2c-.61-2.5-1.23-5-1.84-7.5l1.11-2.88a1.62,1.62,0,0,0,.84-.53l3,.34A.72.72,0,0,1,130.05,62.81Z"/><path class="cls-23" d="M101.92,75,109,62l0,1c.31,5.16-1.47,9.28-6,12Z"/><path class="cls-11" d="M98.85,89.91l-9.8-1-.9-.94c-.1-.66-.19-1.32-.29-2h1.39l9.6,1.85Z"/><path class="cls-23" d="M160.16,119.91l3.93,2-7,2.2L156,123h0C155.68,119.74,158.05,120,160.16,119.91Z"/><path class="cls-11" d="M135.48,84.58l-5.23-3.89L125,77C129.7,76.6,135,80.42,135.48,84.58Z"/><path class="cls-11" d="M110.61,83.88c-.71,3.46,0,7.63-4.57,9.15Z"/><path class="cls-12" d="M132.05,63.92a2.36,2.36,0,0,1,0-1l1-2c3.09-.38,4.37,1,3.93,4l-2.81,0Z"/><path class="cls-11" d="M140.94,82.2l6.2-4.17a32.16,32.16,0,0,1-2.93,5.16C143.94,83.52,142.07,82.57,140.94,82.2Z"/><path class="cls-12" d="M127,61.6a1.62,1.62,0,0,1-.84.53l-2.09,1L123,62c-.21-2.88,1.14-4.2,4-4,0,.33,0,.66,0,1Z"/><path class="cls-12" d="M121,68c-1.78-2.8-1.87-5,2-6Z"/><path class="cls-12" d="M116,74l5-3Z"/><path class="cls-11" d="M106,93v4.14l-1.11,1L103.87,98Z"/><path class="cls-26" d="M132.05,63.92l2.14,1-1.68,3.68C132.36,67.06,132.2,65.49,132.05,63.92Z"/><path class="cls-11" d="M126.86,72.51l3.24-.2Z"/><path class="cls-11" d="M124,63.1l2.09-1L125,65Z"/><path class="cls-11" d="M98.86,78.05l-1.33-2.71,2.35.82Z"/><path class="cls-11" d="M119,76.84l-2.08.67Z"/><path class="cls-11" d="M143.94,73.75l-2.08.86c.06-.51.13-1,.19-1.53Z"/><path class="cls-11" d="M100,82c-.16-.59-.31-1.18-.47-1.77C99.69,80.84,99.85,81.43,100,82Z"/><path class="cls-11" d="M139,75.72a1.31,1.31,0,0,1-.84.46Z"/><path class="cls-11" d="M99.72,86.82A.71.71,0,0,1,100,86C99.87,86.29,99.8,86.56,99.72,86.82Z"/><path class="cls-12" d="M183.23,47.47,174.75,57c-.25.34-.49.68-.74,1h0l-5.46-.41c.68-2.84,1-5.07,1.75-7.19,1.23-3.7-1-12.65-3.72-14.6-.1-.5-.2-1-.29-1.51.24-1.11.47-2.22.71-3.33l5-3C178.66,32.82,186.25,37.1,183.23,47.47Zm-9.38,4c3.09-2.29,6.15-4,7.05-7.78s-.77-6.82-3.82-9c-1-.73-2.56-.79-3.86-1.15a14.38,14.38,0,0,0-.65,3.55C172.86,41.45,173.33,45.8,173.85,51.43Z"/><path class="cls-11" d="M157,66.92,156,66l-1-.08,0,0a5,5,0,0,0-.77-.06l-6.12-3-2.95-1.06L142,58l-1-1.08,0-.06a2.51,2.51,0,0,0,0-.82c-.24-1.49-.49-3-.73-4.46a24.24,24.24,0,0,1,3.1,3.66,10.11,10.11,0,0,0,10.68,5.44l1.69,1.46c4.2,5.11,6.11,5.27,9.29.77l5.12.25L158.07,75.12c0-.68.05-1.37.07-2.05C161.1,70.42,161.43,68.24,157,66.92Z"/><path class="cls-10" d="M170.19,63.19l-5.12-.25c.05-2.14,0-4.3.17-6.43.18-1.87,0-4.59,1.11-5.38,2.89-2.08,2.64-4.24,1.55-6.89-.53-1.42-1.07-2.85-1.6-4.28.09-1.38.19-2.76.29-4.14,2.76,2,4.95,10.9,3.72,14.6-.71,2.12-1.07,4.35-1.75,7.19L174,58Z"/><path class="cls-27" d="M183.23,47.47c3-10.37-4.57-14.65-11.19-19.49.09-.82.19-1.63.28-2.45l4.74,2.33,1.47.54L182,30.07c.66,1,1.33,2,2,3l1.54,2.47L188,39.07l.28,1.51L188,43.9Z"/><path class="cls-14" d="M188.26,40.58c-.09-.5-.19-1-.28-1.51.28-2.06,2.1-4.72-2-5.08,0-.31,0-.62,0-.92q-.48-3-1-6.07l4,1,1,1c.66,3,1.33,6,2,9-.31,0-.61,0-.92,0-.35.33-.69.67-1,1,0,.56-.07,1.11-.11,1.67Z"/><path class="cls-5" d="M192,38c-.66-3-1.33-6-2-9l7,3.06Z"/><path class="cls-10" d="M154.45,78.37l2.87-3.27Z"/><path class="cls-11" d="M188.26,40.58l1.68.15L188,43.9C188.09,42.79,188.18,41.69,188.26,40.58Z"/><path class="cls-5" d="M190.05,39.06c.34-.34.68-.68,1-1Z"/><path class="cls-10" d="M174,58c.25-.33.49-.67.74-1C174.5,57.35,174.26,57.69,174,58Z"/><path class="cls-15" d="M185,27q.5,3,1,6.07l-2,0c-.67-1-1.34-2-2-3l-3.42-1.67-1.47-.54-5.26-4.71-1.71-.34A8,8,0,0,0,170,22l-6.59-1.43-4.73-4.06c-.9-3.91-2.69-5-5.79-1.8l.18.44-8.1-.47L140,13l-2-.51L132,8c1.38-.26,3.28-1.24,4.06-.67,7.31,5.27,16,2.9,23.95,4.69h1c1.92,1.7,3.62,3.81,5.81,5,2.66,1.45,5.95,1.77,8.59,3.24,3.4,1.9,6.42,4.47,9.6,6.75Z"/><path class="cls-14" d="M185,27c-3.18-2.28-6.2-4.85-9.6-6.75-2.64-1.47-5.93-1.79-8.59-3.24-2.19-1.2-3.89-3.31-5.81-5C171.15,13.56,179.78,17.56,185,27Z"/><path class="cls-22" d="M157.09,124.07l7-2.2L167,122l3.16,1.91,2.84.1,3,2c1.33,1,2.53,2.46,4,2.84a58.78,58.78,0,0,0,8.22,1l1.77.1,2,2c0,2.34,0,4.67,0,7-.67,1-1.35,2-2,3l-7,3-1.88-1L180,140l-2-3-1-1c-3-1-5.94-2.61-9-2.84-3.95-.31-7-.86-8.17-5.28-.22-.84-1.81-1.31-2.78-2,0-.29,0-.59-.07-.88S157.07,124.39,157.09,124.07Z"/><path class="cls-21" d="M192,139c0-2.33,0-4.66,0-7l18,2,3,7c0,1,0,2,0,3,0,.31,0,.62,0,.93-.66,1.12-1.39,2.2-2,3.36-.74,1.53-1.35,3.12-2,4.69l-4.75,1.45c-.42-1.84-.91-3.67-1.21-5.53a7.53,7.53,0,0,1,.29-2.42c.94-5.13,0-6.33-5.33-6.51l-3.72-.85Z"/><path class="cls-18" d="M213,144c0-1,0-2,0-3l1-4,2.73-.09c.08.68.16,1.37.25,2.05l-.63,2.11L216,144v0l-1.3,1.27a2.81,2.81,0,0,1-.75-.22Z"/><path class="cls-12" d="M214,137l-1,4-3-7Z"/><path class="cls-23" d="M176,126l-3-2,4.09.86Z"/><path class="cls-23" d="M170.13,124,167,122Z"/><path class="cls-14" d="M21,161l3,8H21l-1-1-1-1h0l-2-8h0l2.07,0Z"/><path class="cls-5" d="M17,159l2,8c-1.23-.58-3.17-.85-3.57-1.78-1.7-4-2.95-8.14-4.36-12.24Z"/><path class="cls-5" d="M28,175l7,12c-3.8-3.23-8.37-5.94-8-11.95Z"/><path class="cls-5" d="M45,197c3.77,2.51,8.54,3.9,10,9l-10-7C45,198.32,45,197.67,45,197Z"/><path class="cls-5" d="M42,191c0,1.32,0,2.63,0,3.95L36,188Z"/><path class="cls-14" d="M28,175,27,175l-2-3Z"/><path class="cls-5" d="M21,169h3c0,1,0,2,0,3Z"/><path class="cls-5" d="M8,147l1,2Z"/><path class="cls-5" d="M19,167l1,1Z"/><path class="cls-5" d="M59,208l4,3Z"/><path class="cls-5" d="M70,214c.68.65,1.36,1.3,2.05,1.94Z"/><path class="cls-5" d="M87,219l4,.93Z"/><path class="cls-15" d="M10,100c-.6-1.11-1.94-2.42-1.69-3.28,3-10.27,6.63-20.24,13.82-28.55A11.25,11.25,0,0,0,24.73,62c.35-5.78,3.55-9.33,8.13-12.1a3,3,0,0,0,.81-.55c4.6-5.71,9-11.58,13.83-17.08,2.22-2.52,5.24-4.38,8-6.42,3.05-2.26,6.54-4,9.2-6.68S70,16.47,73,18.06c0,.62-.05,1.24-.08,1.87l.17.45-4.06-.32-2.92,2.2-6,4.84L59,28l-4.64,3.26c-3,.16-5.45.95-5.41,4.65L46,39,44,41.06l0,0L42.2,43.32a.85.85,0,0,1-.35.63l-1.59,2.44L33.32,54.2,31,56l-1.1,1L29,59l-5,14L23,75l-1.12,1.93L20,80h0c-1.26.61-3.21.9-3.66,1.89-2.14,4.59-3.92,9.36-5.61,14.14-.14.4,1.34,1.37,2.06,2.07l-.21,1.9Z"/><path class="cls-15" d="M98,8,101,9l-4.1,2.87.18.42-2.75,1.3a.36.36,0,0,0-.44.15l-2,.77-5.48,1.78L82,18.19l-3,.88-4-1c.89-.79,1.65-1.89,2.69-2.32C84.08,13.05,90.56,10.54,97,8,97.34,8,97.66,8,98,8Z"/><path class="cls-28" d="M10,100l2.49-.06c.15.67.29,1.34.44,2-.27,1.7-.54,3.41-.8,5.11L12,110a1.47,1.47,0,0,0-.05.95v8.9l-.05,1.35.06,3.81L10,123c-.2-6.19-.45-12.39-.56-18.59A27.56,27.56,0,0,1,10,100Z"/><path class="cls-16" d="M10,123c.64.68,1.29,1.35,1.94,2l.4-.14L13,127l.13,1.44h-.38l.38-.05c.48,1.76,1,3.51,1.42,5.28,1.14,4.78,2.24,9.58,3.35,14.37L15,148c-1.56-6.63-3.17-13.24-4.64-19.89A35.24,35.24,0,0,1,10,123Z"/><path class="cls-5" d="M28,48c1.76-3.73.55-9.53,7-10Z"/><path class="cls-28" d="M75,18l4,1L73,19.93c0-.63.05-1.25.08-1.87Z"/><path class="cls-15" d="M19.07,159,17,159c0-1.67,0-3.33,0-5l1.89,0c.09.59.17,1.18.26,1.77Z"/><path class="cls-16" d="M18.88,154,17,154c-.32-1.33-.65-2.66-1-4h2l1,1,.34,1.91Z"/><path class="cls-15" d="M18,150H16L15,148l2.92.08c.16-.06.31-.12.48-.17Z"/><path class="cls-5" d="M37,35l3-3Z"/><path class="cls-5" d="M35,38l2-3Z"/><path class="cls-5" d="M65,15l2-2Z"/><path class="cls-14" d="M220,135c4.14,1,5.7,3.07,4.13,7.52-2.84,8-4.11,16.65-10.23,23.23-.67.73-.62,2.14-.91,3.23v0l-1,1-2,2-3-1c2.65-4.59,5.48-9.09,7.9-13.79a39.05,39.05,0,0,0,3.58-9.45C219.37,143.59,219.54,139.27,220,135Z"/><path class="cls-14" d="M202,171l4,0-1,5h0c-2.49,1.23-4.91,2.5-3.05,6,0,.34,0,.67,0,1s0,.63,0,.94q-.48,0-1,.06c-4.36,1-5,4.28-5,8h0l-7,3c.82-7.34,6.88-11.66,10.1-17.62C200.19,175.33,201.05,173.15,202,171Z"/><path class="cls-5" d="M189,195l7-3c-2.37,2.93-4.3,6.52-9,6,0-.68,0-1.36,0-2Z"/><path class="cls-5" d="M196,192c0-3.7.66-7,5-8Z"/><path class="cls-5" d="M205,176l1-5h1l3,1Z"/><path class="cls-5" d="M202,182c-1.86-3.46.56-4.73,3.05-6Z"/><path class="cls-5" d="M184,200l2-2Z"/><path class="cls-5" d="M212,170l1-1Z"/><path class="cls-5" d="M202,184c0-.31,0-.63,0-.94a4.74,4.74,0,0,1,.38.7A2.37,2.37,0,0,1,202,184Z"/><path class="cls-27" d="M105,216.27l-8.07-2-2.48-.61-5.53-2.39L87,210.74c0-.87,0-1.75,0-2.62,0-5,.37-10-.32-14.94-.23-1.68-3.22-2.93-4.86-4.47-.42-.4-.51-1.15-.75-1.74l3,0c.85.33,1.8,1.11,2.54.94,3.49-.82,6.93-1.9,10.39-2.88.14,2.82.29,5.64.43,8.45a14.52,14.52,0,0,0-2.19-1c-1.41-.39-2.86-.63-4.29-.94l-1,5.6c.44,1.43.87,2.85,1.3,4.28s.22,3.33,1.11,4.16,3.38.78,3.92.12c.77-1,.4-2.83.52-4.32l.11-3.58.62-.81,3.5,0c0,1,0,2,0,3a61.63,61.63,0,0,1-2,6.79c-1.78,4.23-.21,6.38,4,7.21Z"/><path class="cls-18" d="M76,209.12l-7.07-5.07-2-1.8-2.51-1.51L62,199l-3.49-1.37c-.85-.48-1.7-1-2.54-1.45l-3.53-2.4L51.89,191c9.19,5.53,18.4,11,27.54,16.66.49.3.44,1.49.64,2.26Z"/><path class="cls-23" d="M29.31,169.47c-.36-.85-.72-1.69-1.07-2.53.07-.34.15-.68.22-1L27,163a2.75,2.75,0,0,0-.95,0l-.74-1.11c-.17-.81-.34-1.62-.52-2.44L28,159h0l3,4h0l1,2,1,2,3,8-2.37-.86L31.2,171.9Z"/><path class="cls-23" d="M44,187.19l-1.06-1-2.8-2.27-.88-.06c-.39-1-.78-2-1.18-3-.66-1.63-1.33-3.27-2-4.91L39,176h0l2,2,1,1c2,2,4,3.92,5.86,6a10.65,10.65,0,0,1,1.27,2.91l-1.06-.27L46,186.92Z"/><path class="cls-16" d="M44,187.19l2-.27,2.06.75,1.06.27L51.89,191l.54,2.79Z"/><path class="cls-16" d="M76,209.12l4.1.82,1.76.39,4.23,1C82.66,213.84,79.19,213.07,76,209.12Z"/><path class="cls-16" d="M24.75,159.43c.18.82.35,1.63.52,2.44L21,161l-1.94-2c0-1.07.05-2.13.07-3.19l1.83.28,2.12,1.77Z"/><path class="cls-18" d="M36.06,176c.66,1.64,1.33,3.28,2,4.91L37,181l-.82-1.06-2.08-3.09c-.16-.88-.33-1.76-.49-2.64L36,175A7.46,7.46,0,0,0,36.06,176Z"/><path class="cls-18" d="M86.06,211.37l-4.23-1L87,208.12c0,.87,0,1.75,0,2.62Z"/><path class="cls-16" d="M88.94,211.31l5.53,2.39Z"/><path class="cls-16" d="M26,163a2.75,2.75,0,0,1,.95,0l1.5,2.9c-.07.34-.15.68-.22,1Q27.12,165,26,163Z"/><path class="cls-18" d="M40.11,183.94l2.8,2.27Z"/><path class="cls-16" d="M34.12,176.8l2.08,3.09Z"/><path class="cls-16" d="M37,181l1-.07c.4,1,.79,2,1.18,3C38.5,182.9,37.76,181.92,37,181Z"/><path class="cls-16" d="M62,199l2.44,1.71Z"/><path class="cls-16" d="M29.31,169.47l1.89,2.43Z"/><path class="cls-16" d="M56,196.21c.84.49,1.69,1,2.54,1.45Z"/><path class="cls-16" d="M66.94,202.25l2,1.8Z"/><path class="cls-10" d="M184.89,188.65l-5,3.2-3.08,2v0l-12.77,7.24,0,0L162,203l-1,1-14.22,6.89c.51-1.19.75-2.65,1.59-3.51A33.34,33.34,0,0,1,153,204q8-5.49,16-11c6.67-1.39,11.49-5.3,15-11,2.59-2.6,5.43-5,7.53-8,.43-.6-2.05-3.17-3-4.93-.24-.43.15-1.21.25-1.82l1.22-.22,1.23,1.56,1.64-2,1.72-.91c3.65-.18,5.23-2.32,5.46-5.74l1-1.05c1.1,3.3,3.41,3,5.95,2l.06,0-5.13,7.79-.07.1L199,171h0l-3,2.94-4.31,6.1-.69.85-1.08,2.92-3,3.1h0Z"/><path class="cls-16" d="M164.08,201.05l12.77-7.24Z"/><path class="cls-16" d="M146.79,210.91,161,204c-.43,1-.61,2.44-1.34,2.78-4.08,1.95-8.3,3.62-12.47,5.38-.13-.11-.25-.23-.37-.35A3.15,3.15,0,0,0,146.79,210.91Z"/><path class="cls-16" d="M147.2,212.18c-1.35,1-2.71,2-4,3l-.4-.4a4.58,4.58,0,0,0,0-.83l1.82-1.76,2.24-.34C147,212,147.07,212.07,147.2,212.18Z"/><path class="cls-16" d="M186.87,186.88l3-3.1Z"/><path class="cls-18" d="M199,171l2.85-2.05c-.16.49-.31,1-.47,1.45Z"/><path class="cls-18" d="M196,173.91l3-2.94Z"/><path class="cls-16" d="M176.85,193.84l3.08-2Z"/><path class="cls-16" d="M184.89,188.65l2-1.78c-.19.87-.37,1.75-.55,2.62Z"/><path class="cls-16" d="M162,203l2.07-1.91Z"/><path class="cls-18" d="M191,180.86l.69-.85Z"/><path class="cls-16" d="M123,215.92l-11,2.22c.19-.58.37-1.16.55-1.74l2.51-1.18,3-1.13,3,.07.46.17H122l.25.14.28,0Z"/><path class="cls-27" d="M112.57,216.4c-.18.58-.36,1.16-.55,1.74l-5-.16-.63-1.52Z"/><path class="cls-27" d="M123,215.92l-.54-1.49L126,214l2,0c0,.33,0,.65,0,1h0l-1.1,1.27a4.91,4.91,0,0,1-.93.25Z"/><path class="cls-12" d="M146.83,211.83l-2.24.34-1.82,1.76a4.58,4.58,0,0,1,0,.83l-2.63.52c-.38-.77-.75-1.54-1.13-2.3-1.33-1.66-2.67-3.31-4-5l3-1.88,3.18-2.07c.55-.84,1.11-1.68,1.67-2.52l1-1.65,2.08,2c0,1,0,2.06,0,3.09l-1.52,1.2.32.32L146,205l7-1a33.34,33.34,0,0,0-4.62,3.4c-.84.86-1.08,2.32-1.59,3.51A3.15,3.15,0,0,1,146.83,211.83Z"/><path class="cls-10" d="M139,213c.38.76.75,1.53,1.13,2.3l-2.56,1L135,217.76l-4.94.12c0-.95,0-1.9-.05-2.85l5-1Z"/><path class="cls-27" d="M130,215c0,.95,0,1.9.05,2.85l-2.16-1.29c0-.53.09-1.06.13-1.59h0Z"/><path class="cls-27" d="M135,217.76l2.59-1.48Z"/><path class="cls-12" d="M128,215c0,.53-.08,1.06-.13,1.59l-1-.33Z"/><path class="cls-23" d="M112.57,216.4l-6.19.06-1.36-.19L103,214l13-1-1,2.2Z"/><path class="cls-10" d="M209,153c.67-1.57,1.28-3.16,2-4.69.57-1.16,1.3-2.24,2-3.36.31,0,.62,0,.93,0a2.81,2.81,0,0,0,.75.22q-1.22,4.9-2.45,9.81l-.33,1c-.14.34-.27.69-.4,1a1.39,1.39,0,0,0-.55.67c-.1.44-.2.87-.31,1.31l-.66.9-.06,0L207,161l-.06,0C207.65,158.32,208.32,155.66,209,153Z"/><path class="cls-18" d="M207,161l2.87-1.08q-4,4.44-8,8.87Z"/><path class="cls-28" d="M216.37,141.11,217,139Z"/><path class="cls-18" d="M210,159.91l.66-.9Z"/><path class="cls-28" d="M216,144l.4.43c-.09,0-.22,0-.26-.09a1.4,1.4,0,0,1-.13-.36Z"/><path class="cls-18" d="M210.93,157.7a1.39,1.39,0,0,1,.55-.67C211.29,157.25,211.11,157.47,210.93,157.7Z"/><path class="cls-18" d="M211.88,156l.33-1Z"/><path class="cls-28" d="M116,10l1.93.05,8.54.42-.72,2.22.1.11-4.9.63-2,.11L111,11a5.66,5.66,0,0,1,0-.92Z"/><path class="cls-15" d="M116,10l-5,.07-3.06.51L105,10,105,9C108.14,5.77,112.77,6.2,116,10Z"/><path class="cls-15" d="M126.49,10.48,118,10.06l10.08-2L128,10Z"/><path class="cls-28" d="M128,10l0-1.93L132,8l6,4.5-1,.35a.85.85,0,0,0-.58-.15l-4.52-2.51h-1.86Z"/><path class="cls-28" d="M105,9c0,.36,0,.71,0,1.06l-8,1.87L101,9Z"/><path class="cls-29" d="M120.82,105q-.37,4-.73,7.9c-3,4.5-1,9.38-1.09,14.1l-6,3-5.26-8.2L102,125c-1-1-2-2.08-3-3.11a61.31,61.31,0,0,1-4.74-4c-2.5-2.57-4.82-5.3-7.22-8l-3.4-3.76L79.84,102c8.63-1.41,17,0,25.43,1.89.61.65,1.21,1.31,1.81,2-.29,6.08,4.26,6,9.18,6.88l-.35-6.87V103L119,98Z"/><path class="cls-30" d="M120.82,105,119,98c-1.63-3.39-3.18-1.06-3.72.44-.46,1.29.38,3,.64,4.59v2.89a7,7,0,0,1-8.83,0c-.6-.66-1.2-1.32-1.81-2-.11-1.9-.23-3.8-.34-5.7l1.11-1,12.87-5.12,0,0L120.83,96,121.3,98l2.52,6.42c0,.5,0,1-.07,1.5Z"/><path class="cls-31" d="M87,109.9c2.4,2.66,4.72,5.39,7.22,8a61.31,61.31,0,0,0,4.74,4c-6.62-.57-13.26-1.08-17.19-7.67.35-1.27.69-2.53,1.11-4.06Z"/><path class="cls-24" d="M71,117l3-1.09,2,1.84c-5.82,1.59-4.24,5.84-3,9.45.64,1.83,2.59,4.23,4.17,4.41s3.19-2.33,4.8-3.65a.69.69,0,0,0,.36-.57L85.06,125l1.86,0c0,1,0,2,0,3,0,.29,0,.57,0,.86-9.36,6.64-11,6.81-15.9,2.1l-1-2Z"/><path class="cls-19" d="M87,109.9l-4.12.28c-.42,1.53-.76,2.79-1.11,4.06-1.89-1.54-4.14-2.81-5.57-4.7-1.19-1.57-1.44-3.86-2.1-5.83L79.84,102l3.76,4.11Z"/><path class="cls-17" d="M113,130l6-3,2.79,1,.17,1,0,2.95c-1.72.15-4.23-.36-5,.57-3,3.59-5.4,7.64-8,11.52l-3.86-.09-.88-2c3.16.34,2.82-1.89,2.83-3.86l3-2.06,1-2C111.73,132.74,112.39,131.39,113,130Z"/><path class="cls-31" d="M110,136.05l-3,2.06-1.06-2.06a42.58,42.58,0,0,1,.74-4.38c.89-3.28-.37-4.76-3.67-4.72l-1.1-.86c0-.36,0-.71,0-1.07l5.83-3.19L113,130c-.65,1.36-1.31,2.71-2,4.07l-.81-2.64a10.74,10.74,0,0,0-1.83,1A33.61,33.61,0,0,0,110,136.05Z"/><path class="cls-25" d="M82,128c-1.61,1.32-3.35,3.81-4.8,3.65s-3.53-2.58-4.17-4.41c-1.26-3.61-2.84-7.86,3-9.45,5,0,8.69,1.48,9,7.22l-2.68,2.42a11.94,11.94,0,0,0-.36-2.9c-.58-1.53-1.08-3.55-2.26-4.23s-3.9-.39-4.47.46a7.62,7.62,0,0,0-.7,5.35C75.72,131.35,79.32,128.14,82,128Z"/><path class="cls-12" d="M98.1,138.94l2.94,6c-5.17,6.13-10.17,6.83-14.06,2,.74-.24,1.52-.79,2.19-.68,7.76,1.21,8.84.35,8.81-7.24Z"/><path class="cls-10" d="M87,146.93c3.89,4.86,8.89,4.16,14.06-2l2,1.2c0,.68,0,1.37,0,2.05L102,150l-3,1-5.86,1.1-2,2h0l-2.06,0-1.94-2-1.45-2.18-.77-1.67c.09-.4.17-.81.26-1.22a5.21,5.21,0,0,0,1-.1C86.38,146.89,86.68,146.92,87,146.93Z"/><path class="cls-19" d="M101.91,126.09l1.1.86c-1.16,3.72-2.05,7.35,2.93,9.1l1.06,2.06c0,2,.33,4.2-2.83,3.86C100.92,137,98.31,132,101.91,126.09Z"/><path class="cls-21" d="M86.92,128.86c0-.29,0-.57,0-.86l8-1h0l1.93,3c0,1,0,2,.08,3H96c-3-.76-5.57-4.43-9-1Z"/><path class="cls-11" d="M103.11,148.21c0-.68,0-1.37,0-2.05l2-2.18,3.86.09,3,2.06-.3,1.15-6.71,1Z"/><path class="cls-12" d="M95,127l-8,1c0-1,0-2,0-3Z"/><path class="cls-21" d="M98,135l.15,3.93L98,139c-.67-1.34-1.33-2.67-2-4Z"/><path class="cls-12" d="M96.94,130,95,127C95.65,128,96.29,129,96.94,130Z"/><path class="cls-12" d="M98,135H96c0-.66,0-1.33,0-2h1Z"/><path class="cls-10" d="M109,61c0-.37,0-.73,0-1.1l2.64-2.37L114,56l1.73-1.5,1.39-1.42,10.81-4.22L128,49,128,52l-2,1-1,0-8,5-2,1Z"/><path class="cls-12" d="M117,58l8-5C123.05,55.77,121.08,58.56,117,58Z"/><path class="cls-12" d="M109,61l6-2c0,4.32-3.2,3.84-6,4l0-1C109,61.64,109,61.33,109,61Z"/><path class="cls-10" d="M140.31,51.61c.24,1.49.49,3,.73,4.46L139,56l-5-7-3,0-3,0-.15-.19q1.9-2.6,3.8-5.21l.57-1.54c2.55-1.42,2.53-2.82,0-4.19l-.51-1.56.24-2.29,5.49,7.53L144,33q-1.31,4.78-2.63,9.55L139.91,45l-1.08,2C139.32,48.51,139.82,50.06,140.31,51.61Z"/><path class="cls-12" d="M134,49l5,7Z"/><path class="cls-10" d="M127,61.6,127,59h3l2,1,1,1-1,2-1.14-.62a1.75,1.75,0,0,1-.14-.51,3.26,3.26,0,0,0-.84.22l0-.08Z"/><path class="cls-12" d="M142,58l3.05,3.81c-4.15.63-5.43-.93-4.06-5l0,.06Z"/><path class="cls-10" d="M148,62.9l6.12,3C151.71,65.74,148.48,67.14,148,62.9Z"/><path class="cls-12" d="M128,49l3,0-3,3Z"/><path class="cls-12" d="M132,60l-2-1Z"/><path class="cls-22" d="M84,42l-4,1c-2.9-.26-4.22,1.1-4,4l-7,1-1-2c-1.78-4.58-5.86-3.11-8.93-2.78-1.78.19-4.45,2.49-4.72,4.16a24.81,24.81,0,0,0,.55,10.88c.89,2.92.3,3.84-2,5.48-1.82,1.31-2.65,4-3.92,6.07L47,70l-1,3,0,2c-1.46.73-2.9,1.48-4.37,2.17-5,2.36-11.85.09-12.62-4.16h0c.89-.84,2.43-1.57,2.59-2.53,1.16-7.28,6.19-12,10.6-17.3C46.76,47.7,50.76,41.75,55,36l1-1c2-.81,4-1.48,5.93-2.46S65.73,29.8,67.83,29c8.06-3.14,16.26-5.92,24.33-9,8.4-3.24,16.77-5.8,25.74-2.18a7.46,7.46,0,0,0,2.45,0c4.5,0,9,.08,13.5,0A13.89,13.89,0,0,0,137,17l2,0c.29,3.92,2.94,4.26,6,4h6l1,3-1,1-3,0a91.43,91.43,0,0,0-7.22,7.39c-1.82,2.31-2.59,4.3-5.17.42-2-3-5-6.67-8.16-7.51-11.17-3-21.61-.27-30.95,6.62-2.43,1.8-5,3.36-7.54,5-2.13-.08-4.29-.19-4,3Z"/><path class="cls-12" d="M89,37c2.52-1.67,5.11-3.23,7.54-5,9.34-6.89,19.78-9.57,30.95-6.62,3.2.84,6.13,4.47,8.16,7.51,2.58,3.88,3.35,1.89,5.17-.42A91.43,91.43,0,0,1,148,25.05c0,1,0,2.05,0,3.08l-.15,1.67-1.5,1.42L144.05,33l-6.61,8.62L132,34.06v0l-.47-1.2-.94.83-1.48-1.72c-.32-.66-.65-1.32-1-2a3.13,3.13,0,0,1-.15-.81l-2-1L124,27.81C120.8,25,110.7,26.24,107,30c-7.79,1.29-12.4,7.32-17.9,12H84l1-2Z"/><path class="cls-21" d="M69,48l7-1c1,2.33,2,4.67,3,7l1,3c.33.66.65,1.33,1,2l1,3c.07,5-3.08,2-5,2l-8.16-5.46C71.51,54.79,71.86,51.34,69,48Z"/><path class="cls-17" d="M106.1,59.8c-.69,2-1.51,3.9-2,5.91C102.63,71,98.22,72.93,93.64,70A24,24,0,0,1,83,54.13h4c-.31,4.27,4.81,11,9,11.86,5,1.75,5,1.75,5.11-6l3.78-1.07L106,59A3.94,3.94,0,0,0,106.1,59.8Z"/><path class="cls-31" d="M96,66c-4.22-.87-9.34-7.59-9-11.86l-1-7.75,2.72-1.45a1.79,1.79,0,0,0,.8.12l6.22,4.28,1.28.71,1.09,1.87-.23.24c-6.56.13,1.86,4.22-2.23,5.27l-3-1.11-1.41,1Z"/><path class="cls-10" d="M87.35,77.46a.66.66,0,0,1-.29.55l-1.92,4.91c-2.58.27-5.29.38-5.13,4.09h0l-1,1c0,.33,0,.66,0,1l-1.07,0-.51-5.54a.71.71,0,0,1,.29-.63l1.84-2.35c.36-3,.72-6,1.09-9L81.56,70C83,74.57,86,73.13,89,72l1.26,2.25,0,.15Z"/><path class="cls-12" d="M89,72c-3,1.14-6,2.58-7.43-2l-.91,1.54L78.8,69.3c0-.41,0-.83.08-1.24l-1.16.48-.19-.2c-.18-.77-.35-1.54-.52-2.31V64c1.92-.06,5.07,3,5-2Q85.51,67,89,72Z"/><path class="cls-11" d="M89.47,45.06a1.79,1.79,0,0,1-.8-.12c.12-1,.25-2,.38-2.94,5.5-4.72,10.11-10.75,17.9-12L108,31q-3.54,2.48-7.06,5l-2.82,3.33-7.68,4.53Z"/><path class="cls-19" d="M86,46.39l1,7.75H83l-2.82-9.67Z"/><path class="cls-12" d="M79,54c-1-2.33-2-4.67-3-7-.19-2.88,1.13-4.24,4-4Q79.51,48.51,79,54Z"/><path class="cls-11" d="M106.1,59.8A3.94,3.94,0,0,1,106,59l5.62-1.49L109,59.91Z"/><path class="cls-12" d="M81,59c-.33-.67-.65-1.34-1-2C80.34,57.66,80.66,58.33,81,59Z"/><path class="cls-24" d="M73.06,91.06c-2.54,3.23-5,6.48-7.65,9.66a20.52,20.52,0,0,1-2.5,2.22l-6.84-3c-.91-2.11-1.51-4.44-2.82-6.27s-3.2-2.87-4.85-4.27C48.26,91.22,48,93,48,94.84a6.88,6.88,0,0,0,.89,2.2L49,100q-1,5-2,10l0,3c-2.19,4.61-2.51,9,1.78,12.66l-6.36.5-2.46-4.65c4-2.42,3.45-6.5,3.82-10.29.21-2,0-4.8,1.21-5.94,2.36-2.25,2.07-4,1-6.57a19.51,19.51,0,0,1-1.2-6.21c-.35-4.34-1.53-7.84-6.63-8.45-9.06-1.09-12,.12-13.92,5.79-.85,2.48-1.36,5.42-3,7.2-3.39,3.59-3.38,6.85-.7,10.56L18,108v0c-.39-3-1.69-6.36-.95-9.11,1-3.58,3.44-6.8,5.48-10,1.67-2.66,3.65-5.14,5.49-7.7l11.9,0,6.5,2.66c.53-2,1.13-3.91,1.56-5.9a16.34,16.34,0,0,0,.11-3c.66,6.54,2.14,12.69,7.67,17.06.4.32.16,1.35.49,1.88,1.34,2.14,2.79,4.2,4.2,6.3,2.2-1.52,4.49-2.93,6.56-4.6.85-.69,1-2.24,1.91-2.84A17.86,17.86,0,0,1,73.06,91.06Z"/><path class="cls-26" d="M73.06,91.06a17.86,17.86,0,0,0-4.12,1.58c-.87.6-1.06,2.15-1.91,2.84-2.07,1.67-4.36,3.08-6.56,4.6-1.41-2.1-2.86-4.16-4.2-6.3-.33-.53-.09-1.56-.49-1.88-5.53-4.37-7-10.52-7.67-17.06.38-1.19.77-2.38,1.15-3.57L67,63l2.07.18.31.21h.39a1,1,0,0,0,.74.27l1.12.7.07.12,5.83,3.89.2.2c.26.24.51.49.76.75h.32l1.85,2.22q-.56,4.47-1.09,9l-1.84,2.34a.68.68,0,0,0-.28.63L76,90Zm-21-11.41-1.17.43c1.31,2.47,2.62,5,4,7.42,1,1.87,2,3.74,3.06,5.56.79,1.34,1.7,3.66,2.57,3.67,1.52,0,3.28-1.17,4.53-2.3,1.94-1.77,3.18-4.56,5.35-5.76,5-2.78,5.25-8.19,7.57-12.41.57-1-.29-3.34-1.15-4.6-3.47-5.1-9.73-6.27-15.1-3.15a26.45,26.45,0,0,1-4.44,2.25C53.06,72.26,51,74.94,52.11,79.65Z"/><path class="cls-21" d="M47,113l0-3c4.2-3.49,5-7.31,2-10,0-1-.06-2-.08-2.94L56.07,100l6.84,3c5.87.21,9.62,4.82,8.72,10.72-.17,1.13-.4,2.25-.6,3.37q-.5,6-1,12c-1-.94-2.86-1.87-2.87-2.82A27.93,27.93,0,0,1,68.27,117c1.36-4,1-8-2.19-9.75-2.89-1.59-7.1-1.33-10.64-1A4.84,4.84,0,0,0,50.83,112c.43,3.66.77,7.33,1.16,11-3.27-.71-5.44-2-4.24-6C48.1,115.82,47.25,114.31,47,113Z"/><path class="cls-21" d="M79,89c0-.33,0-.66,0-1,.33-.33.65-.67,1-1h6l2.16.91.9,1L88,95H78.18C78.42,93.28,78.71,91.14,79,89Z"/><path class="cls-11" d="M76,90l1.44-6.52c.16,1.85.33,3.69.5,5.54Z"/><path class="cls-7" d="M152.06,153.07c1.4-2.56,2.64-5.22,4.24-7.65,1.74-2.65,3.82-5.08,5.75-7.6.76-.19,1.51-.39,2.28-.57,6.43-1.52,12.25.92,13.7,5.75l-.33,1-.82,1.1c-.3-.12-.81-.17-.88-.37-1.88-5.66-6.62-4.63-10.93-4.82s-4.41,3.18-5.59,5.79c-1.34,3-3.09,5.8-4.07,8.88a6,6,0,0,0,.81,5A114.54,114.54,0,0,0,165,168c-4.46-.08-8.26-1-10.17-5.83-.76-1.91-2.54-3.42-3.85-5.11,0-.68.07-1.35.1-2l1-1.95Z"/><path class="cls-7" d="M144.92,125l2.05-2c3.37-.26,7-.52,7.93,3.74.65,3,.33,6.26.44,9.4l-8.3-1v-.16q-1-2.46-2-4.93C145,128.3,145,126.63,144.92,125Z"/><path class="cls-20" d="M112,146.13l-3-2.06c2.63-3.88,5-7.93,8-11.52.77-.93,3.28-.42,5-.57,7.79,5.87,16.39,4.84,25.09,2.92v.16c0,1,0,1.92,0,2.88a59.53,59.53,0,0,1-6.94,0c-6-.64-12.54,2-18.09-2.66-.73-.63-3.49-.24-4,.56a87.12,87.12,0,0,0-5,9.16Z"/><path class="cls-23" d="M113,145a87.12,87.12,0,0,1,5-9.16c.55-.8,3.31-1.19,4-.56,5.55,4.71,12.05,2,18.09,2.66a59.53,59.53,0,0,0,6.94,0l2.95,1c0,.35,0,.69,0,1H131l-6,0-6.17-2.22c-.82,2.29-1.74,4.56-2.4,6.91-.19.66.36,1.54.57,2.32l-3,0Z"/><path class="cls-10" d="M178,143c-1.45-4.83-7.27-7.27-13.7-5.75-.77.18-1.52.38-2.28.57-2.72-2.32-5.22-4.73-4.05-8.83,1.43,3.53,3.59,5.95,7.82,6,3.74.09,7.46.62,11.2,1l1,1,2,3c.36,1.33.72,2.66,1.07,4L180,144Z"/><path class="cls-23" d="M177,136c-3.74-.33-7.46-.86-11.2-1-4.23-.1-6.39-2.52-7.82-6-.31-1-.61-2-.92-3.07,1,.64,2.56,1.11,2.78,2,1.16,4.42,4.22,5,8.17,5.28C171.08,133.38,174,135,177,136Z"/><path class="cls-21" d="M148,140h2l3,3,.1,1.12c0,.29,0,.58,0,.87l-3,3c-.32,0-.65,0-1,0Z"/><path class="cls-10" d="M149,148c.32,0,.65,0,1,0l3,0c-.32,1.7-.63,3.39-.95,5.09v0l-3,0Z"/><path class="cls-12" d="M153,143l-3-3c0-.35,0-.69,0-1l3,1Z"/><path class="cls-12" d="M153,148l-3,0,3-3C153,146,153,147,153,148Z"/><path class="cls-23" d="M153,143v-3c2.14,1.34,3.25,2.69.1,4.14C153.05,143.76,153,143.38,153,143Z"/><path class="cls-10" d="M157.09,124.07c0,.32-.05.65-.08,1l-1-2Z"/><path class="cls-17" d="M144.92,125c0,1.67.09,3.34.14,5q-2,1.38-3.95,2.77c.18-1.44,1.07-3.56.45-4.18-4-4-8.38-7.7-12.62-11.49l-6.87-1.23,0-2.86c6.54.94,12.68,2.42,16.94,8.3C140.26,123,142.91,123.76,144.92,125Z"/><path class="cls-31" d="M122.05,113c0,1,0,1.9,0,2.86-2.44,1.52-3.07,3.71-1,5.62,2.42,2.21,1.56,4.28.69,6.58L119,127c.11-4.72-1.88-9.6,1.09-14.1Z"/><path class="cls-10" d="M157,66.92c4.4,1.32,4.07,3.5,1.11,6.15Z"/><path class="cls-10" d="M155,65.93l1,.08Z"/><path class="cls-32" d="M121.3,98c-.15-.69-.31-1.37-.47-2.05-.62-1.29-1.25-2.58-1.88-3.87l0,0c-1-.47-2.16-1.44-3.15-1.33-3.44.39-4.1-1-3.21-4,1.58-5.38,5.57-7.7,11.94-6.65,1.78.3,3.53.77,5.3,1.16,4.15,6.85,1.42,16.5-5.77,20.41Q122.67,99.82,121.3,98Z"/><path class="cls-32" d="M93.81,86.87c-2-2.76-3.7-4.48-4.45-6.55-.22-.6,2.24-2.19,3.48-3.32a67.38,67.38,0,0,1,4.94,5.9C97.92,83.1,96,84.74,93.81,86.87Z"/><path class="cls-23" d="M86,87H80c-.16-3.71,2.55-3.82,5.13-4.08l1.72.13L89.25,86H87.86Z"/><path class="cls-11" d="M86.86,83.06l-1.72-.13L87.06,78C87,79.7,86.93,81.38,86.86,83.06Z"/><path class="cls-11" d="M87.35,77.46l2.94-3.07Z"/><path class="cls-12" d="M130.77,61.8a1.75,1.75,0,0,0,.14.51l-.86.5a.72.72,0,0,0-.07-.87l0,.08.39-.24Z"/><path class="cls-10" d="M86,87,87.86,86c.1.65.19,1.31.29,2Z"/><path class="cls-25" d="M146.41,31.22l1.5-1.42L151,29l4.89-.17,7.82,1.51a1.12,1.12,0,0,0,.7.63l1.86,3.35.3,1.51c-.1,1.38-.2,2.76-.29,4.14-.24.71-.47,1.42-.7,2.13-.52-.69-1.61-1.53-1.48-2.07.93-3.68-1-6.83-3.75-7.47-3.58-.82-9.81-1.07-11,.84-3.17,5.13-7.93,10.28-6.55,17.32a3.13,3.13,0,0,0,1,1.66c3.38,2.82,6.82,5.57,10.23,8.34a10.11,10.11,0,0,1-10.68-5.44,24.24,24.24,0,0,0-3.1-3.66c-.49-1.55-1-3.1-1.48-4.65l1.08-2,1.5-2.44Q143.9,36.86,146.41,31.22Z"/><path class="cls-22" d="M173.85,51.43c-.52-5.63-1-10-1.28-14.34a14.38,14.38,0,0,1,.65-3.55c1.3.36,2.82.42,3.86,1.15,3,2.14,4.73,5.07,3.82,9S176.94,49.14,173.85,51.43Z"/><path class="cls-23" d="M164.43,31a1.12,1.12,0,0,1-.7-.63c.07-.43.15-.86.22-1.29,2.5-4.4-1.52-2.48-3-3.05q-2.49-2.5-5-5l-3-4,.09-1.88-.18-.44,5.79,1.8,4.73,4.06L170,22a8,8,0,0,1,.1.84L172,25a1.4,1.4,0,0,1,.28.54c-.09.82-.19,1.63-.28,2.45l-5,3Z"/><path class="cls-10" d="M164.43,31,167,31c-.24,1.11-.47,2.22-.71,3.33Z"/><path class="cls-32" d="M154.09,60.71c-3.41-2.77-6.85-5.52-10.23-8.34a3.13,3.13,0,0,1-1-1.66c-1.38-7,3.38-12.19,6.55-17.32,1.18-1.91,7.41-1.66,11-.84,2.78.64,4.68,3.79,3.75,7.47-.13.54,1,1.38,1.48,2.07l.66,1.86c-1.6,6.31-3.2,12.63-4.8,18.91l-5.68-.69Z"/><path class="cls-25" d="M155.78,62.17l5.68.69c1.6-6.28,3.2-12.6,4.8-18.91l1.64.29c1.09,2.65,1.34,4.81-1.55,6.89-1.1.79-.93,3.51-1.11,5.38-.19,2.13-.12,4.29-.17,6.43C161.89,67.44,160,67.28,155.78,62.17Z"/><path class="cls-10" d="M142,58l-1-1.08Z"/><path class="cls-11" d="M167.9,44.24,166.26,44l-.66-1.86c.23-.71.46-1.42.7-2.13C166.83,41.39,167.37,42.82,167.9,44.24Z"/><path class="cls-28" d="M172.32,25.53A1.4,1.4,0,0,0,172,25l-.24-1.85,5.26,4.72Z"/><path class="cls-15" d="M186,34c4.08.36,2.26,3,2,5.08l-2.49-3.57Z"/><path class="cls-28" d="M178.53,28.4,182,30.07Z"/><path class="cls-28" d="M186,34l-.51,1.51L184,33l2,0C186,33.37,186,33.68,186,34Z"/><path class="cls-18" d="M153.06,15.12,153,17l-2,0-6,0h0l0-1.51c0-.28,0-.55-.08-.83Z"/><path class="cls-28" d="M170,22l-6.59-1.43Z"/><path class="cls-28" d="M158.67,16.48l-5.79-1.8C156,11.53,157.77,12.57,158.67,16.48Z"/><path class="cls-28" d="M140,13l5,1.66c0,.28.06.55.08.83L140,14.07Z"/><path class="cls-18" d="M140,13c0,.36,0,.72,0,1.08L137,12.83l1-.35Z"/><path class="cls-18" d="M171.8,23.15,172,25l-1.95-2.18Z"/><path class="cls-23" d="M180,144l1.07-.06,1.89,1c.59,1.26,1.17,2.51,1.75,3.77a34.29,34.29,0,0,1,3.06-1.95c1.42-.71,2.92-1.25,4.38-1.86a.71.71,0,0,1,.3.57L190,150.45l-3.06,1L182,151l0-.05c-.63-1.33-1.27-2.67-1.9-4Z"/><path class="cls-12" d="M192.19,145c-1.46.61-3,1.15-4.38,1.86a34.29,34.29,0,0,0-3.06,1.95c-.58-1.26-1.16-2.51-1.75-3.77l7-3,2.1,1C192.12,143.67,192.15,144.31,192.19,145Z"/><path class="cls-23" d="M192.08,143l-2.1-1c.67-1,1.35-2,2-3l2.28.14Z"/><path class="cls-23" d="M180,140l-2-3Z"/><path class="cls-12" d="M209,153c-.68,2.66-1.35,5.32-2,8-2.54,1-4.85,1.3-5.95-2l-.82-1c0-.63,0-1.26.05-1.89l-.42-9.21v0l.4-.87c.07-.66.13-1.32.19-2l-.46-2-2-2c5.29.18,6.27,1.38,5.33,6.51a7.53,7.53,0,0,0-.29,2.42c.3,1.86.79,3.69,1.21,5.53Z"/><path class="cls-16" d="M200.42,144c-.06.65-.12,1.31-.19,2a1.15,1.15,0,0,0-.4.87v0l-7.34-1.31a.71.71,0,0,0-.3-.57c0-.64-.07-1.28-.11-1.93l2.2-3.88L198,140l2,2C200.12,142.66,200.27,143.34,200.42,144Z"/><path class="cls-12" d="M213.91,145c-.31,0-.62,0-.93,0,0-.31,0-.62,0-.93Z"/><path class="cls-10" d="M28,81.1c-1.84,2.56-3.82,5-5.49,7.7-2,3.25-4.51,6.47-5.48,10-.74,2.75.56,6.06.95,9.11l-4.08-1-1-5c-.15-.67-.29-1.34-.44-2l.21-1.9.75-1L14.05,95Q17,87.48,19.94,80h0l1.89-3c.38-.64.75-1.29,1.12-1.93s.73-1.32,1.09-2l5-14,.87-2L31,56l2.34-1.76q3.47-3.9,6.94-7.81L41.85,44a.85.85,0,0,0,.35-.64L44.06,41l0,0L46,39c1-1,2-2.08,3-3.11l5.41-4.65L59,28l1.19-.87,6-4.84L68,22l5.16-1.61L73,19.93,79,19.07l3-.88,2,1.29c-2.1,1.05-4.15,2.88-6.3,3-9.4.58-15.18,7-21.62,12.52l-1,1c-2,1.62-4.22,3-5.87,4.9-3.44,4-6.06,8.78-10,12.16C32.94,58.48,30.38,65.33,29,73h0C25.61,75.34,26.93,78.23,28,81.1Z"/><path class="cls-28" d="M19.94,80Q17,87.48,14.05,95l-.57,2.09-.75,1c-.72-.7-2.2-1.67-2.06-2.07,1.69-4.78,3.47-9.55,5.61-14.14C16.73,80.86,18.68,80.57,19.94,80Z"/><path class="cls-28" d="M54.35,31.23l-5.41,4.65C48.9,32.18,51.35,31.39,54.35,31.23Z"/><path class="cls-18" d="M73.13,20.38,68,22l1.1-1.93Z"/><path class="cls-28" d="M69.07,20.06,68,22l-1.82.27Z"/><path class="cls-28" d="M21.85,76.93,20,80Z"/><path class="cls-28" d="M24.06,73c-.36.66-.72,1.32-1.09,2C23.34,74.34,23.7,73.68,24.06,73Z"/><path class="cls-28" d="M46,39,44,41.06Z"/><path class="cls-28" d="M44.06,41,42.2,43.31Z"/><path class="cls-28" d="M41.85,44l-1.59,2.44Z"/><path class="cls-28" d="M33.32,54.2,31,56Z"/><path class="cls-28" d="M29.88,57,29,59Z"/><path class="cls-28" d="M60.18,27.1,59,28Z"/><path class="cls-21" d="M56,35c6.44-5.48,12.22-11.94,21.62-12.52,2.15-.13,4.2-2,6.3-3H84c3.84.29,7.95,1,7.85-5l2-.77c1.19.52,2.38,1.48,3.58,1.49,5.7,0,11.42-.1,17.12-.38,1.45-.07,2.87-.86,4.31-1.32l2-.11c2,2.32,3.69,2.93,4.9-.63l-.1-.11L128,13a22.91,22.91,0,0,1,4.57,1.09A32.71,32.71,0,0,1,137,17a13.89,13.89,0,0,1-3.15.76c-4.5.07-9,0-13.5,0a7.46,7.46,0,0,1-2.45,0c-9-3.62-17.34-1.06-25.74,2.18-8.07,3.12-16.27,5.9-24.33,9-2.1.81-3.85,2.5-5.88,3.56S58,34.2,56,35Z"/><path class="cls-10" d="M118.94,13.55c-1.44.46-2.86,1.25-4.31,1.32-5.7.28-11.42.41-17.12.38-1.2,0-2.39-1-3.58-1.49a.36.36,0,0,1,.45-.15l2.74-1.3-.18-.42L105,10l2.94.56L111,11Z"/><path class="cls-10" d="M91.89,14.53c.1,6-4,5.24-7.84,5,.79-1.06,1.57-2.12,2.36-3.17Z"/><path class="cls-28" d="M86.41,16.31c-.79,1.05-1.57,2.11-2.36,3.17h-.11l-2-1.29Z"/><path class="cls-18" d="M97.12,12.31l-2.74,1.3Z"/><path class="cls-23" d="M13.94,107,18,108v0l1,2c0,.33,0,.65,0,1-5,2.2-5.6,4.72-2.06,8v5c-3.64,1-1.15,3-.66,4.63,2.69,8.82,5.5,17.61,8.1,26.46.21.74-.85,1.84-1.32,2.77L21,156.07l-1.56-3.16c-.11-.64-.23-1.27-.34-1.91-.22-1.05-.44-2.1-.65-3.14-.17,0-.32.11-.48.17-1.11-4.79-2.21-9.59-3.35-14.37-.42-1.77-.94-3.52-1.42-5.28v.06c0-.48-.08-1-.13-1.44-.23-.71-.47-1.42-.71-2.12l-.4.14-.06-3.81c0-.45,0-.9.05-1.35,0-3,0-5.93,0-8.9,0-.32,0-.63.05-.95l.18-2.93Z"/><path class="cls-24" d="M13.94,107l-1.78.13c.26-1.7.53-3.41.8-5.11C13.29,103.63,13.61,105.29,13.94,107Z"/><path class="cls-18" d="M11.92,119.86c0,.45,0,.9-.05,1.35C11.89,120.76,11.9,120.31,11.92,119.86Z"/><path class="cls-24" d="M12,110c0,.32,0,.63-.05.95A1.47,1.47,0,0,1,12,110Z"/><path class="cls-18" d="M12.33,124.88c.24.7.48,1.41.71,2.12C12.81,126.29,12.57,125.59,12.33,124.88Z"/><polygon class="cls-18" points="13.17 128.44 13.17 128.38 12.79 128.43 13.17 128.44"/><path class="cls-18" d="M19.41,152.91,21,156.07l-1.83-.28c-.09-.59-.17-1.18-.26-1.77C19.05,153.65,19.23,153.28,19.41,152.91Z"/><path class="cls-18" d="M18.42,147.86c.21,1,.43,2.09.65,3.14l-1-1C18.16,149.29,18.29,148.57,18.42,147.86Z"/><path class="cls-22" d="M149,148l0,5.06c0,.63,0,1.26,0,1.89L148,157c-.61.6-1.22,1.2-1.84,1.79L149,161l2,.06,2,3.92-4,5-6.07,1.1a6.33,6.33,0,0,1-.87,0c-4-1.26-7.8.33-9.11,3.8L131,175c-4-.58-6,1.43-7,5-2,1.59-4.11,3.16-6.14,4.76-4.42,3.48-5.64,7.37-3.88,12.29l4,5,3,1,4,3-5,5c-3.07.29-6.16.44-9.21.9-5.83.89-8.59-1.39-8.82-7.29A27.76,27.76,0,0,0,101,200c0-1,0-2,0-3,.56-1.34,2-3.05,1.54-3.95-1.62-3.61.42-5.74,2.47-8,.32,0,.63,0,1,0l8-6h0c2.3-1.37,6.52-2.68,6.57-4.14.23-6.52,5.56-7.56,9.47-9.5,6.42-3.18,8-4.79,8-12.32-.36-1.26-.32-3-1.16-3.68-2.51-2-5.21-4.06-8.18-5-1-.34-3.09,2.38-4.68,3.7l-2,0c-2.84-6.4-2.84-6.4,3-8l6,0q2,4.22,4,0h4q2.52,4.71,5,0h4Z"/><path class="cls-12" d="M87,208.12l-5.14,2.21-1.76-.39c-.2-.77-.15-2-.64-2.26-9.14-5.62-18.35-11.13-27.54-16.66l-2.76-3.08A10.65,10.65,0,0,0,47.86,185c-1.85-2.1-3.9-4-5.86-6,4.29,2.66,8.7,5.14,12.84,8,8.15,5.66,16,11.72,24.3,17.14,1.4.91,5.38.25,6.35-1,2.45-3.27-2-11.1-6.48-12.14q-1.52-4.5-3-9c0-1.34,0-2.67,0-4-.94-3.85-3.21-3.7-6-2H67l-6,1c-3-1.21-7.29-.19-8-5v-2l1.12-.06.9,1,.94,1,0,0,2,.89h1.9c4.09,1.62,7.84,1.21,11.11-1.92H74l5.09,1q-.5,6-1,12L81,187h0c.24.59.33,1.34.75,1.74,1.64,1.54,4.63,2.79,4.86,4.47C87.34,198.08,87,203.13,87,208.12Z"/><path class="cls-12" d="M101,200a27.76,27.76,0,0,1,.95,4.61c.23,5.9,3,8.18,8.82,7.29,3-.46,6.14-.61,9.21-.9l6,3-3.53.44-.28,0-.24-.15-1-.16-3-.07L116,213l-13,1c-4.18-.83-5.75-3-4-7.21A61.63,61.63,0,0,0,101,200Z"/><path class="cls-19" d="M84.05,187l-3,0h0l-.42-3L83,180.13c4.7-.52,9.67.78,14.06-2,.46-.29,1.3,0,2,0l-.38,3.08Z"/><path class="cls-12" d="M105,185c-2,2.27-4.09,4.4-2.47,8,.41.9-1,2.61-1.54,3.95l-3.5,0,.72-3,.94-.64-1.55.05-.22.08c-.14-2.82-.29-5.64-.43-8.46l2,0Z"/><path class="cls-20" d="M99,185l-2,0c-3.46,1-6.9,2.06-10.39,2.88-.74.17-1.69-.61-2.54-.94l14.58-5.82,1.19,1.05-.09.84Z"/><path class="cls-7" d="M98.24,194l-.72,3-.62.81-7-.66,1-5.6c1.43.31,2.88.55,4.29.94a14.52,14.52,0,0,1,2.19,1l.22-.07A.59.59,0,0,0,98.24,194Z"/><path class="cls-26" d="M96.79,201.37c-.12,1.49.25,3.36-.52,4.32-.54.66-3.14.59-3.92-.12s-.78-2.73-1.11-4.16Z"/><path class="cls-11" d="M96.79,201.37l-5.55,0c-.43-1.43-.86-2.85-1.3-4.28l7,.66C96.86,199,96.83,200.18,96.79,201.37Z"/><path class="cls-22" d="M76,178c0,1.33,0,2.66,0,4-.54,1.54-1.66,3.13-1.5,4.6.24,2.39,1.14,4.87,4.52,4.39,4.43,1,8.93,8.87,6.48,12.14-1,1.29-4.95,2-6.35,1C70.85,198.75,63,192.69,54.84,187c-4.14-2.88-8.55-5.36-12.84-8l-1-1-2-2h0c-1.25-3.51-1.15-7.9-6-9l-1-2-1-2h0c.08-2.14.18-4.3-3-4h0c-.19-1.28,0-2.88-.63-3.8C20.51,145.9,22.53,133.67,17,124v-5l0-1h6l1,1,9,4c.67,1.33,1.35,2.66,2,4,.31,3,.63,6,.94,9,.58,5.08,6.65,10,12.72,9.92,3.76-.06,5.8,1,5.29,5.07l-1,2c-1.61,2.32-3.75,4.45-4.71,7-1.45,3.85,1.51,10.48,4.7,12,.72,4.79,5.06,3.77,8,5l6-1h3Z"/><path class="cls-12" d="M17,124c5.56,9.69,3.54,21.92,10.41,31.21.68.92.44,2.52.63,3.8l-3.26.44-1.66-1.59c.47-.93,1.53-2,1.32-2.77-2.6-8.85-5.41-17.64-8.1-26.46C15.82,127,13.33,125,17,124Z"/><path class="cls-12" d="M33,167c4.86,1.1,4.76,5.49,6,9l-2.95,0A7.46,7.46,0,0,1,36,175Z"/><path class="cls-12" d="M28,159c3.17-.29,3.07,1.87,3,4Z"/><path class="cls-18" d="M28.46,165.92,27,163Z"/><path class="cls-12" d="M31,163l1,2Z"/><path class="cls-12" d="M39,176l2,2Z"/><path class="cls-18" d="M48.07,187.67,46,186.92Z"/><path class="cls-21" d="M146,205c0-1,0-2.06,0-3.09l4-5.92,1.1-.94,1.82-.14,3.08-3,1-.93,0,1.15,3.18,2.93L169,193l0,0q-8,5.51-16,11l-7,1Z"/><path class="cls-21" d="M188.78,167.3c-.11.62-.5,1.4-.26,1.83,1,1.76,3.46,4.33,3,4.93-2.1,2.95-4.94,5.36-7.53,8l0,0c1-1.85,1.79-4,3.17-5.52,3.21-3.59,1.36-4.67-1.63-4.1L177,177l5.56-9.85,5.94.39Z"/><path class="cls-21" d="M184,182c-3.52,5.69-8.34,9.6-15,11l0,0c.62-1.31.93-3,2-3.83a33.65,33.65,0,0,1,5.75-3.26c2.43-1.31,4.87-2.6,7.31-3.9Z"/><path class="cls-26" d="M194.58,165.77l-1.72.91-2.87.41-1.22.22-.28.23c-.25-1.09-.49-2.18-.74-3.27L196,163Z"/><path class="cls-24" d="M194.58,165.77,196,163l1.22-1.69,2.19-1.76.59.47C199.81,163.45,198.23,165.59,194.58,165.77Z"/><path class="cls-24" d="M190,167.09l2.87-.41-1.64,2Z"/><path class="cls-24" d="M200.2,157.93l.82,1L200,160l-.59-.47Z"/><path class="cls-10" d="M142.77,213.93l1.82-1.76Z"/><path class="cls-27" d="M116,213l2,1.07-3,1.13C115.4,214.49,115.71,213.75,116,213Z"/><path class="cls-27" d="M121,214.16l1,.16h-.5Z"/><path class="cls-21" d="M126,214l-6-3,5-5,1-1,1.94-.91L135,208c1.33,1.65,2.67,3.3,4,5l-4,1-7,0Z"/><path class="cls-12" d="M128,214l7,0-5,1-2,0C128,214.68,128,214.36,128,214Z"/><path class="cls-26" d="M143.88,199.9l-1,1.65L141,203l-3,1.92-5.93-.11L131,204h0l-.09-1.94c4.12,1.9,7.21.19,10.16-2.66,3.54-3.41,7.47-6.44,10.84-10,1.66-1.76,3.7-4.54,3.39-6.51-.91-5.74-8.25-8.19-13.47-5.38-2.38,1.28-5.21,1.71-7.84,2.53l-.06-1.85L146,173l3,0,2.93,1.11,1.63,1.12c2.5,3.54,5.59,6.85,4.48,11.77a.75.75,0,0,0-.22.62l-4.3,4a.51.51,0,0,0-.5.28Z"/><path class="cls-24" d="M143.88,199.9l9.13-8c0,1-.09,2-.13,3l-1.82.14L150,196l-4,5.92Z"/><path class="cls-10" d="M132.06,204.83l5.93.11c0,.4,0,.8,0,1.2L135,208l-7.05-3.94.11-.14L131,204h0l.37,1.32Z"/><path class="cls-24" d="M138,206.14c0-.4,0-.8,0-1.2l3-1.92c0,.35.11.7.17,1Z"/><path class="cls-10" d="M141.19,204.07c-.06-.35-.12-.7-.17-1l1.84-1.47C142.3,202.39,141.74,203.23,141.19,204.07Z"/><path class="cls-21" d="M146,205l-1.2,1.52-.32-.32L146,205Z"/><path class="cls-10" d="M125.87,12.81c-1.21,3.56-3,2.95-4.9.63Z"/><path class="cls-18" d="M128,13l-2.19-.29.72-2.22L128,10l2.07.19Z"/><path class="cls-18" d="M111,11l-3.08-.42,3.06-.5A5.66,5.66,0,0,0,111,11Z"/><path class="cls-23" d="M128,13l2.11-2.81h1.86l4.52,2.51a.85.85,0,0,1,.58.15L140,14.07,145,15.48c0,.51,0,1,0,1.51l-6,0-2,0a32.71,32.71,0,0,0-4.47-2.93A22.91,22.91,0,0,0,128,13Z"/><path class="cls-18" d="M136.45,12.68l-4.52-2.51Z"/><path class="cls-31" d="M107.08,105.89a7,7,0,0,0,8.83,0l.35,6.87C111.34,111.87,106.79,112,107.08,105.89Z"/><path class="cls-31" d="M115.91,103c-.26-1.55-1.1-3.3-.64-4.59.54-1.5,2.09-3.83,3.72-.44Z"/><path class="cls-7" d="M119,92.09c.63,1.29,1.26,2.58,1.88,3.87Z"/><path class="cls-22" d="M52,123c-.39-3.67-.73-7.34-1.16-11a4.84,4.84,0,0,1,4.61-5.82c3.54-.33,7.75-.59,10.64,1C69.29,109,69.63,113,68.27,117a27.93,27.93,0,0,0-1.11,9.22c0,1,1.86,1.88,2.87,2.82l1,2c0,.34,0,.68,0,1a34,34,0,0,1-4.66,3.1c-1.85.85-4,1.79-5.85,1.59-1-.11-1.86-2.54-2.47-4s-.33-3.14-1.1-4.28C56,127,54.33,126.09,53,125Z"/><path class="cls-12" d="M71,132c0-.34,0-.68,0-1,5,4.71,6.54,4.54,15.9-2.1,0,1,0,2.09.08,3.14-.91.65-1.76,1.78-2.72,1.88C80,134.34,79.73,136.7,81,140l-8-.81-3.7,0L65,140l6.58-3.72Z"/><path class="cls-32" d="M82,128c-2.7.15-6.3,3.36-7.43-1.89a7.62,7.62,0,0,1,.7-5.35c.57-.85,3.35-1.11,4.47-.46s1.68,2.7,2.26,4.23a11.94,11.94,0,0,1,.36,2.9A.69.69,0,0,1,82,128Z"/><path class="cls-30" d="M121.79,128c.87-2.3,1.73-4.37-.69-6.58-2.1-1.91-1.47-4.1,1-5.62l6.87,1.23c.45,5.63,7.14,8.69,6.14,14.91-1.67.19-3.47.87-5,.45A70.18,70.18,0,0,1,122,129Z"/><path class="cls-19" d="M122,129a70.18,70.18,0,0,0,8.15,3.4c1.5.42,3.3-.26,5-.45l6,.76q2-1.4,3.95-2.77,1,2.47,2,4.93c-8.7,1.92-17.3,2.95-25.09-2.92C121.94,131,122,130,122,129Z"/><path class="cls-29" d="M110,136.05a33.61,33.61,0,0,1-1.59-3.58,10.74,10.74,0,0,1,1.83-1l.81,2.64Z"/><path class="cls-30" d="M105.94,136.05c-5-1.75-4.09-5.38-2.93-9.1,3.3,0,4.56,1.44,3.67,4.72A42.58,42.58,0,0,0,105.94,136.05Z"/><path class="cls-22" d="M81,140c-1.26-3.31-1-5.67,3.29-6.13,1-.1,1.81-1.23,2.72-1.88,3.41-3.42,6,.25,9,1,0,.66,0,1.33,0,2,.66,1.34,1.32,2.67,2,4,0,7.59-1,8.45-8.81,7.24-.67-.11-1.45.44-2.19.68-.3,0-.6,0-.91-.07-.12-2.81.52-6.15-4.07-5.86Z"/><path class="cls-32" d="M103.11,148.21l1.83,0c.69.39,1.46,1.22,2.07,1.12,4.93-.86,7.07,3,9.47,5.87,1.72,2.06,4,4.94.1,7.45l1.58,1.35c-.08.62-.15,1.24-.23,1.86a5,5,0,0,0-.74.25c-.67.32-1.91.6-1.93,1-.26,4-3.18,4.57-6.2,5.09a45.34,45.34,0,0,0-2.11-4.52,38.18,38.18,0,0,0-2.82-3.68l-.79-.28c-.13-.58-.26-1.15-.38-1.73.25-3.69-2.67-3.42-4.91-3.8a43.15,43.15,0,0,0-5.22-.26L99,153l3-3.07Z"/><path class="cls-25" d="M84.85,148.18l.77,1.67c-.52,2.73-1,5.47-1.54,8.2l-1.34,1.57-2.66,1.45a37.19,37.19,0,0,0,1.64-4.49c.44-1.84,1.24-4,.7-5.59a9.46,9.46,0,0,0-10.49-6.59c-3.23.45-6.56,3.29-8.94,5.9a21.85,21.85,0,0,0-4.36,8.81,14,14,0,0,0,.13,8.09c.33.88,4.29,1,6.42.55,4.95-1,11.34.64,13.5-6.4.07-.22.92-.19,1.4-.27-.28,1.67-.56,3.34-.85,5l-1.53,2.68-1.61.52L63,171.05l-2.81.67-3.89-1.05-1.48-10.74c.18-.5.35-1,.52-1.51l1.79-2.3h0L62,146a.55.55,0,0,0,.18-.7l3.45-3.09,3.27-.54,11.1,2.4,3.82,2.47a.34.34,0,0,0,.07.54Z"/><path class="cls-11" d="M84.08,158.05c.51-2.73,1-5.47,1.54-8.2L87.06,152l2,2,2.06,0c0,1.31,0,2.61-.07,3.92.09.67.19,1.35.29,2a2.21,2.21,0,0,0-.85,0C88.65,158.24,87,156.18,84.08,158.05Z"/><path class="cls-8" d="M91,158c0-1.31,0-2.61.07-3.92h0l2-2L99,151v2l-6.13,4.91Z"/><path class="cls-12" d="M83.88,147.06a.34.34,0,0,1-.07-.54c-.6-1.84-1.21-3.68-1.81-5.52,4.59-.29,4,3.05,4.07,5.86a5.23,5.23,0,0,1-1,.1Z"/><path class="cls-7" d="M99,153v-2l3-1Z"/><path class="cls-20" d="M89,154.05l-2-2Z"/><path class="cls-11" d="M93.1,152.09l-2,2Z"/><path class="cls-11" d="M83.88,147.06l1.22-.1c-.08.41-.16.82-.25,1.22Z"/><path class="cls-7" d="M118.16,164l-1.58-1.35c3.89-2.51,1.62-5.39-.1-7.45-2.4-2.87-4.54-6.73-9.47-5.87-.61.1-1.38-.73-2.07-1.12l6.71-1,.09,0,2.92,2.05,0,0,2.39,1.48a.92.92,0,0,0,.64.28q1.8,5,3.59,10c-.48.88-1,1.76-1.45,2.64Z"/><path class="cls-27" d="M113,145l1,2-.13.16-2.15.17-.09,0,.3-1.15Z"/><path class="cls-25" d="M111.65,57.54,106,59l-1.17-.09,0-1.8c4.14-2.55,8.19-5.26,12.44-7.61,3.1-1.72,6.46-3,9.7-4.43l.1,1.19-10,6.78c-.47.47-.93.94-1.39,1.42L114,56Z"/><path class="cls-11" d="M117.08,53.07l10-6.78,4.56-2.65q-1.89,2.61-3.8,5.21Z"/><path class="cls-11" d="M114,56l1.73-1.5Z"/><path class="cls-26" d="M131.69,43.64l-4.56,2.65c0-.39-.07-.79-.1-1.19,3.86-5.07,4.37-7.61.19-11-2.25-1.81-6.4-2.17-9.52-1.79C112.05,33,106.53,34.71,101,36q3.53-2.49,7.06-5l4.87-.24L118,29.1l6-.22,3.9,2.27,1.16.79,1.48,1.72a.55.55,0,0,0,.13.67l1,2,.51,1.56c0,1.4,0,2.79,0,4.19Z"/><path class="cls-11" d="M146.41,31.22q-2.5,5.66-5,11.3Q142.73,37.75,144,33Z"/><path class="cls-11" d="M132.26,42.1c0-1.4,0-2.79,0-4.19C134.79,39.28,134.81,40.68,132.26,42.1Z"/><path class="cls-11" d="M139.91,45l-1.08,2Z"/><path class="cls-11" d="M131.71,36.35l-1-2L132,34v0Z"/><path class="cls-26" d="M130.77,61.8l-.45,0-.39.24A3.26,3.26,0,0,1,130.77,61.8Z"/><path class="cls-10" d="M69.06,63.16,67,63a27.76,27.76,0,0,0-5.19.92c-3.31,1.25-6.51,2.82-9.75,4.25,1.37-1.24,2.57-2.8,4.15-3.67,5.56-3,5.18-2.66,1.92-7.85a12,12,0,0,1-1-9c.46-1.45,4.51-2,7-2.47,1.16-.23,2.53.57,3.81.9l1,2c2.84,3.35,2.49,6.8-.17,10.54L77,64v2l-5.32-1.58-.07-.12-1.12-.7a1,1,0,0,1-.74-.27l-.21-.73ZM65.39,49.67l-.13-.1c-1.67-.66-3.37-1.86-5-1.74-.74.06-2.07,2.92-1.72,4.1.4,1.4,2.32,2.37,3.59,3.52L66,54.89C70,52.68,68.85,51,65.39,49.67Z"/><path class="cls-21" d="M68,46c-1.28-.33-2.65-1.13-3.81-.9-2.51.51-6.56,1-7,2.47a12,12,0,0,0,1,9c3.26,5.19,3.64,4.83-1.92,7.85-1.58.87-2.78,2.43-4.15,3.67L49,70l-.06-.2c1.27-2.07,2.1-4.76,3.92-6.07,2.28-1.64,2.87-2.56,2-5.48a24.81,24.81,0,0,1-.55-10.88c.27-1.67,2.94-4,4.72-4.16C62.12,42.92,66.2,41.45,68,46Z"/><path class="cls-21" d="M29,73c1.38-7.67,3.94-14.52,10.18-19.94,3.89-3.38,6.51-8.2,10-12.16C50.78,39,53,37.62,55,36c-4.24,5.75-8.24,11.7-12.81,17.17-4.41,5.29-9.44,10-10.6,17.3C31.43,71.43,29.89,72.16,29,73Z"/><path class="cls-21" d="M28,81.1c-1.11-2.87-2.43-5.76,1-8.1.77,4.25,7.62,6.52,12.62,4.16,1.47-.69,2.91-1.44,4.37-2.17.77,4.81-1.4,6.67-6.05,6.07Z"/><path class="cls-10" d="M39.94,81.06c4.65.6,6.82-1.26,6.05-6.07,0-.66,0-1.32,0-2,.34-1,.67-2,1-3l2-.17L49,70c.08.41.15.82.22,1.24-.38,1.19-.77,2.38-1.15,3.57a16.34,16.34,0,0,1-.11,3c-.43,2-1,3.94-1.56,5.9Z"/><path class="cls-12" d="M156,21q2.5,2.49,5,5c0,.38,0,.75,0,1.13l-4.88,0L151,25l1-1,4-3Z"/><path class="cls-12" d="M151,17l2,0,3,4H145c0-1,0-2,0-3Z"/><path class="cls-10" d="M151,25l5.06,2c0,.58-.11,1.16-.16,1.74L151,29l-3-.86c0-1,0-2.05,0-3.08Z"/><path class="cls-21" d="M145,18c0,1,0,2,0,3-3.07.29-5.72-.05-6-4l6,0h0C145,17.34,145,17.68,145,18Z"/><path class="cls-21" d="M151,21h5l-4,3Z"/><path class="cls-21" d="M89,37l-4,3C84.71,36.81,86.87,36.92,89,37Z"/><path class="cls-21" d="M47,70c-.34,1-.67,2-1,3C46.35,72,46.68,71,47,70Z"/><path class="cls-10" d="M112.89,30.78,108,31,107,30c3.75-3.72,13.85-5,17-2.14v1.06l-6,.22Z"/><path class="cls-11" d="M124,28.88V27.82l2,.3,2,1a3.13,3.13,0,0,0,.15.81c-.06.4-.12.8-.19,1.2Z"/><path class="cls-11" d="M148.06,28.13l3,.86-3.11.81Z"/><path class="cls-10" d="M127.94,29.14l-2-1Z"/><path class="cls-10" d="M127.9,31.15c.07-.4.13-.8.19-1.2.32.67.65,1.33,1,2Z"/><path class="cls-10" d="M132,34l-1.28.3a.55.55,0,0,1-.13-.67l.94-.83Z"/><path class="cls-29" d="M96,66,91.2,57.34l1.41-1,3,1.11c4.09-1-4.33-5.14,2.23-5.27q1.62,3.92,3.25,7.85C101,67.75,101,67.75,96,66Z"/><path class="cls-31" d="M101.08,60q-1.64-3.93-3.25-7.85l.23-.24,2.77.31,4.06,4.91,0,1.8Z"/><path class="cls-32" d="M104.89,57.14l-4.06-4.91L97,50.05l-1.28-.71-2.14-6.16,4.59-3.86L101,36c5.57-1.28,11.09-3,16.74-3.66,3.12-.38,7.27,0,9.52,1.79,4.18,3.37,3.67,5.91-.19,11-3.24,1.46-6.6,2.71-9.7,4.43C113.08,51.88,109,54.59,104.89,57.14Z"/><path class="cls-8" d="M93.55,43.18l2.14,6.16-6.22-4.28,1-1.21Z"/><path class="cls-8" d="M97,50.05l3.86,2.18-2.77-.31Z"/><path class="cls-11" d="M77.72,82.82l1.84-2.34Z"/><path class="cls-23" d="M80,87c-.32.34-.64.68-1,1C79.36,87.69,79.68,87.35,80,87Z"/><path class="cls-11" d="M71.69,64.45,77,66c.17.77.34,1.54.52,2.31Z"/><path class="cls-10" d="M78.88,68.06c0,.41-.06.83-.08,1.24l-.32,0C78.61,68.88,78.75,68.47,78.88,68.06Z"/><path class="cls-11" d="M78.88,68.06c-.13.41-.27.82-.4,1.22-.25-.25-.5-.5-.76-.74Z"/><path class="cls-26" d="M93.55,43.18l-3.09.67,7.68-4.53Z"/><path class="cls-9" d="M20.41,107.57c-2.69-3.71-2.7-7,.69-10.56,1.68-1.78,2.19-4.72,3-7.2,2-5.67,4.86-6.88,13.92-5.79,5.1.61,6.28,4.11,6.63,8.45a19.51,19.51,0,0,0,1.2,6.21c1.12,2.57,1.41,4.32-1,6.57-1.21,1.14-1,3.89-1.21,5.94-.37,3.79.19,7.87-3.82,10.29L35,119c-1-1.18-2-3.36-3.09-3.39-5.74-.12-8.45-4.2-11.49-8Z"/><path class="cls-25" d="M42.37,126.13l6.36-.51,1.82,1.68q.8,5.87,1.6,11.72L51,140.12,43,137l6.86-1.29c-.59-2.09-.88-4.36-1.93-6.19-.46-.8-3.48-1.22-3.63-.94a20.93,20.93,0,0,0-1.72,5.53A9.28,9.28,0,0,0,43,137l-2-.11-1.39-.22C38.12,132.55,39.44,129.13,42.37,126.13Z"/><path class="cls-23" d="M51,140.12,52.15,139c3.23-3.63,2.52-8.84-1.6-11.73l-1.82-1.68c-4.29-3.69-4-8-1.78-12.65.3,1.34,1.15,2.85.8,4-1.2,4,1,5.33,4.24,6l1,2c1,4.18,2.91,8.43,2.61,12.52-.16,2.28-3.94,4.4-6.34,6.27-.26.2-2.17-1.73-3.32-2.67l1.15.09L48,142Z"/><path class="cls-10" d="M42.37,126.13c-2.93,3-4.25,6.42-2.79,10.58L37,136c-.86-3,1.91-6.72-2-9-.67-1.34-1.35-2.67-2-4-.33-.65-.66-1.31-1-2l1-2h2l4.89,2.5Z"/><path class="cls-23" d="M56.07,100,48.92,97a6.88,6.88,0,0,1-.89-2.2c0-1.81.23-3.62.37-5.42,1.65,1.4,3.62,2.56,4.85,4.27S55.16,97.85,56.07,100Z"/><path class="cls-23" d="M49,100c3,2.73,2.18,6.55-2,10Q48,105,49,100Z"/><path class="cls-10" d="M19.06,110l-1-2,2.37-.41,0,.06Z"/><path class="cls-32" d="M52.11,79.65c-1.15-4.71,1-7.39,5.17-8.89a26.45,26.45,0,0,0,4.44-2.25c5.37-3.12,11.63-2,15.1,3.15.86,1.26,1.72,3.56,1.15,4.6-2.32,4.22-2.55,9.63-7.57,12.41-2.17,1.2-3.41,4-5.35,5.76-1.25,1.13-3,2.32-4.53,2.3-.87,0-1.78-2.33-2.57-3.67-1.07-1.82-2.05-3.69-3.06-5.56-1.33-2.47-2.64-5-4-7.42Z"/><path class="cls-11" d="M49.26,71.27c-.07-.42-.14-.83-.22-1.24l3-1.88c3.24-1.43,6.44-3,9.75-4.25A27.76,27.76,0,0,1,67,63Z"/><path class="cls-11" d="M70.5,63.63l1.12.7Z"/><path class="cls-11" d="M69.06,63.16l.49-.53.21.73h-.39Z"/><path class="cls-32" d="M165,168a114.54,114.54,0,0,1-8.78-8.41,6,6,0,0,1-.81-5c1-3.08,2.73-5.91,4.07-8.88,1.18-2.61,1.39-6,5.59-5.79s9.05-.84,10.93,4.82c.07.2.58.25.88.37l.39.08.38-.06c0,1.63,0,3.26.07,4.9l-1.31,1,2.28,1.13.83.86-.85,4.11a6.24,6.24,0,0,0,.07,1q-1,4.44-2,8.88c-2,3.74-5.34,3.83-8.92,3.15Z"/><path class="cls-27" d="M177.72,150c0-1.64-.05-3.27-.07-4.9l0-1.12.33-1,2,1c0,1,0,2,0,2.94.63,1.34,1.27,2.68,1.9,4l0,.05,3.93,1,.62,2.06.31.09.29-.16c-.25,1.37-.49,2.74-.73,4.11L185,161c-3.17-.35-5.21.15-5.21,4.25,0,2.28-1.61,4.57-2.5,6.86l-.34-.13c-.05-1.67-.11-3.35-.16-5q1-4.44,2-8.88c2.48-.5,2.67-1.1,1.25-4.06l-.47-1c-.27-.29-.55-.58-.83-.86C178.37,151.43,178.05,150.73,177.72,150Z"/><path class="cls-24" d="M165,168l2.86,2.14c2.46,3.37,5,6.08,9.08,1.87l.34.13c-1.88,4.45-4.21,4.77-8.89,1.82-2.59-1.63-5.6-2.62-8.42-3.9l-.92-.05-3-2,0,0-2.9-2.09A4.43,4.43,0,0,0,153,165l-2-3.92c0-1.35,0-2.69,0-4,1.31,1.69,3.09,3.2,3.85,5.11C156.74,166.94,160.54,167.88,165,168Z"/><path class="cls-10" d="M151,157c0,1.34,0,2.68,0,4l-2-.06c-.33-1.33-.67-2.66-1-4l1.09-2,2,0C151.05,155.67,151,156.34,151,157Z"/><path class="cls-24" d="M151.08,155l-2,0c0-.63,0-1.26,0-1.89l3,0Z"/><path class="cls-26" d="M177.7,144l0,1.12-.38.06-.39-.08Z"/><path class="cls-21" d="M125,140c-5.83,1.59-5.83,1.59-3,8L118,147l-1,0c-.21-.78-.76-1.66-.57-2.32.66-2.35,1.58-4.62,2.4-6.91Z"/><path class="cls-21" d="M144,140q-2.5,4.72-5,0Z"/><path class="cls-21" d="M135,140q-2,4.22-4,0Z"/><path class="cls-27" d="M117,147l1,0c-.35.67-.71,1.34-1.07,2l-2.17.34,0,0c-.25-.74-.51-1.48-.77-2.22L114,147Z"/><path class="cls-31" d="M141.11,132.74l-6-.76c1-6.22-5.69-9.28-6.14-14.91,4.24,3.79,8.59,7.47,12.62,11.49C142.18,129.18,141.29,131.3,141.11,132.74Z"/><path class="cls-11" d="M155.91,28.82c.05-.58.11-1.16.16-1.74l4.88,0L164,29c-.07.43-.15.86-.22,1.29Z"/><path class="cls-10" d="M164,29l-3-1.92c0-.38,0-.75,0-1.13C162.43,26.56,166.45,24.64,164,29Z"/><path class="cls-23" d="M145,18c0-.34,0-.68,0-1l6,0Z"/><path class="cls-24" d="M192.49,145.52l7.34,1.31.42,9.21q-3.18-2.31-6.35-4.63l-3.9-.31a.54.54,0,0,0,0-.65Z"/><path class="cls-10" d="M186,152,182,151l4.92.47a.29.29,0,0,1,0,.45A2.82,2.82,0,0,0,186,152Z"/><path class="cls-26" d="M186.94,151.49l3.06-1a.54.54,0,0,1,0,.65L187.17,154l-.29.16-.31-.09c.11-.7.22-1.4.34-2.1A.29.29,0,0,0,186.94,151.49Z"/><path class="cls-10" d="M182,151c-.63-1.33-1.27-2.67-1.9-4C180.71,148.3,181.35,149.64,182,151Z"/><path class="cls-26" d="M193.9,151.41q3.16,2.33,6.35,4.63c0,.63,0,1.26-.05,1.89l-.75,1.63-2.19,1.76A8.41,8.41,0,0,0,193.9,151.41Z"/><path class="cls-24" d="M200.42,144c-.15-.67-.3-1.35-.46-2C200.12,142.66,200.27,143.34,200.42,144Z"/><path class="cls-24" d="M199.83,146.85a1.15,1.15,0,0,1,.4-.87C200.1,146.27,200,146.56,199.83,146.85Z"/><path class="cls-24" d="M13.48,97.1,14.05,95Z"/><path class="cls-24" d="M19.06,110l1.38-2.39c3,3.76,5.75,7.84,11.49,8C33,115.62,34,117.8,35,119H31L23,116c0-.32,0-.63-.05-.94l-1-2L20,113l-1-2C19.05,110.67,19.06,110.35,19.06,110Z"/><path class="cls-12" d="M19,111c.34.65.67,1.3,1,2l-3,5,0,1C13.43,115.72,14.08,113.2,19,111Z"/><path class="cls-12" d="M138,153c0,7.53-1.57,9.14-8,12.32-3.91,1.94-9.24,3-9.47,9.5-.05,1.46-4.27,2.77-6.57,4.14l3.06-4.89,1-1,7-10c7.41-.14,10.49-2.94,11-10Z"/><path class="cls-12" d="M159.05,170l.92.05,3,4c-.34,1.67-.67,3.35-1,5-.63.69-1.27,1.37-1.91,2.05l-1.14-3h0L156,175h0q-2-2-4.07-3.94l-2.85,0,0-1.13,4-5a4.43,4.43,0,0,1,.12.89L156,168l0,0Z"/><path class="cls-27" d="M117,174.08,114,179h0l-8,6c-.32,0-.63,0-1,0l-6,0c.23-.65.46-1.3.7-1.95,4,.65,6.26-1.34,7.53-4.88l.8-1.09h.46L109,177l5.13-3.17,2-.52Z"/><path class="cls-10" d="M114,197c-1.76-4.92-.54-8.81,3.88-12.29,2-1.6,4.09-3.17,6.15-4.76l1.19,0,2.45,1.21c-.32.4-.65.79-1,1.19l-6.79,5.51-1.94,2,.18,1.13a2.6,2.6,0,0,0-.4.73.9.9,0,0,0-.8-.08l-.8,1.41v0L115.07,197Z"/><path class="cls-24" d="M127.64,181.16,125.19,180l5.85-3.89,3-1L137,175l4.14-2.91,1-.95a6.33,6.33,0,0,0,.87,0L146,173l-12.11,5.17-1.91.91Z"/><path class="cls-21" d="M138,153h-2c-1.28-5.73-5.78-5.05-10-5l-2,0c1.59-1.32,3.64-4,4.68-3.7,3,1,5.67,3,8.18,5C137.68,150,137.64,151.74,138,153Z"/><path class="cls-12" d="M142.06,171.12l-1,.95L137,175l-2.9.06-1.11-.12C134.26,171.45,138.05,169.86,142.06,171.12Z"/><path class="cls-23" d="M124,148l2,0L120,151.17l-2.21,0a.92.92,0,0,1-.64-.28c-.07-.6-.15-1.21-.22-1.82.36-.67.72-1.34,1.07-2l4.06,1Z"/><path class="cls-12" d="M131,176.06,125.19,180,124,180c1-3.58,3-5.59,7-5Z"/><path class="cls-12" d="M106,185l8-6Z"/><path class="cls-12" d="M114,197l1.1-.08,2,.09,1.94.79,0,.34-.32.11L118,202Z"/><path class="cls-12" d="M126,205l-1,1-4-3,0-2,2.93.1,1,.9.05,0Z"/><path class="cls-10" d="M146,173l-3.1-1.94L149,170c0,.38,0,.75,0,1.13,0,.65,0,1.3,0,1.95Z"/><path class="cls-10" d="M121,201l0,2-3-1c.21-1.24.43-2.48.64-3.72L121,199Z"/><path class="cls-12" d="M148,157c.34,1.33.68,2.66,1,4l-2.85-2.2C146.77,158.2,147.38,157.6,148,157Z"/><path class="cls-10" d="M131,176.06l0-1.08,1.95-.06,1.11.12Z"/><path class="cls-20" d="M84.08,158.05c2.88-1.87,4.57.19,6.36,1.93.23,1.28.47,2.55.7,3.83Q89,167.38,86.9,171L83,180.13c-.8,1.26-1.59,2.53-2.38,3.79l-2.53.09q.48-6,1-12c-.46-1.07-.91-2.15-1.36-3.22l1.53-2.68,3.51-6.48Z"/><path class="cls-21" d="M53,172c-3.19-1.51-6.15-8.14-4.7-12,1-2.57,3.1-4.7,4.71-7v19Z"/><path class="cls-10" d="M53,170V156l2.14.07.19,2.35-.51,1.51c-.54.79-1.55,1.59-1.53,2.37.07,2.56.52,5.1.83,7.65Z"/><path class="cls-11" d="M63,171.05l13.1-1.75L74,171H71.05Z"/><path class="cls-10" d="M63,171.05l8.06-.05c-3.27,3.13-7,3.54-11.11,1.92l.24-1.2Z"/><path class="cls-21" d="M79,191c-3.38.48-4.28-2-4.52-4.39-.16-1.47,1-3.06,1.5-4.6Q77.51,186.49,79,191Z"/><path class="cls-11" d="M54.12,170c-.31-2.55-.76-5.09-.83-7.65,0-.78,1-1.58,1.53-2.37l1.47,10.74-.44.48A4,4,0,0,0,55,171Z"/><path class="cls-21" d="M76,178l-6-2C72.79,174.3,75.06,174.15,76,178Z"/><path class="cls-10" d="M74,171l2.12-1.7,1.61-.52c.45,1.07.9,2.15,1.36,3.22Z"/><path class="cls-21" d="M67,176l-6,1Z"/><path class="cls-27" d="M78.09,184l2.53-.09c.13,1,.27,2,.41,3Z"/><path class="cls-11" d="M60.18,171.72l-.24,1.2H58L56,172l0,0a3.15,3.15,0,0,0-.11-.87l.44-.48Z"/><path class="cls-10" d="M56,172l2,.89Z"/><path class="cls-10" d="M55.85,171.15A3.15,3.15,0,0,1,56,172L55,171A4,4,0,0,1,55.85,171.15Z"/><path class="cls-31" d="M83,180.13,86.9,171l5.11-.52-3,5.12,5.39,1,1.36-3.55,4.3,2-1.06,3c-.65,0-1.49-.3-2,0C92.67,180.91,87.7,179.61,83,180.13Z"/><path class="cls-8" d="M99,178.09c.36-1,.71-2,1.06-3l1.19-1,1.49-3.05V167l.15-2.87q.23-.21.45-.39l.79.28c2.21,6-.57,11-3.13,16h0l-.9.86-.28,1.36-1.19-1.05C98.76,180.14,98.89,179.12,99,178.09Z"/><path class="cls-27" d="M98.24,194a.59.59,0,0,1-.61-.59l1.55-.05Z"/><path class="cls-26" d="M99.82,182.22c.09-.45.19-.9.28-1.36l.9-.86h0l6.26-1.82c-1.27,3.54-3.55,5.53-7.53,4.88Z"/><path class="cls-21" d="M37,136l2.58.71,1.39.22c0,.65.05,1.3.07,1.95l3,2.06,1.88.19c1.15.93,3.06,2.86,3.32,2.66,2.4-1.87,6.18-4,6.34-6.27.3-4.09-1.62-8.34-2.61-12.52,1.32,1.09,3,2,3.89,3.34.77,1.14.54,2.92,1.1,4.28s1.49,3.94,2.47,4c1.88.2,4-.74,5.85-1.59A34,34,0,0,0,71,132c.19,1.42.39,2.84.59,4.27L65,140l-1.12,2L62,143.85c-3.63.45-4.42,3.21-5,6.14l-3,1c.51-4.07-1.53-5.13-5.29-5.07C42.64,146,36.57,141.09,36,136Z"/><path class="cls-21" d="M17,118l3-5,1.89.12,1,2c0,.31,0,.62.05.94l0,2Z"/><path class="cls-12" d="M23,118l0-2L31,119H33l-1,2-8-2Z"/><path class="cls-12" d="M54,151l3-1c0,1.36,0,2.72.07,4.09l.09,2h0l-2-.05L53,156v-3Z"/><path class="cls-12" d="M37,136H36c-.31-3-.63-6-.94-9C38.91,129.28,36.14,133,37,136Z"/><path class="cls-21" d="M24,119l8,2c.34.65.67,1.31,1,2Z"/><path class="cls-22" d="M160.09,181.05c.64-.68,1.28-1.36,1.91-2.05,3-.4,6.11-2.62,9,.84,2.46,3,3.78,2.4,5-1.84l1-1,8.53-4.63c3-.57,4.84.51,1.63,4.1C185.78,178,185,180.14,184,182c-2.44,1.3-4.88,2.59-7.31,3.9a33.65,33.65,0,0,0-5.75,3.26c-1,.83-1.33,2.52-2,3.83l-8.79,2.09L157,192.14c.34,0,.68-.08,1-.12,1.56-.69,5.33,1.52,4-3l-1-2-1-3.06V182C160,181.69,160.07,181.37,160.09,181.05Z"/><path class="cls-24" d="M153.51,191.67l4.3-4c.05.76.11,1.52.16,2.27l-1,1-1,.93Z"/><path class="cls-10" d="M153.51,191.67l2.45.25-3.08,3c0-1,.09-2,.13-3A.51.51,0,0,1,153.51,191.67Z"/><path class="cls-10" d="M157,191l1-1c0,.68,0,1.36.07,2.05-.35,0-.69.07-1,.12Z"/><path class="cls-10" d="M150,196l1.1-.94Z"/><path class="cls-10" d="M177,177l-1,1-13-4-3-4c2.82,1.28,5.83,2.27,8.42,3.9,4.68,3,7,2.63,8.89-1.82.89-2.29,2.51-4.58,2.5-6.86,0-4.1,2-4.6,5.21-4.25l1,0,1.72,3.19,0,.06c.25,1.09.49,2.18.74,3.27l-5.93-.39Z"/><path class="cls-9" d="M193.9,151.41a8.41,8.41,0,0,1,3.36,9.91L196,163l-8.29,1.26,0-.06L187.1,158a.53.53,0,0,0-.66.11c.24-1.37.48-2.74.73-4.11L190,151.1Z"/><path class="cls-10" d="M126,205l-1-3,3,1.95-.11.14Z"/><path class="cls-32" d="M127.64,181.16l4.37-2,2,.94c2.63-.82,5.46-1.25,7.84-2.53,5.22-2.81,12.56-.36,13.47,5.38.31,2-1.73,4.75-3.39,6.51-3.37,3.56-7.3,6.59-10.84,10-2.95,2.85-6,4.56-10.16,2.66l-3-2.17-3.9-2c-2.27-2.2-4-4.54-1.9-7.8l2.71-2.64,1.86-5.1Z"/><path class="cls-24" d="M160,182v1.92c-.34,1.06-.69,2.12-1,3.18a4.42,4.42,0,0,1-1-.05c1.11-4.92-2-8.23-4.48-11.77L156,175h0l2.95,3h0C159.31,179.37,159.66,180.69,160,182Z"/><path class="cls-24" d="M127.88,199.9l3,2.17L131,204l-2.94-.07L125,202l-.05,0-1-.9L121,201c0-.65,0-1.3,0-1.94l3-.09Z"/><path class="cls-21" d="M158,187.07a4.42,4.42,0,0,0,1,.05l1,.92,2,1c1.36,4.54-2.41,2.33-4,3,0-.69,0-1.37-.07-2.05s-.11-1.52-.16-2.28A.75.75,0,0,1,158,187.07Z"/><path class="cls-10" d="M156,175l-2.41.27c-.55-.37-1.09-.75-1.63-1.13l0-3.08Q153.93,173.06,156,175Z"/><path class="cls-24" d="M151.89,171.09l0,3.08-2.93-1.1c0-.65,0-1.3,0-1.95Z"/><path class="cls-9" d="M134,180.05l-2-.94,1.91-.91Z"/><path class="cls-24" d="M132.06,204.83l-.7.5L131,204Z"/><path class="cls-10" d="M82,141c.6,1.84,1.21,3.68,1.81,5.52L80,144.05l-7-4.85,8,.81Z"/><path class="cls-11" d="M73,139.2l7,4.85-11.1-2.4c.12-.84.25-1.67.37-2.5Z"/><path class="cls-10" d="M69.26,139.15c-.12.83-.25,1.66-.37,2.5l-3.27.54L63.86,142c.38-.66.75-1.33,1.13-2Z"/><path class="cls-9" d="M107.26,178.18,101,180c2.56-5,5.34-10,3.13-16a38.18,38.18,0,0,1,2.82,3.68,45.34,45.34,0,0,1,2.11,4.52c.14.75.27,1.49.41,2.24a1.75,1.75,0,0,1-.36.6l-1,2.05Z"/><path class="cls-8" d="M91.14,163.81c-.23-1.28-.47-2.55-.7-3.83a2.21,2.21,0,0,1,.85,0L103,162c.12.58.25,1.15.38,1.73q-.23.18-.45.39l-1.7-.09Z"/><path class="cls-10" d="M125,163l-7,10-1-1c0-2,.09-3.91.14-5.87a5,5,0,0,1,.74-.25l1.95-2.13c.49-.88,1-1.76,1.45-2.64l3.68-1C125,161.1,125,162,125,163Z"/><path class="cls-26" d="M117.19,166.15c0,2-.09,3.91-.14,5.87l-1,1.29-2,.52-4.63.61c-.14-.75-.27-1.49-.41-2.24,3-.52,5.94-1.1,6.2-5.09C115.28,166.75,116.52,166.47,117.19,166.15Z"/><path class="cls-9" d="M103,162l-11.67-2c-.1-.68-.2-1.36-.29-2l1.83-.06a43.15,43.15,0,0,1,5.22.26C100.29,158.57,103.21,158.3,103,162Z"/><path class="cls-11" d="M119.88,163.77l-1.95,2.13c.08-.62.15-1.24.23-1.86Z"/><path class="cls-32" d="M80.08,161.08c-.48.08-1.33,0-1.4.27-2.16,7-8.55,5.4-13.5,6.4-2.13.43-6.09.33-6.42-.55a14,14,0,0,1-.13-8.09A21.85,21.85,0,0,1,63,150.3c2.38-2.61,5.71-5.45,8.94-5.9A9.46,9.46,0,0,1,82.42,151c.54,1.61-.26,3.75-.7,5.59a37.19,37.19,0,0,1-1.64,4.49Z"/><path class="cls-10" d="M57,154.08c0-1.37,0-2.73-.07-4.09.58-2.93,1.37-5.69,5-6.14l.21,1.43a.55.55,0,0,1-.18.7Z"/><path class="cls-11" d="M57,154.08l5-8.1-4.87,10.14Z"/><path class="cls-11" d="M82.74,159.62l-3.51,6.48c.29-1.68.57-3.35.85-5h0Z"/><path class="cls-12" d="M62.17,145.28,62,143.85,63.87,142l1.75.22Z"/><path class="cls-11" d="M55.14,156.07l2,.05-1.79,2.3C55.27,157.64,55.21,156.85,55.14,156.07Z"/><path class="cls-11" d="M125,160.16l-3.68,1q-1.78-5-3.59-10l2.21,0,5.21,1.93c.12,2,.23,4,.34,6Z"/><path class="cls-11" d="M113.89,147.14c.26.74.52,1.48.77,2.22l-2.92-2.05Z"/><path class="cls-11" d="M116.88,149.05c.07.61.15,1.22.22,1.82l-2.39-1.48Z"/><path class="cls-11" d="M112.89,30.78,118,29.1Z"/><path class="cls-7" d="M66,54.89l-3.82.56C61.57,53.72,61,52,60.4,50.27l4.86-.7.13.1C65.59,51.41,65.78,53.15,66,54.89Z"/><path class="cls-16" d="M65.26,49.57l-4.86.7c.58,1.73,1.17,3.45,1.76,5.18-1.27-1.15-3.19-2.12-3.59-3.52-.35-1.18,1-4,1.72-4.1C61.89,47.71,63.59,48.91,65.26,49.57Z"/><path class="cls-16" d="M66,54.89c-.2-1.74-.39-3.48-.59-5.22C68.85,51,70,52.68,66,54.89Z"/><path class="cls-32" d="M43,137a9.28,9.28,0,0,1-.42-2.89,20.93,20.93,0,0,1,1.72-5.53c.15-.28,3.17.14,3.63.94,1.05,1.83,1.34,4.1,1.93,6.19L43,137Z"/><path class="cls-11" d="M50.55,127.3c4.12,2.89,4.83,8.1,1.6,11.73Q51.36,133.17,50.55,127.3Z"/><path class="cls-11" d="M41,138.88c0-.65,0-1.3-.07-1.95l2,.11h0l8,3.08L48,142c-.31-.25-.62-.5-.92-.76L46,141.12l-1.88-.18Z"/><path class="cls-21" d="M47.11,141.21c.3.26.61.51.92.76C47.72,141.72,47.41,141.47,47.11,141.21Z"/><path class="cls-7" d="M176.94,172c-4,4.21-6.62,1.5-9.08-1.87,3.58.68,6.89.59,8.92-3.15Z"/><path class="cls-7" d="M179.52,153l.47,1-1.32,3.09Z"/><path class="cls-7" d="M177.72,150c.33.7.65,1.4,1,2.1L176.41,151Z"/><path class="cls-26" d="M178.67,157.1,180,154c1.42,3,1.23,3.56-1.25,4.06A6.24,6.24,0,0,1,178.67,157.1Z"/><path class="cls-11" d="M186,161l-1,0,1.45-2.91a.53.53,0,0,1,.66-.11C186.74,159,186.38,160,186,161Z"/><path class="cls-11" d="M186.91,151.94c-.12.7-.23,1.4-.34,2.1L186,152A2.82,2.82,0,0,1,186.91,151.94Z"/><path class="cls-10" d="M159.05,170l-3-2Z"/><path class="cls-10" d="M156,168l-2.9-2.09Z"/><path class="cls-10" d="M33,119h0Z"/><path class="cls-10" d="M23,115l-1-2Z"/><path class="cls-27" d="M125.16,153.1,120,151.17,126,148c4.19-.06,8.69-.74,10,5-.47,7.05-3.55,9.85-11,10,0-1,0-1.89,0-2.83.17-.34.33-.68.49-1a2.32,2.32,0,0,0,.57.22l2.87.72,3.41-2.83c.37-1.67,1.6-4.08.94-4.85-1.18-1.37-3.47-2.07-5.39-2.34-.65-.09-1.6,2-2.42,3Z"/><path class="cls-11" d="M116.07,173.31l1-1.29,1,1-1,1Z"/><path class="cls-21" d="M163,174l13,4c-1.25,4.24-2.57,4.82-5,1.84-2.86-3.46-5.93-1.24-9-.84C162.34,177.33,162.67,175.65,163,174Z"/><path class="cls-10" d="M158.94,178.05,156,175Z"/><path class="cls-10" d="M160,182c-.36-1.33-.71-2.65-1.07-4l1.14,3C160.07,181.37,160,181.69,160,182Z"/><path class="cls-11" d="M109.47,174.44l4.63-.61L109,177c0-.65.1-1.31.14-2A1.75,1.75,0,0,0,109.47,174.44Z"/><path class="cls-26" d="M109.11,175c0,.65-.09,1.31-.14,2l-.45.09h-.46Z"/><path class="cls-9" d="M124.05,198.93l-3,.09-2.38-.73.32-.11,0-.34-1.26-6.08a2.6,2.6,0,0,1,.4-.73l1.92-1,1.77-.28.29.35c-2.06,3.25-.37,5.59,1.9,7.79Z"/><path class="cls-24" d="M126.66,182.35l-1.86,5.1-2.09.4-2.54.37-.3-.36Z"/><path class="cls-16" d="M117.71,191.76l1.26,6.08L117,197c-.3-1.33-.61-2.66-.91-4v0c.26-.47.53-.94.8-1.41A.9.9,0,0,1,117.71,191.76Z"/><path class="cls-24" d="M116.12,193.05c.3,1.33.61,2.66.91,4l-2-.08Z"/><path class="cls-24" d="M117.93,189.9l1.94-2,.3.36-.83,1.08,0-.06Z"/><path class="cls-16" d="M117.93,189.9l1.46-.66,0,.14.62.65-1.92,1Z"/><path class="cls-24" d="M116.91,191.68c-.27.47-.54.94-.8,1.41C116.37,192.62,116.64,192.15,116.91,191.68Z"/><path class="cls-10" d="M137,175l4.14-2.91Z"/><path class="cls-10" d="M124,201.06l1,.9Z"/><path class="cls-29" d="M91.14,163.81l10,.21,1.56,3c0,1.35,0,2.7,0,4.05l-1.49,3.05-1.19,1-4.3-2-1.36,3.55-5.39-1,3-5.12L86.9,171Q89,167.39,91.14,163.81Z"/><path class="cls-19" d="M102.74,167l-1.56-3,1.71.09Z"/><path class="cls-19" d="M101.26,174.08l1.49-3.05C102.26,172.05,101.76,173.06,101.26,174.08Z"/><path class="cls-9" d="M101,180l-.9.86Z"/><path class="cls-10" d="M41,138.88l3,2.06Z"/><path class="cls-10" d="M160,188l-1-.92c.34-1.06.69-2.12,1-3.18.34,1,.67,2,1,3.06Z"/><path class="cls-12" d="M160,188l1-1,1,2Z"/><path class="cls-26" d="M186,161c.37-1,.73-2,1.09-3.05l.63,6.24C187.16,163.15,186.59,162.08,186,161Z"/><path class="cls-16" d="M124.05,198.93l-.06-1,3.9,2Z"/><path class="cls-9" d="M122.71,187.85l2.09-.4-2.71,2.64-.29-.34C122.11,189.12,122.41,188.49,122.71,187.85Z"/><path class="cls-7" d="M126.07,159.37a2.32,2.32,0,0,1-.57-.22q-.16-3-.34-6.05h.32c5.23-2.33,6.28-1.69,6.87,4.16l-3.41,2.83Z"/><path class="cls-16" d="M132.35,157.26c-.59-5.85-1.64-6.49-6.87-4.16.82-1.07,1.77-3.12,2.42-3,1.92.27,4.21,1,5.39,2.34C134,153.18,132.72,155.59,132.35,157.26Z"/><path class="cls-16" d="M126.07,159.37l2.87.72Z"/><path class="cls-16" d="M122.71,187.85c-.3.64-.6,1.27-.91,1.9L120,190l-.62-.65-.07-.08.83-1.08Z"/><polygon class="cls-10" points="119.34 189.3 119.41 189.38 119.39 189.24 119.34 189.3"/></g></g></svg>