<svg xmlns="http://www.w3.org/2000/svg" viewBox="0 0 518.93 599"><defs><style>.cls-1{fill:#ecb365;}.cls-2{fill:#b4bbc1;}.cls-3{fill:#fff;}</style></defs><g id="Layer_2" data-name="Layer 2"><g id="Layer_1-2" data-name="Layer 1"><polygon class="cls-1" points="0 449.2 0 149.2 86.38 199.07 86.38 291.37 172.75 341.24 172.75 248.93 259.13 298.8 259.13 598.8 172.75 548.93 172.75 433.55 86.38 383.68 86.38 499.07 0 449.2"/><polygon class="cls-2" points="259.13 599 259.13 299 345.73 249 367.38 282.65 410.68 257.65 432.33 199 518.93 149 518.93 449 432.33 499 432.33 337.46 410.68 396.12 367.38 421.12 345.73 387.46 345.73 549 259.13 599"/><polygon class="cls-3" points="259.13 0 0 149.4 259.13 298.8 518.25 149.4 259.13 0"/></g></g></svg>